SplineFontDB: 3.0
FontName: parufont
FullName: parufont
FamilyName: parufont
Weight: Medium
Copyright: paru
UComments: "2016-2-23: Created with FontForge (http://fontforge.org)"
Version: 001.000
ItalicAngle: 0
UnderlinePosition: 1
UnderlineWidth: 50
Ascent: 800
Descent: 200
InvalidEm: 0
LayerCount: 2
Layer: 0 0 "Back" 1
Layer: 1 0 "Fore" 0
XUID: [1021 668 -1508745919 13047752]
StyleMap: 0x0000
FSType: 0
OS2Version: 0
OS2_WeightWidthSlopeOnly: 0
OS2_UseTypoMetrics: 1
CreationTime: 1456257554
ModificationTime: 1456259567
OS2TypoAscent: 0
OS2TypoAOffset: 1
OS2TypoDescent: 0
OS2TypoDOffset: 1
OS2TypoLinegap: 90
OS2WinAscent: 0
OS2WinAOffset: 1
OS2WinDescent: 0
OS2WinDOffset: 1
HheadAscent: 0
HheadAOffset: 1
HheadDescent: 0
HheadDOffset: 1
DEI: 91125
Encoding: UnicodeBmp
UnicodeInterp: none
NameList: AGL For New Fonts
DisplaySize: 16
AntiAlias: 0
FitToEm: 0
WinInfo: 0 8 8
BeginChars: 65536 323

StartChar: exclam
Encoding: 33 33 1
Width: 187
VWidth: 0
Flags: HW
LayerCount: 2
Back
Fore
SplineSet
125 175 m 1
 125 50 l 1
 63 50 l 1
 63 175 l 1
 125 175 l 1
63 737 m 1
 125 737 l 1
 125 238 l 1
 63 238 l 1
 63 737 l 1
EndSplineSet
EndChar

StartChar: quotedbl
Encoding: 34 34 2
Width: 375
VWidth: 0
Flags: HW
LayerCount: 2
Back
Fore
SplineSet
188 737 m 1
 250 737 l 1
 250 550 l 1
 188 550 l 1
 188 737 l 1
63 737 m 1
 125 737 l 1
 125 550 l 1
 63 550 l 1
 63 737 l 1
EndSplineSet
EndChar

StartChar: numbersign
Encoding: 35 35 3
Width: 562
VWidth: 0
Flags: HW
LayerCount: 2
Back
Fore
SplineSet
125 612.5 m 1
 125 737.5 l 1
 156.25 737.5 l 1
 187.5 737.5 l 1
 187.5 612.5 l 1
 187.5 487.5 l 1
 250 487.5 l 1
 312.5 487.5 l 1
 312.5 612.5 l 1
 312.5 737.5 l 1
 343.75 737.5 l 1
 375 737.5 l 1
 375 612.5 l 1
 375 487.5 l 1
 437.5 487.5 l 1
 500 487.5 l 1
 500 456.25 l 1
 500 425 l 1
 437.5 425 l 1
 375 425 l 1
 375 362.5 l 1
 375 300 l 1
 437.5 300 l 1
 500 300 l 1
 500 268.75 l 1
 500 237.5 l 1
 437.5 237.5 l 1
 375 237.5 l 1
 375 143.75 l 1
 375 50 l 1
 343.75 50 l 1
 312.5 50 l 1
 312.5 143.75 l 1
 312.5 237.5 l 1
 250 237.5 l 1
 187.5 237.5 l 1
 187.5 143.75 l 1
 187.5 50 l 1
 156.25 50 l 1
 125 50 l 1
 125 143.75 l 1
 125 237.5 l 1
 62.5 237.5 l 1
 0 237.5 l 1
 0 268.75 l 1
 0 300 l 1
 62.5 300 l 1
 125 300 l 1
 125 362.5 l 1
 125 425 l 1
 62.5 425 l 1
 0 425 l 1
 0 456.25 l 1
 0 487.5 l 1
 62.5 487.5 l 1
 125 487.5 l 1
 125 612.5 l 1
312.5 362.5 m 1
 312.5 425 l 1
 250 425 l 1
 187.5 425 l 1
 187.5 362.5 l 1
 187.5 300 l 1
 250 300 l 1
 312.5 300 l 1
 312.5 362.5 l 1
EndSplineSet
EndChar

StartChar: dollar
Encoding: 36 36 4
Width: 562
VWidth: 0
Flags: HW
LayerCount: 2
Back
Fore
SplineSet
187.5 706.25 m 1
 187.5 737.5 l 1
 218.75 737.5 l 1
 250 737.5 l 1
 250 706.25 l 1
 250 675 l 1
 281.25 675 l 1
 312.5 675 l 1
 312.5 643.75 l 1
 312.5 612.5 l 1
 343.75 612.5 l 1
 375 612.5 l 1
 375 550 l 1
 375 487.5 l 1
 343.75 487.5 l 1
 312.5 487.5 l 1
 312.5 550 l 1
 312.5 612.5 l 1
 218.75 612.5 l 1
 125 612.5 l 1
 125 518.75 l 1
 125 425 l 1
 156.25 425 l 1
 187.5 425 l 1
 187.5 487.5 l 1
 187.5 550 l 1
 218.75 550 l 1
 250 550 l 1
 250 456.25 l 1
 250 362.5 l 1
 281.25 362.5 l 1
 312.5 362.5 l 1
 312.5 331.25 l 1
 312.5 300 l 1
 343.75 300 l 1
 375 300 l 1
 375 206.25 l 1
 375 112.5 l 1
 343.75 112.5 l 1
 312.5 112.5 l 1
 312.5 81.25 l 1
 312.5 50 l 1
 281.25 50 l 1
 250 50 l 1
 250 18.75 l 1
 250 -12.5 l 1
 218.75 -12.5 l 1
 187.5 -12.5 l 1
 187.5 18.75 l 1
 187.5 50 l 1
 156.25 50 l 1
 125 50 l 1
 125 81.25 l 1
 125 112.5 l 1
 93.75 112.5 l 1
 62.5 112.5 l 1
 62.5 175 l 1
 62.5 237.5 l 1
 93.75 237.5 l 1
 125 237.5 l 1
 125 175 l 1
 125 112.5 l 1
 218.75 112.5 l 1
 312.5 112.5 l 1
 312.5 206.25 l 1
 312.5 300 l 1
 281.25 300 l 1
 250 300 l 1
 250 237.5 l 1
 250 175 l 1
 218.75 175 l 1
 187.5 175 l 1
 187.5 268.75 l 1
 187.5 362.5 l 1
 156.25 362.5 l 1
 125 362.5 l 1
 125 393.75 l 1
 125 425 l 1
 93.75 425 l 1
 62.5 425 l 1
 62.5 518.75 l 1
 62.5 612.5 l 1
 93.75 612.5 l 1
 125 612.5 l 1
 125 643.75 l 1
 125 675 l 1
 156.25 675 l 1
 187.5 675 l 1
 187.5 706.25 l 1
EndSplineSet
EndChar

StartChar: percent
Encoding: 37 37 5
Width: 687
VWidth: 0
Flags: HW
LayerCount: 2
Back
Fore
SplineSet
125 706.25 m 1
 125 737.5 l 1
 187.5 737.5 l 1
 250 737.5 l 1
 250 706.25 l 1
 250 675 l 1
 281.25 675 l 1
 312.5 675 l 1
 312.5 581.25 l 1
 312.5 487.5 l 1
 343.75 487.5 l 1
 375 487.5 l 1
 375 581.25 l 1
 375 675 l 1
 406.25 675 l 1
 437.5 675 l 1
 437.5 706.25 l 1
 437.5 737.5 l 1
 468.75 737.5 l 1
 500 737.5 l 1
 500 706.25 l 1
 500 675 l 1
 468.75 675 l 1
 437.5 675 l 1
 437.5 581.25 l 1
 437.5 487.5 l 1
 406.25 487.5 l 1
 375 487.5 l 1
 375 393.75 l 1
 375 300 l 1
 406.25 300 l 1
 437.5 300 l 1
 437.5 331.25 l 1
 437.5 362.5 l 1
 500 362.5 l 1
 562.5 362.5 l 1
 562.5 331.25 l 1
 562.5 300 l 1
 593.75 300 l 1
 625 300 l 1
 625 206.25 l 1
 625 112.5 l 1
 593.75 112.5 l 1
 562.5 112.5 l 1
 562.5 81.25 l 1
 562.5 50 l 1
 500 50 l 1
 437.5 50 l 1
 437.5 81.25 l 1
 437.5 112.5 l 1
 406.25 112.5 l 1
 375 112.5 l 1
 375 206.25 l 1
 375 300 l 1
 343.75 300 l 1
 312.5 300 l 1
 312.5 237.5 l 1
 312.5 175 l 1
 281.25 175 l 1
 250 175 l 1
 250 112.5 l 1
 250 50 l 1
 218.75 50 l 1
 187.5 50 l 1
 187.5 112.5 l 1
 187.5 175 l 1
 218.75 175 l 1
 250 175 l 1
 250 237.5 l 1
 250 300 l 1
 281.25 300 l 1
 312.5 300 l 1
 312.5 393.75 l 1
 312.5 487.5 l 1
 281.25 487.5 l 1
 250 487.5 l 1
 250 456.25 l 1
 250 425 l 1
 187.5 425 l 1
 125 425 l 1
 125 456.25 l 1
 125 487.5 l 1
 93.75 487.5 l 1
 62.5 487.5 l 1
 62.5 581.25 l 1
 62.5 675 l 1
 93.75 675 l 1
 125 675 l 1
 125 706.25 l 1
250 581.25 m 1
 250 675 l 1
 187.5 675 l 1
 125 675 l 1
 125 581.25 l 1
 125 487.5 l 1
 187.5 487.5 l 1
 250 487.5 l 1
 250 581.25 l 1
562.5 206.25 m 1
 562.5 300 l 1
 500 300 l 1
 437.5 300 l 1
 437.5 206.25 l 1
 437.5 112.5 l 1
 500 112.5 l 1
 562.5 112.5 l 1
 562.5 206.25 l 1
EndSplineSet
EndChar

StartChar: ampersand
Encoding: 38 38 6
Width: 375
VWidth: 0
Flags: HW
LayerCount: 2
Back
Fore
SplineSet
125 643.75 m 1
 125 675 l 1
 187.5 675 l 1
 250 675 l 1
 250 643.75 l 1
 250 612.5 l 1
 281.25 612.5 l 1
 312.5 612.5 l 1
 312.5 518.75 l 1
 312.5 425 l 1
 281.25 425 l 1
 250 425 l 1
 250 393.75 l 1
 250 362.5 l 1
 187.5 362.5 l 1
 125 362.5 l 1
 125 331.25 l 1
 125 300 l 1
 93.75 300 l 1
 62.5 300 l 1
 62.5 206.25 l 1
 62.5 112.5 l 1
 156.25 112.5 l 1
 250 112.5 l 1
 250 143.75 l 1
 250 175 l 1
 281.25 175 l 1
 312.5 175 l 1
 312.5 206.25 l 1
 312.5 237.5 l 1
 281.25 237.5 l 1
 250 237.5 l 1
 250 268.75 l 1
 250 300 l 1
 281.25 300 l 1
 312.5 300 l 1
 312.5 268.75 l 1
 312.5 237.5 l 1
 343.75 237.5 l 1
 375 237.5 l 1
 375 175 l 1
 375 112.5 l 1
 406.25 112.5 l 1
 437.5 112.5 l 1
 437.5 143.75 l 1
 437.5 175 l 1
 468.75 175 l 1
 500 175 l 1
 500 112.5 l 1
 500 50 l 1
 437.5 50 l 1
 375 50 l 1
 375 81.25 l 1
 375 112.5 l 1
 343.75 112.5 l 1
 312.5 112.5 l 1
 312.5 81.25 l 1
 312.5 50 l 1
 187.5 50 l 1
 62.5 50 l 1
 62.5 81.25 l 1
 62.5 112.5 l 1
 31.25 112.5 l 1
 0 112.5 l 1
 0 206.25 l 1
 0 300 l 1
 31.25 300 l 1
 62.5 300 l 1
 62.5 331.25 l 1
 62.5 362.5 l 1
 93.75 362.5 l 1
 125 362.5 l 1
 125 393.75 l 1
 125 425 l 1
 93.75 425 l 1
 62.5 425 l 1
 62.5 518.75 l 1
 62.5 612.5 l 1
 93.75 612.5 l 1
 125 612.5 l 1
 125 643.75 l 1
250 518.75 m 1
 250 612.5 l 1
 187.5 612.5 l 1
 125 612.5 l 1
 125 518.75 l 1
 125 425 l 1
 187.5 425 l 1
 250 425 l 1
 250 518.75 l 1
EndSplineSet
EndChar

StartChar: quotesingle
Encoding: 39 39 7
Width: 250
VWidth: 0
Flags: HW
LayerCount: 2
Back
Fore
SplineSet
63 737 m 1
 149 737 l 1
 149 560 l 1
 63 560 l 1
 63 737 l 1
EndSplineSet
EndChar

StartChar: parenleft
Encoding: 40 40 8
Width: 250
VWidth: 0
Flags: HW
LayerCount: 2
Back
Fore
SplineSet
187.5 768.75 m 1
 187.5 800 l 1
 218.75 800 l 1
 250 800 l 1
 250 768.75 l 1
 250 737.5 l 1
 218.75 737.5 l 1
 187.5 737.5 l 1
 187.5 706.25 l 1
 187.5 675 l 1
 156.25 675 l 1
 125 675 l 1
 125 643.75 l 1
 125 612.5 l 1
 93.75 612.5 l 1
 62.5 612.5 l 1
 62.5 331.25 l 1
 62.5 50 l 1
 93.75 50 l 1
 125 50 l 1
 125 18.75 l 1
 125 -12.5 l 1
 156.25 -12.5 l 1
 187.5 -12.5 l 1
 187.5 -43.75 l 1
 187.5 -75 l 1
 218.75 -75 l 1
 250 -75 l 1
 250 -106.25 l 1
 250 -137.5 l 1
 218.75 -137.5 l 1
 187.5 -137.5 l 1
 187.5 -106.25 l 1
 187.5 -75 l 1
 125 -75 l 1
 62.5 -75 l 1
 62.5 -12.5 l 1
 62.5 50 l 1
 31.25 50 l 1
 0 50 l 1
 0 331.25 l 1
 0 612.5 l 1
 31.25 612.5 l 1
 62.5 612.5 l 1
 62.5 675 l 1
 62.5 737.5 l 1
 125 737.5 l 1
 187.5 737.5 l 1
 187.5 768.75 l 1
EndSplineSet
EndChar

StartChar: parenright
Encoding: 41 41 9
Width: 250
VWidth: 0
Flags: HW
LayerCount: 2
Back
Fore
SplineSet
0 768.75 m 1
 0 800 l 1
 31.25 800 l 1
 62.5 800 l 1
 62.5 768.75 l 1
 62.5 737.5 l 1
 125 737.5 l 1
 187.5 737.5 l 1
 187.5 675 l 1
 187.5 612.5 l 1
 218.75 612.5 l 1
 250 612.5 l 1
 250 331.25 l 1
 250 50 l 1
 218.75 50 l 1
 187.5 50 l 1
 187.5 -12.5 l 1
 187.5 -75 l 1
 125 -75 l 1
 62.5 -75 l 1
 62.5 -106.25 l 1
 62.5 -137.5 l 1
 31.25 -137.5 l 1
 0 -137.5 l 1
 0 -106.25 l 1
 0 -75 l 1
 31.25 -75 l 1
 62.5 -75 l 1
 62.5 -43.75 l 1
 62.5 -12.5 l 1
 93.75 -12.5 l 1
 125 -12.5 l 1
 125 18.75 l 1
 125 50 l 1
 156.25 50 l 1
 187.5 50 l 1
 187.5 331.25 l 1
 187.5 612.5 l 1
 156.25 612.5 l 1
 125 612.5 l 1
 125 643.75 l 1
 125 675 l 1
 93.75 675 l 1
 62.5 675 l 1
 62.5 706.25 l 1
 62.5 737.5 l 1
 31.25 737.5 l 1
 0 737.5 l 1
 0 768.75 l 1
EndSplineSet
EndChar

StartChar: asterisk
Encoding: 42 42 10
Width: 250
VWidth: 0
Flags: HW
LayerCount: 2
Back
Fore
SplineSet
188 737 m 1
 250 737 l 25
 250 675 l 1
 187.5 675 l 25
 188 737 l 1
0 706.25 m 1
 0 737.5 l 1
 31.25 737.5 l 1
 62.5 737.5 l 1
 62.5 706.25 l 1
 62.5 675 l 1
 125 675 l 1
 187.5 675 l 1
 187.5 612.5 l 1
 187.5 550 l 1
 218.75 550 l 1
 250 550 l 1
 250 518.75 l 1
 250 487.5 l 1
 218.75 487.5 l 1
 187.5 487.5 l 1
 187.5 518.75 l 1
 187.5 550 l 1
 125 550 l 1
 62.5 550 l 1
 62.5 518.75 l 1
 62.5 487.5 l 1
 31.25 487.5 l 1
 0 487.5 l 1
 0 518.75 l 1
 0 550 l 1
 31.25 550 l 1
 62.5 550 l 1
 62.5 612.5 l 1
 62.5 675 l 1
 31.25 675 l 1
 0 675 l 1
 0 706.25 l 1
EndSplineSet
EndChar

StartChar: plus
Encoding: 43 43 11
Width: 437
VWidth: 0
Flags: HW
LayerCount: 2
Back
Fore
SplineSet
187.5 487.5 m 1
 187.5 550 l 1
 218.75 550 l 1
 250 550 l 1
 250 487.5 l 1
 250 425 l 1
 312.5 425 l 1
 375 425 l 1
 375 393.75 l 1
 375 362.5 l 1
 312.5 362.5 l 1
 250 362.5 l 1
 250 300 l 1
 250 237.5 l 1
 218.75 237.5 l 1
 187.5 237.5 l 1
 187.5 300 l 1
 187.5 362.5 l 1
 125 362.5 l 1
 62.5 362.5 l 1
 62.5 393.75 l 1
 62.5 425 l 1
 125 425 l 1
 187.5 425 l 1
 187.5 487.5 l 1
EndSplineSet
EndChar

StartChar: comma
Encoding: 44 44 12
Width: 250
VWidth: 0
Flags: HW
LayerCount: 2
Back
Fore
SplineSet
125 237 m 1
 63 237 l 1
 63 206 l 1
 63 175 l 1
 125 175 l 5
 125 237 l 1
62.5 -43.75 m 1
 62.5 -12.5 l 1
 93.75 -12.5 l 1
 125 -12.5 l 1
 125 -43.75 l 1
 125 -75 l 1
 93.75 -75 l 1
 62.5 -75 l 1
 62.5 -43.75 l 1
0 143.75 m 1
 0 175 l 1
 31.25 175 l 1
 62.5 175 l 1
 62.5 143.75 l 1
 62.5 112.5 l 1
 93.75 112.5 l 1
 125 112.5 l 1
 125 175 l 1
 187 175 l 1
 187 -12 l 1
 125 -12.5 l 1
 125 50 l 1
 93.75 50 l 1
 62.5 50 l 1
 62.5 81.25 l 1
 62.5 112.5 l 1
 31.25 112.5 l 1
 0 112.5 l 1
 0 143.75 l 1
EndSplineSet
EndChar

StartChar: hyphen
Encoding: 45 45 13
Width: 375
VWidth: 0
Flags: HW
LayerCount: 2
Back
Fore
SplineSet
312 363 m 1
 63 363 l 5
 63 425 l 5
 312 425 l 1
 312 363 l 1
EndSplineSet
EndChar

StartChar: period
Encoding: 46 46 14
Width: 187
VWidth: 0
Flags: HW
LayerCount: 2
Back
Fore
SplineSet
62 113 m 1
 0 113 l 1
 0 175 l 1
 62 175 l 1
 62 113 l 1
125 112 m 1
 125 50 l 1
 63 50 l 1
 63 112 l 1
 125 112 l 1
125 175 m 1
 187 175 l 1
 187 113 l 1
 125 113 l 1
 125 175 l 1
63 237 m 1
 125 237 l 1
 125 175 l 1
 63 175 l 1
 63 237 l 1
EndSplineSet
EndChar

StartChar: slash
Encoding: 47 47 15
Width: 375
VWidth: 0
Flags: HWO
LayerCount: 2
Back
Fore
SplineSet
250 706.25 m 1
 250 737.5 l 1
 281.25 737.5 l 1
 312.5 737.5 l 1
 312.5 706.25 l 1
 312.5 675 l 1
 281.25 675 l 1
 250 675 l 1
 250 581.25 l 1
 250 487.5 l 1
 218.75 487.5 l 1
 187.5 487.5 l 1
 187.5 393.75 l 1
 187.5 300 l 1
 156.25 300 l 1
 125 300 l 1
 125 237.5 l 1
 125 175 l 1
 93.75 175 l 1
 62.5 175 l 1
 62.5 112.5 l 1
 62.5 50 l 1
 31.25 50 l 1
 0 50 l 1
 0 112.5 l 1
 0 175 l 1
 31.25 175 l 1
 62.5 175 l 1
 62.5 237.5 l 1
 62.5 300 l 1
 93.75 300 l 1
 125 300 l 1
 125 393.75 l 1
 125 487.5 l 1
 156.25 487.5 l 1
 187.5 487.5 l 1
 187.5 581.25 l 1
 187.5 675 l 1
 218.75 675 l 1
 250 675 l 1
 250 706.25 l 1
EndSplineSet
EndChar

StartChar: zero
Encoding: 48 48 16
Width: 562
VWidth: 0
Flags: HW
LayerCount: 2
Back
Fore
SplineSet
250 331.25 m 1
 250 362.5 l 1
 281.25 362.5 l 1
 312.5 362.5 l 1
 312.5 331.25 l 1
 312.5 300 l 1
 281.25 300 l 1
 250 300 l 1
 250 237.5 l 1
 250 175 l 1
 218.75 175 l 1
 187.5 175 l 1
 187.5 237.5 l 1
 187.5 300 l 1
 218.75 300 l 1
 250 300 l 1
 250 331.25 l 1
312.5 550 m 1
 312.5 612.5 l 1
 343.75 612.5 l 1
 375 612.5 l 1
 375 550 l 1
 375 487.5 l 1
 343.75 487.5 l 1
 312.5 487.5 l 1
 312.5 456.25 l 1
 312.5 425 l 1
 281.25 425 l 1
 250 425 l 1
 250 456.25 l 1
 250 487.5 l 1
 281.25 487.5 l 1
 312.5 487.5 l 1
 312.5 550 l 1
187.5 706.25 m 1
 187.5 737.5 l 1
 281.25 737.5 l 1
 375 737.5 l 1
 375 706.25 l 1
 375 675 l 1
 406.25 675 l 1
 437.5 675 l 1
 437.5 643.75 l 1
 437.5 612.5 l 1
 468.75 612.5 l 1
 500 612.5 l 1
 500 393.75 l 1
 500 175 l 1
 468.75 175 l 1
 437.5 175 l 1
 437.5 143.75 l 1
 437.5 112.5 l 1
 406.25 112.5 l 1
 375 112.5 l 1
 375 81.25 l 1
 375 50 l 1
 281.25 50 l 1
 187.5 50 l 1
 187.5 81.25 l 1
 187.5 112.5 l 1
 156.25 112.5 l 1
 125 112.5 l 1
 125 143.75 l 1
 125 175 l 1
 93.75 175 l 1
 62.5 175 l 1
 62.5 393.75 l 1
 62.5 612.5 l 1
 93.75 612.5 l 1
 125 612.5 l 1
 125 643.75 l 1
 125 675 l 1
 156.25 675 l 1
 187.5 675 l 1
 187.5 706.25 l 1
375 643.75 m 1
 375 675 l 1
 281.25 675 l 1
 187.5 675 l 1
 187.5 643.75 l 1
 187.5 612.5 l 1
 156.25 612.5 l 1
 125 612.5 l 1
 125 393.75 l 1
 125 175 l 1
 156.25 175 l 1
 187.5 175 l 1
 187.5 143.75 l 1
 187.5 112.5 l 1
 281.25 112.5 l 1
 375 112.5 l 1
 375 143.75 l 1
 375 175 l 1
 406.25 175 l 1
 437.5 175 l 1
 437.5 393.75 l 1
 437.5 612.5 l 1
 406.25 612.5 l 1
 375 612.5 l 1
 375 643.75 l 1
EndSplineSet
EndChar

StartChar: one
Encoding: 49 49 17
Width: 312
VWidth: 0
Flags: HW
LayerCount: 2
Back
Fore
SplineSet
62.5 643.75 m 1
 62.5 675 l 1
 156.25 675 l 1
 250 675 l 1
 250 362.5 l 1
 250 50 l 1
 187.5 50 l 1
 125 50 l 1
 125 81.25 l 1
 125 112.5 l 1
 156.25 112.5 l 1
 187.5 112.5 l 1
 187.5 362.5 l 1
 187.5 612.5 l 1
 125 612.5 l 1
 62.5 612.5 l 1
 62.5 643.75 l 1
EndSplineSet
EndChar

StartChar: two
Encoding: 50 50 18
Width: 562
VWidth: 0
Flags: HW
LayerCount: 2
Back
Fore
SplineSet
125 706.25 m 1
 125 737.5 l 1
 281.25 737.5 l 1
 437.5 737.5 l 1
 437.5 675 l 1
 437.5 612.5 l 1
 468.75 612.5 l 1
 500 612.5 l 1
 500 550 l 1
 500 487.5 l 1
 468.75 487.5 l 1
 437.5 487.5 l 1
 437.5 456.25 l 1
 437.5 425 l 1
 406.25 425 l 1
 375 425 l 1
 375 393.75 l 1
 375 362.5 l 1
 343.75 362.5 l 1
 312.5 362.5 l 1
 312.5 331.25 l 1
 312.5 300 l 1
 281.25 300 l 1
 250 300 l 1
 250 268.75 l 1
 250 237.5 l 1
 218.75 237.5 l 1
 187.5 237.5 l 1
 187.5 206.25 l 1
 187.5 175 l 1
 156.25 175 l 1
 125 175 l 1
 125 143.75 l 1
 125 112.5 l 1
 281.25 112.5 l 1
 437.5 112.5 l 1
 437.5 143.75 l 1
 437.5 175 l 1
 468.75 175 l 1
 500 175 l 1
 500 112.5 l 1
 500 50 l 1
 281.25 50 l 1
 62.5 50 l 1
 62.5 112.5 l 1
 62.5 175 l 1
 93.75 175 l 1
 125 175 l 1
 125 206.25 l 1
 125 237.5 l 1
 156.25 237.5 l 1
 187.5 237.5 l 1
 187.5 268.75 l 1
 187.5 300 l 1
 218.75 300 l 1
 250 300 l 1
 250 331.25 l 1
 250 362.5 l 1
 281.25 362.5 l 1
 312.5 362.5 l 1
 312.5 393.75 l 1
 312.5 425 l 1
 343.75 425 l 1
 375 425 l 1
 375 456.25 l 1
 375 487.5 l 1
 406.25 487.5 l 1
 437.5 487.5 l 1
 437.5 550 l 1
 437.5 612.5 l 1
 406.25 612.5 l 1
 375 612.5 l 1
 375 643.75 l 1
 375 675 l 1
 250 675 l 1
 125 675 l 1
 125 643.75 l 1
 125 612.5 l 1
 93.75 612.5 l 1
 62.5 612.5 l 1
 62.5 643.75 l 1
 62.5 675 l 1
 93.75 675 l 1
 125 675 l 1
 125 706.25 l 1
EndSplineSet
EndChar

StartChar: three
Encoding: 51 51 19
Width: 500
VWidth: 0
Flags: HW
LayerCount: 2
Back
Fore
SplineSet
125 706.25 m 1
 125 737.5 l 1
 250 737.5 l 1
 375 737.5 l 1
 375 706.25 l 1
 375 675 l 1
 406.25 675 l 1
 437.5 675 l 1
 437.5 581.25 l 1
 437.5 487.5 l 1
 406.25 487.5 l 1
 375 487.5 l 1
 375 393.75 l 1
 375 300 l 1
 406.25 300 l 1
 437.5 300 l 1
 437.5 206.25 l 1
 437.5 112.5 l 1
 406.25 112.5 l 1
 375 112.5 l 1
 375 81.25 l 1
 375 50 l 1
 218.75 50 l 1
 62.5 50 l 1
 62.5 112.5 l 1
 62.5 175 l 1
 93.75 175 l 1
 125 175 l 1
 125 143.75 l 1
 125 112.5 l 1
 250 112.5 l 1
 375 112.5 l 1
 375 206.25 l 1
 375 300 l 1
 343.75 300 l 1
 312.5 300 l 1
 312.5 331.25 l 1
 312.5 362.5 l 1
 250 362.5 l 1
 187.5 362.5 l 1
 187.5 393.75 l 1
 187.5 425 l 1
 250 425 l 1
 312.5 425 l 1
 312.5 456.25 l 1
 312.5 487.5 l 1
 343.75 487.5 l 1
 375 487.5 l 1
 375 581.25 l 1
 375 675 l 1
 250 675 l 1
 125 675 l 1
 125 612.5 l 1
 125 550 l 1
 93.75 550 l 1
 62.5 550 l 1
 62.5 612.5 l 1
 62.5 675 l 1
 93.75 675 l 1
 125 675 l 1
 125 706.25 l 1
EndSplineSet
EndChar

StartChar: four
Encoding: 52 52 20
Width: 562
VWidth: 0
Flags: HW
LayerCount: 2
Back
Fore
SplineSet
62.5 550 m 1
 62.5 737.5 l 1
 93.75 737.5 l 1
 125 737.5 l 1
 125 581.25 l 1
 125 425 l 1
 250 425 l 1
 375 425 l 1
 375 581.25 l 1
 375 737.5 l 1
 406.25 737.5 l 1
 437.5 737.5 l 1
 437.5 550 l 1
 437.5 362.5 l 1
 468.75 362.5 l 1
 500 362.5 l 1
 500 331.25 l 1
 500 300 l 1
 468.75 300 l 1
 437.5 300 l 1
 437.5 175 l 1
 437.5 50 l 1
 406.25 50 l 1
 375 50 l 1
 375 206.25 l 1
 375 362.5 l 1
 218.75 362.5 l 1
 62.5 362.5 l 1
 62.5 550 l 1
EndSplineSet
EndChar

StartChar: five
Encoding: 53 53 21
Width: 562
VWidth: 0
Flags: HW
LayerCount: 2
Back
Fore
SplineSet
62.5 550 m 1
 62.5 737.5 l 1
 250 737.5 l 1
 437.5 737.5 l 1
 437.5 706.25 l 1
 437.5 675 l 1
 281.25 675 l 1
 125 675 l 1
 125 550 l 1
 125 425 l 1
 281.25 425 l 1
 437.5 425 l 1
 437.5 393.75 l 1
 437.5 362.5 l 1
 468.75 362.5 l 1
 500 362.5 l 1
 500 237.5 l 1
 500 112.5 l 1
 468.75 112.5 l 1
 437.5 112.5 l 1
 437.5 81.25 l 1
 437.5 50 l 1
 281.25 50 l 1
 125 50 l 1
 125 81.25 l 1
 125 112.5 l 1
 93.75 112.5 l 1
 62.5 112.5 l 1
 62.5 175 l 1
 62.5 237.5 l 1
 93.75 237.5 l 1
 125 237.5 l 1
 125 175 l 1
 125 112.5 l 1
 281.25 112.5 l 1
 437.5 112.5 l 1
 437.5 237.5 l 1
 437.5 362.5 l 1
 250 362.5 l 1
 62.5 362.5 l 1
 62.5 550 l 1
EndSplineSet
EndChar

StartChar: six
Encoding: 54 54 22
Width: 562
VWidth: 0
Flags: HW
LayerCount: 2
Back
Fore
SplineSet
125 706.25 m 1
 125 737.5 l 1
 281.25 737.5 l 1
 437.5 737.5 l 1
 437.5 706.25 l 1
 437.5 675 l 1
 281.25 675 l 1
 125 675 l 1
 125 550 l 1
 125 425 l 1
 281.25 425 l 1
 437.5 425 l 1
 437.5 393.75 l 1
 437.5 362.5 l 1
 468.75 362.5 l 1
 500 362.5 l 1
 500 237.5 l 1
 500 112.5 l 1
 468.75 112.5 l 1
 437.5 112.5 l 1
 437.5 81.25 l 1
 437.5 50 l 1
 281.25 50 l 1
 125 50 l 1
 125 81.25 l 1
 125 112.5 l 1
 93.75 112.5 l 1
 62.5 112.5 l 1
 62.5 393.75 l 1
 62.5 675 l 1
 93.75 675 l 1
 125 675 l 1
 125 706.25 l 1
437.5 237.5 m 1
 437.5 362.5 l 1
 281.25 362.5 l 1
 125 362.5 l 1
 125 237.5 l 1
 125 112.5 l 1
 281.25 112.5 l 1
 437.5 112.5 l 1
 437.5 237.5 l 1
EndSplineSet
EndChar

StartChar: seven
Encoding: 55 55 23
Width: 562
VWidth: 0
Flags: HW
LayerCount: 2
Back
Fore
SplineSet
62.5 706.25 m 1
 62.5 737.5 l 1
 281.25 737.5 l 1
 500 737.5 l 1
 500 706.25 l 1
 500 675 l 1
 468.75 675 l 1
 437.5 675 l 1
 437.5 581.25 l 1
 437.5 487.5 l 1
 406.25 487.5 l 1
 375 487.5 l 1
 375 331.25 l 1
 375 175 l 1
 343.75 175 l 1
 312.5 175 l 1
 312.5 112.5 l 1
 312.5 50 l 1
 281.25 50 l 1
 250 50 l 1
 250 112.5 l 1
 250 175 l 1
 281.25 175 l 1
 312.5 175 l 1
 312.5 331.25 l 1
 312.5 487.5 l 1
 343.75 487.5 l 1
 375 487.5 l 1
 375 581.25 l 1
 375 675 l 1
 218.75 675 l 1
 62.5 675 l 1
 62.5 706.25 l 1
EndSplineSet
EndChar

StartChar: eight
Encoding: 56 56 24
Width: 562
VWidth: 0
Flags: HW
LayerCount: 2
Back
Fore
SplineSet
125 706.25 m 1
 125 737.5 l 1
 281.25 737.5 l 1
 437.5 737.5 l 1
 437.5 706.25 l 1
 437.5 675 l 1
 468.75 675 l 1
 500 675 l 1
 500 581.25 l 1
 500 487.5 l 1
 468.75 487.5 l 1
 437.5 487.5 l 1
 437.5 456.25 l 1
 437.5 425 l 1
 406.25 425 l 1
 375 425 l 1
 375 393.75 l 1
 375 362.5 l 1
 406.25 362.5 l 1
 437.5 362.5 l 1
 437.5 331.25 l 1
 437.5 300 l 1
 468.75 300 l 1
 500 300 l 1
 500 206.25 l 1
 500 112.5 l 1
 468.75 112.5 l 1
 437.5 112.5 l 1
 437.5 81.25 l 1
 437.5 50 l 1
 281.25 50 l 1
 125 50 l 1
 125 81.25 l 1
 125 112.5 l 1
 93.75 112.5 l 1
 62.5 112.5 l 1
 62.5 206.25 l 1
 62.5 300 l 1
 93.75 300 l 1
 125 300 l 1
 125 331.25 l 1
 125 362.5 l 1
 156.25 362.5 l 1
 187.5 362.5 l 1
 187.5 393.75 l 1
 187.5 425 l 1
 156.25 425 l 1
 125 425 l 1
 125 456.25 l 1
 125 487.5 l 1
 93.75 487.5 l 1
 62.5 487.5 l 1
 62.5 581.25 l 1
 62.5 675 l 1
 93.75 675 l 1
 125 675 l 1
 125 706.25 l 1
437.5 581.25 m 1
 437.5 675 l 1
 281.25 675 l 1
 125 675 l 1
 125 581.25 l 1
 125 487.5 l 1
 156.25 487.5 l 1
 187.5 487.5 l 1
 187.5 456.25 l 1
 187.5 425 l 1
 281.25 425 l 1
 375 425 l 1
 375 456.25 l 1
 375 487.5 l 1
 406.25 487.5 l 1
 437.5 487.5 l 1
 437.5 581.25 l 1
375 331.25 m 1
 375 362.5 l 1
 281.25 362.5 l 1
 187.5 362.5 l 1
 187.5 331.25 l 1
 187.5 300 l 1
 156.25 300 l 1
 125 300 l 1
 125 206.25 l 1
 125 112.5 l 1
 281.25 112.5 l 1
 437.5 112.5 l 1
 437.5 206.25 l 1
 437.5 300 l 1
 406.25 300 l 1
 375 300 l 1
 375 331.25 l 1
EndSplineSet
EndChar

StartChar: nine
Encoding: 57 57 25
Width: 562
VWidth: 0
Flags: HW
LayerCount: 2
Back
Fore
SplineSet
125 706.25 m 1
 125 737.5 l 1
 281.25 737.5 l 1
 437.5 737.5 l 1
 437.5 706.25 l 1
 437.5 675 l 1
 468.75 675 l 1
 500 675 l 1
 500 393.75 l 1
 500 112.5 l 1
 468.75 112.5 l 1
 437.5 112.5 l 1
 437.5 81.25 l 1
 437.5 50 l 1
 281.25 50 l 1
 125 50 l 1
 125 81.25 l 1
 125 112.5 l 1
 93.75 112.5 l 1
 62.5 112.5 l 1
 62.5 143.75 l 1
 62.5 175 l 1
 93.75 175 l 1
 125 175 l 1
 125 143.75 l 1
 125 112.5 l 1
 281.25 112.5 l 1
 437.5 112.5 l 1
 437.5 237.5 l 1
 437.5 362.5 l 1
 281.25 362.5 l 1
 125 362.5 l 1
 125 393.75 l 1
 125 425 l 1
 93.75 425 l 1
 62.5 425 l 1
 62.5 550 l 1
 62.5 675 l 1
 93.75 675 l 1
 125 675 l 1
 125 706.25 l 1
437.5 550 m 1
 437.5 675 l 1
 281.25 675 l 1
 125 675 l 1
 125 550 l 1
 125 425 l 1
 281.25 425 l 1
 437.5 425 l 1
 437.5 550 l 1
EndSplineSet
EndChar

StartChar: colon
Encoding: 58 58 26
Width: 187
VWidth: 0
Flags: HW
LayerCount: 2
Back
Fore
SplineSet
125 363 m 5
 63 363 l 5
 63 487 l 5
 125 487 l 5
 125 363 l 5
63 175 m 5
 125 175 l 5
 125 50 l 5
 63 50 l 5
 63 175 l 5
EndSplineSet
EndChar

StartChar: semicolon
Encoding: 59 59 27
Width: 187
VWidth: 0
Flags: HW
LayerCount: 2
Back
Fore
SplineSet
0 -13 m 1
 62 -13 l 1
 62 -75 l 1
 0 -75 l 1
 0 -13 l 1
125 363 m 1
 63 363 l 1
 63 487 l 1
 125 487 l 1
 125 363 l 1
63 175 m 1
 125 175 l 1
 125 -12 l 1
 63 -12 l 1
 63 175 l 1
EndSplineSet
EndChar

StartChar: less
Encoding: 60 60 28
Width: 437
VWidth: 0
Flags: HW
LayerCount: 2
Back
Fore
SplineSet
250 456.25 m 1
 250 487.5 l 1
 281.25 487.5 l 1
 312.5 487.5 l 1
 312.5 456.25 l 1
 312.5 425 l 1
 281.25 425 l 1
 250 425 l 1
 250 393.75 l 1
 250 362.5 l 1
 218.75 362.5 l 1
 187.5 362.5 l 1
 187.5 331.25 l 1
 187.5 300 l 1
 156.25 300 l 1
 125 300 l 1
 125 268.75 l 1
 125 237.5 l 1
 156.25 237.5 l 1
 187.5 237.5 l 1
 187.5 206.25 l 1
 187.5 175 l 1
 218.75 175 l 1
 250 175 l 1
 250 143.75 l 1
 250 112.5 l 1
 281.25 112.5 l 1
 312.5 112.5 l 1
 312.5 81.25 l 1
 312.5 50 l 1
 281.25 50 l 1
 250 50 l 1
 250 81.25 l 1
 250 112.5 l 1
 218.75 112.5 l 1
 187.5 112.5 l 1
 187.5 143.75 l 1
 187.5 175 l 1
 156.25 175 l 1
 125 175 l 1
 125 206.25 l 1
 125 237.5 l 1
 93.75 237.5 l 1
 62.5 237.5 l 1
 62.5 268.75 l 1
 62.5 300 l 1
 93.75 300 l 1
 125 300 l 1
 125 331.25 l 1
 125 362.5 l 1
 156.25 362.5 l 1
 187.5 362.5 l 1
 187.5 393.75 l 1
 187.5 425 l 1
 218.75 425 l 1
 250 425 l 1
 250 456.25 l 1
EndSplineSet
EndChar

StartChar: equal
Encoding: 61 61 29
Width: 500
VWidth: 0
Flags: HW
LayerCount: 2
Back
Fore
SplineSet
62.5 143.75 m 1
 62.5 175 l 1
 250 175 l 1
 437.5 175 l 1
 437.5 143.75 l 1
 437.5 112.5 l 1
 250 112.5 l 1
 62.5 112.5 l 1
 62.5 143.75 l 1
62.5 393.75 m 1
 62.5 425 l 1
 250 425 l 1
 437.5 425 l 1
 437.5 393.75 l 1
 437.5 362.5 l 1
 250 362.5 l 1
 62.5 362.5 l 1
 62.5 393.75 l 1
EndSplineSet
EndChar

StartChar: greater
Encoding: 62 62 30
Width: 437
VWidth: 0
Flags: HW
LayerCount: 2
Back
Fore
SplineSet
62.5 456.25 m 1
 62.5 487.5 l 1
 93.75 487.5 l 1
 125 487.5 l 1
 125 456.25 l 1
 125 425 l 1
 156.25 425 l 1
 187.5 425 l 1
 187.5 393.75 l 1
 187.5 362.5 l 1
 218.75 362.5 l 1
 250 362.5 l 1
 250 331.25 l 1
 250 300 l 1
 281.25 300 l 1
 312.5 300 l 1
 312.5 268.75 l 1
 312.5 237.5 l 1
 281.25 237.5 l 1
 250 237.5 l 1
 250 206.25 l 1
 250 175 l 1
 218.75 175 l 1
 187.5 175 l 1
 187.5 143.75 l 1
 187.5 112.5 l 1
 156.25 112.5 l 1
 125 112.5 l 1
 125 81.25 l 1
 125 50 l 1
 93.75 50 l 1
 62.5 50 l 1
 62.5 81.25 l 1
 62.5 112.5 l 1
 93.75 112.5 l 1
 125 112.5 l 1
 125 143.75 l 1
 125 175 l 1
 156.25 175 l 1
 187.5 175 l 1
 187.5 206.25 l 1
 187.5 237.5 l 1
 218.75 237.5 l 1
 250 237.5 l 1
 250 268.75 l 1
 250 300 l 1
 218.75 300 l 1
 187.5 300 l 1
 187.5 331.25 l 1
 187.5 362.5 l 1
 156.25 362.5 l 1
 125 362.5 l 1
 125 393.75 l 1
 125 425 l 1
 93.75 425 l 1
 62.5 425 l 1
 62.5 456.25 l 1
EndSplineSet
EndChar

StartChar: question
Encoding: 63 63 31
Width: 500
VWidth: 0
Flags: HW
LayerCount: 2
Back
Fore
SplineSet
187.5 112.5 m 1
 187.5 175 l 1
 218.75 175 l 1
 250 175 l 1
 250 112.5 l 1
 250 50 l 1
 218.75 50 l 1
 187.5 50 l 1
 187.5 112.5 l 1
125 706.25 m 1
 125 737.5 l 1
 218.75 737.5 l 1
 312.5 737.5 l 1
 312.5 706.25 l 1
 312.5 675 l 1
 343.75 675 l 1
 375 675 l 1
 375 643.75 l 1
 375 612.5 l 1
 406.25 612.5 l 1
 437.5 612.5 l 1
 437.5 518.75 l 1
 437.5 425 l 1
 406.25 425 l 1
 375 425 l 1
 375 393.75 l 1
 375 362.5 l 1
 343.75 362.5 l 1
 312.5 362.5 l 1
 312.5 331.25 l 1
 312.5 300 l 1
 281.25 300 l 1
 250 300 l 1
 250 268.75 l 1
 250 237.5 l 1
 218.75 237.5 l 1
 187.5 237.5 l 1
 187.5 300 l 1
 187.5 362.5 l 1
 250 362.5 l 1
 312.5 362.5 l 1
 312.5 393.75 l 1
 312.5 425 l 1
 343.75 425 l 1
 375 425 l 1
 375 518.75 l 1
 375 612.5 l 1
 343.75 612.5 l 1
 312.5 612.5 l 1
 312.5 643.75 l 1
 312.5 675 l 1
 218.75 675 l 1
 125 675 l 1
 125 612.5 l 1
 125 550 l 1
 93.75 550 l 1
 62.5 550 l 1
 62.5 612.5 l 1
 62.5 675 l 1
 93.75 675 l 1
 125 675 l 1
 125 706.25 l 1
EndSplineSet
EndChar

StartChar: at
Encoding: 64 64 32
Width: 875
VWidth: 0
Flags: HW
LayerCount: 2
Back
Fore
SplineSet
250 643.75 m 1
 250 675 l 1
 437.5 675 l 1
 625 675 l 1
 625 643.75 l 1
 625 612.5 l 1
 656.25 612.5 l 1
 687.5 612.5 l 1
 687.5 581.25 l 1
 687.5 550 l 1
 718.75 550 l 1
 750 550 l 1
 750 425 l 1
 750 300 l 1
 718.75 300 l 1
 687.5 300 l 1
 687.5 268.75 l 1
 687.5 237.5 l 1
 656.25 237.5 l 1
 625 237.5 l 1
 625 206.25 l 1
 625 175 l 1
 468.75 175 l 1
 312.5 175 l 1
 312.5 206.25 l 1
 312.5 237.5 l 1
 281.25 237.5 l 1
 250 237.5 l 1
 250 331.25 l 1
 250 425 l 1
 281.25 425 l 1
 312.5 425 l 1
 312.5 456.25 l 1
 312.5 487.5 l 1
 468.75 487.5 l 1
 625 487.5 l 1
 625 456.25 l 1
 625 425 l 1
 593.75 425 l 1
 562.5 425 l 1
 562.5 331.25 l 1
 562.5 237.5 l 1
 593.75 237.5 l 1
 625 237.5 l 1
 625 268.75 l 1
 625 300 l 1
 656.25 300 l 1
 687.5 300 l 1
 687.5 425 l 1
 687.5 550 l 1
 625 550 l 1
 562.5 550 l 1
 562.5 581.25 l 1
 562.5 612.5 l 1
 437.5 612.5 l 1
 312.5 612.5 l 1
 312.5 581.25 l 1
 312.5 550 l 1
 250 550 l 1
 187.5 550 l 1
 187.5 362.5 l 1
 187.5 175 l 1
 218.75 175 l 1
 250 175 l 1
 250 143.75 l 1
 250 112.5 l 1
 468.75 112.5 l 1
 687.5 112.5 l 1
 687.5 143.75 l 1
 687.5 175 l 1
 718.75 175 l 1
 750 175 l 1
 750 112.5 l 1
 750 50 l 1
 468.75 50 l 1
 187.5 50 l 1
 187.5 112.5 l 1
 187.5 175 l 1
 156.25 175 l 1
 125 175 l 1
 125 362.5 l 1
 125 550 l 1
 156.25 550 l 1
 187.5 550 l 1
 187.5 581.25 l 1
 187.5 612.5 l 1
 218.75 612.5 l 1
 250 612.5 l 1
 250 643.75 l 1
500 331.25 m 1
 500 425 l 1
 406.25 425 l 1
 312.5 425 l 1
 312.5 331.25 l 1
 312.5 237.5 l 1
 406.25 237.5 l 1
 500 237.5 l 1
 500 331.25 l 1
EndSplineSet
EndChar

StartChar: A
Encoding: 65 65 33
Width: 625
VWidth: 0
Flags: HW
LayerCount: 2
Back
Fore
SplineSet
187.5 706.25 m 1
 187.5 737.5 l 1
 312.5 737.5 l 1
 437.5 737.5 l 1
 437.5 706.25 l 1
 437.5 675 l 1
 468.75 675 l 1
 500 675 l 1
 500 643.75 l 1
 500 612.5 l 1
 531.25 612.5 l 1
 562.5 612.5 l 1
 562.5 331.25 l 1
 562.5 50 l 1
 531.25 50 l 1
 500 50 l 1
 500 175 l 1
 500 300 l 1
 437.5 300 l 1
 375 300 l 1
 375 331.25 l 1
 375 362.5 l 1
 437.5 362.5 l 1
 500 362.5 l 1
 500 487.5 l 1
 500 612.5 l 1
 468.75 612.5 l 1
 437.5 612.5 l 1
 437.5 643.75 l 1
 437.5 675 l 1
 312.5 675 l 1
 187.5 675 l 1
 187.5 643.75 l 1
 187.5 612.5 l 1
 156.25 612.5 l 1
 125 612.5 l 1
 125 487.5 l 1
 125 362.5 l 1
 187.5 362.5 l 1
 250 362.5 l 1
 250 331.25 l 1
 250 300 l 1
 187.5 300 l 1
 125 300 l 1
 125 175 l 1
 125 50 l 1
 93.75 50 l 1
 62.5 50 l 1
 62.5 331.25 l 1
 62.5 612.5 l 1
 93.75 612.5 l 1
 125 612.5 l 1
 125 643.75 l 1
 125 675 l 1
 156.25 675 l 1
 187.5 675 l 1
 187.5 706.25 l 1
EndSplineSet
EndChar

StartChar: B
Encoding: 66 66 34
Width: 625
VWidth: 0
Flags: HW
LayerCount: 2
Back
Fore
SplineSet
62.5 393.75 m 1
 62.5 737.5 l 1
 218.75 737.5 l 1
 375 737.5 l 1
 375 706.25 l 1
 375 675 l 1
 406.25 675 l 1
 437.5 675 l 1
 437.5 550 l 1
 437.5 425 l 1
 468.75 425 l 1
 500 425 l 1
 500 362.5 l 1
 500 300 l 1
 531.25 300 l 1
 562.5 300 l 1
 562.5 206.25 l 1
 562.5 112.5 l 1
 531.25 112.5 l 1
 500 112.5 l 1
 500 81.25 l 1
 500 50 l 1
 281.25 50 l 1
 62.5 50 l 1
 62.5 393.75 l 1
375 550 m 1
 375 675 l 1
 250 675 l 1
 125 675 l 1
 125 393.75 l 1
 125 112.5 l 1
 312.5 112.5 l 1
 500 112.5 l 1
 500 206.25 l 1
 500 300 l 1
 468.75 300 l 1
 437.5 300 l 1
 437.5 331.25 l 1
 437.5 362.5 l 1
 343.75 362.5 l 1
 250 362.5 l 1
 250 393.75 l 1
 250 425 l 1
 312.5 425 l 1
 375 425 l 1
 375 550 l 1
EndSplineSet
EndChar

StartChar: C
Encoding: 67 67 35
Width: 625
VWidth: 0
Flags: HW
LayerCount: 2
Back
Fore
SplineSet
187.5 706.25 m 1
 187.5 737.5 l 1
 312.5 737.5 l 1
 437.5 737.5 l 1
 437.5 706.25 l 1
 437.5 675 l 1
 500 675 l 1
 562.5 675 l 1
 562.5 612.5 l 1
 562.5 550 l 1
 531.25 550 l 1
 500 550 l 1
 500 581.25 l 1
 500 612.5 l 1
 468.75 612.5 l 1
 437.5 612.5 l 1
 437.5 643.75 l 1
 437.5 675 l 1
 312.5 675 l 1
 187.5 675 l 1
 187.5 612.5 l 1
 187.5 550 l 1
 156.25 550 l 1
 125 550 l 1
 125 362.5 l 1
 125 175 l 1
 156.25 175 l 1
 187.5 175 l 1
 187.5 143.75 l 1
 187.5 112.5 l 1
 343.75 112.5 l 1
 500 112.5 l 1
 500 175 l 1
 500 237.5 l 1
 531.25 237.5 l 1
 562.5 237.5 l 1
 562.5 175 l 1
 562.5 112.5 l 1
 531.25 112.5 l 1
 500 112.5 l 1
 500 81.25 l 1
 500 50 l 1
 312.5 50 l 1
 125 50 l 1
 125 112.5 l 1
 125 175 l 1
 93.75 175 l 1
 62.5 175 l 1
 62.5 393.75 l 1
 62.5 612.5 l 1
 93.75 612.5 l 1
 125 612.5 l 1
 125 643.75 l 1
 125 675 l 1
 156.25 675 l 1
 187.5 675 l 1
 187.5 706.25 l 1
EndSplineSet
EndChar

StartChar: D
Encoding: 68 68 36
Width: 625
VWidth: 0
Flags: HW
LayerCount: 2
Back
Fore
SplineSet
62.5 393.75 m 1
 62.5 737.5 l 1
 218.75 737.5 l 1
 375 737.5 l 1
 375 706.25 l 1
 375 675 l 1
 437.5 675 l 1
 500 675 l 1
 500 393.75 l 1
 500 112.5 l 1
 468.75 112.5 l 1
 437.5 112.5 l 1
 437.5 81.25 l 1
 437.5 50 l 1
 250 50 l 1
 62.5 50 l 1
 62.5 393.75 l 1
375 643.75 m 1
 375 675 l 1
 250 675 l 1
 125 675 l 1
 125 393.75 l 1
 125 112.5 l 1
 281.25 112.5 l 1
 437.5 112.5 l 1
 437.5 362.5 l 1
 437.5 612.5 l 1
 406.25 612.5 l 1
 375 612.5 l 1
 375 643.75 l 1
EndSplineSet
EndChar

StartChar: E
Encoding: 69 69 37
Width: 625
VWidth: 0
Flags: HW
LayerCount: 2
Back
Fore
SplineSet
62.5 393.75 m 1
 62.5 737.5 l 1
 281.25 737.5 l 1
 500 737.5 l 1
 500 706.25 l 1
 500 675 l 1
 312.5 675 l 1
 125 675 l 1
 125 550 l 1
 125 425 l 1
 281.25 425 l 1
 437.5 425 l 1
 437.5 393.75 l 1
 437.5 362.5 l 1
 281.25 362.5 l 1
 125 362.5 l 1
 125 237.5 l 1
 125 112.5 l 1
 312.5 112.5 l 1
 500 112.5 l 1
 500 81.25 l 1
 500 50 l 1
 281.25 50 l 1
 62.5 50 l 1
 62.5 393.75 l 1
EndSplineSet
EndChar

StartChar: F
Encoding: 70 70 38
Width: 625
VWidth: 0
Flags: HW
LayerCount: 2
Back
Fore
SplineSet
62.5 393.75 m 1
 62.5 737.5 l 1
 312.5 737.5 l 1
 562.5 737.5 l 1
 562.5 706.25 l 1
 562.5 675 l 1
 343.75 675 l 1
 125 675 l 1
 125 550 l 1
 125 425 l 1
 281.25 425 l 1
 437.5 425 l 1
 437.5 393.75 l 1
 437.5 362.5 l 1
 281.25 362.5 l 1
 125 362.5 l 1
 125 206.25 l 1
 125 50 l 1
 93.75 50 l 1
 62.5 50 l 1
 62.5 393.75 l 1
EndSplineSet
EndChar

StartChar: G
Encoding: 71 71 39
Width: 625
VWidth: 0
Flags: HW
LayerCount: 2
Back
Fore
SplineSet
187.5 706.25 m 1
 187.5 737.5 l 1
 312.5 737.5 l 1
 437.5 737.5 l 1
 437.5 706.25 l 1
 437.5 675 l 1
 500 675 l 1
 562.5 675 l 1
 562.5 612.5 l 1
 562.5 550 l 1
 531.25 550 l 1
 500 550 l 1
 500 581.25 l 1
 500 612.5 l 1
 468.75 612.5 l 1
 437.5 612.5 l 1
 437.5 643.75 l 1
 437.5 675 l 1
 312.5 675 l 1
 187.5 675 l 1
 187.5 612.5 l 1
 187.5 550 l 1
 156.25 550 l 1
 125 550 l 1
 125 362.5 l 1
 125 175 l 1
 156.25 175 l 1
 187.5 175 l 1
 187.5 143.75 l 1
 187.5 112.5 l 1
 343.75 112.5 l 1
 500 112.5 l 1
 500 206.25 l 1
 500 300 l 1
 406.25 300 l 1
 312.5 300 l 1
 312.5 331.25 l 1
 312.5 362.5 l 1
 437.5 362.5 l 1
 562.5 362.5 l 1
 562.5 237.5 l 1
 562.5 112.5 l 1
 531.25 112.5 l 1
 500 112.5 l 1
 500 81.25 l 1
 500 50 l 1
 312.5 50 l 1
 125 50 l 1
 125 112.5 l 1
 125 175 l 1
 93.75 175 l 1
 62.5 175 l 1
 62.5 393.75 l 1
 62.5 612.5 l 1
 93.75 612.5 l 1
 125 612.5 l 1
 125 643.75 l 1
 125 675 l 1
 156.25 675 l 1
 187.5 675 l 1
 187.5 706.25 l 1
EndSplineSet
EndChar

StartChar: H
Encoding: 72 72 40
Width: 625
VWidth: 0
Flags: HW
LayerCount: 2
Back
Fore
SplineSet
500 581.25 m 1
 500 737.5 l 1
 531.25 737.5 l 1
 562.5 737.5 l 1
 562.5 393.75 l 1
 562.5 50 l 1
 531.25 50 l 1
 500 50 l 1
 500 206.25 l 1
 500 362.5 l 1
 437.5 362.5 l 1
 375 362.5 l 1
 375 393.75 l 1
 375 425 l 1
 437.5 425 l 1
 500 425 l 1
 500 581.25 l 1
62.5 393.75 m 1
 62.5 737.5 l 1
 93.75 737.5 l 1
 125 737.5 l 1
 125 581.25 l 1
 125 425 l 1
 187.5 425 l 1
 250 425 l 1
 250 393.75 l 1
 250 362.5 l 1
 187.5 362.5 l 1
 125 362.5 l 1
 125 206.25 l 1
 125 50 l 1
 93.75 50 l 1
 62.5 50 l 1
 62.5 393.75 l 1
EndSplineSet
EndChar

StartChar: I
Encoding: 73 73 41
Width: 250
VWidth: 0
Flags: HW
LayerCount: 2
Back
Fore
SplineSet
63 737 m 1
 125 737 l 1
 125 50 l 1
 63 50 l 1
 63 737 l 1
EndSplineSet
EndChar

StartChar: J
Encoding: 74 74 42
Width: 437
VWidth: 0
Flags: HW
LayerCount: 2
Back
Fore
SplineSet
312.5 456.25 m 1
 312.5 737.5 l 1
 343.75 737.5 l 1
 375 737.5 l 1
 375 425 l 1
 375 112.5 l 1
 343.75 112.5 l 1
 312.5 112.5 l 1
 312.5 81.25 l 1
 312.5 50 l 1
 218.75 50 l 1
 125 50 l 1
 125 81.25 l 1
 125 112.5 l 1
 93.75 112.5 l 1
 62.5 112.5 l 1
 62.5 175 l 1
 62.5 237.5 l 1
 93.75 237.5 l 1
 125 237.5 l 1
 125 175 l 1
 125 112.5 l 1
 187.5 112.5 l 1
 250 112.5 l 1
 250 143.75 l 1
 250 175 l 1
 281.25 175 l 1
 312.5 175 l 1
 312.5 456.25 l 1
EndSplineSet
EndChar

StartChar: K
Encoding: 75 75 43
Width: 625
VWidth: 0
Flags: HW
LayerCount: 2
Back
Fore
SplineSet
62.5 393.75 m 1
 62.5 737.5 l 1
 93.75 737.5 l 1
 125 737.5 l 1
 125 581.25 l 1
 125 425 l 1
 156.25 425 l 1
 187.5 425 l 1
 187.5 456.25 l 1
 187.5 487.5 l 1
 218.75 487.5 l 1
 250 487.5 l 1
 250 518.75 l 1
 250 550 l 1
 281.25 550 l 1
 312.5 550 l 1
 312.5 581.25 l 1
 312.5 612.5 l 1
 343.75 612.5 l 1
 375 612.5 l 1
 375 675 l 1
 375 737.5 l 1
 406.25 737.5 l 1
 437.5 737.5 l 1
 437.5 675 l 1
 437.5 612.5 l 1
 406.25 612.5 l 1
 375 612.5 l 1
 375 581.25 l 1
 375 550 l 1
 343.75 550 l 1
 312.5 550 l 1
 312.5 518.75 l 1
 312.5 487.5 l 1
 281.25 487.5 l 1
 250 487.5 l 1
 250 393.75 l 1
 250 300 l 1
 281.25 300 l 1
 312.5 300 l 1
 312.5 268.75 l 1
 312.5 237.5 l 1
 343.75 237.5 l 1
 375 237.5 l 1
 375 206.25 l 1
 375 175 l 1
 406.25 175 l 1
 437.5 175 l 1
 437.5 143.75 l 1
 437.5 112.5 l 1
 468.75 112.5 l 1
 500 112.5 l 1
 500 81.25 l 1
 500 50 l 1
 437.5 50 l 1
 375 50 l 1
 375 112.5 l 1
 375 175 l 1
 343.75 175 l 1
 312.5 175 l 1
 312.5 206.25 l 1
 312.5 237.5 l 1
 281.25 237.5 l 1
 250 237.5 l 1
 250 268.75 l 1
 250 300 l 1
 218.75 300 l 1
 187.5 300 l 1
 187.5 331.25 l 1
 187.5 362.5 l 1
 156.25 362.5 l 1
 125 362.5 l 1
 125 206.25 l 1
 125 50 l 1
 93.75 50 l 1
 62.5 50 l 1
 62.5 393.75 l 1
EndSplineSet
EndChar

StartChar: L
Encoding: 76 76 44
Width: 562
VWidth: 0
Flags: HW
LayerCount: 2
Back
Fore
SplineSet
62.5 393.75 m 1
 62.5 737.5 l 1
 93.75 737.5 l 1
 125 737.5 l 1
 125 425 l 1
 125 112.5 l 1
 281.25 112.5 l 1
 437.5 112.5 l 1
 437.5 81.25 l 1
 437.5 50 l 1
 250 50 l 1
 62.5 50 l 1
 62.5 393.75 l 1
EndSplineSet
EndChar

StartChar: M
Encoding: 77 77 45
Width: 812
VWidth: 0
Flags: HW
LayerCount: 2
Back
Fore
SplineSet
62.5 393.75 m 1
 62.5 737.5 l 1
 156.25 737.5 l 1
 250 737.5 l 1
 250 706.25 l 1
 250 675 l 1
 281.25 675 l 1
 312.5 675 l 1
 312.5 643.75 l 1
 312.5 612.5 l 1
 343.75 612.5 l 1
 375 612.5 l 1
 375 581.25 l 1
 375 550 l 1
 406.25 550 l 1
 437.5 550 l 1
 437.5 581.25 l 1
 437.5 612.5 l 1
 468.75 612.5 l 1
 500 612.5 l 1
 500 643.75 l 1
 500 675 l 1
 531.25 675 l 1
 562.5 675 l 1
 562.5 706.25 l 1
 562.5 737.5 l 1
 656.25 737.5 l 1
 750 737.5 l 1
 750 393.75 l 1
 750 50 l 1
 718.75 50 l 1
 687.5 50 l 1
 687.5 362.5 l 1
 687.5 675 l 1
 625 675 l 1
 562.5 675 l 1
 562.5 643.75 l 1
 562.5 612.5 l 1
 531.25 612.5 l 1
 500 612.5 l 1
 500 550 l 1
 500 487.5 l 1
 468.75 487.5 l 1
 437.5 487.5 l 1
 437.5 425 l 1
 437.5 362.5 l 1
 406.25 362.5 l 1
 375 362.5 l 1
 375 425 l 1
 375 487.5 l 1
 343.75 487.5 l 1
 312.5 487.5 l 1
 312.5 550 l 1
 312.5 612.5 l 1
 281.25 612.5 l 1
 250 612.5 l 1
 250 643.75 l 1
 250 675 l 1
 187.5 675 l 1
 125 675 l 1
 125 362.5 l 1
 125 50 l 1
 93.75 50 l 1
 62.5 50 l 1
 62.5 393.75 l 1
EndSplineSet
EndChar

StartChar: N
Encoding: 78 78 46
Width: 625
VWidth: 0
Flags: HW
LayerCount: 2
Back
Fore
SplineSet
62.5 393.75 m 1
 62.5 737.5 l 1
 125 737.5 l 1
 187.5 737.5 l 1
 187.5 675 l 1
 187.5 612.5 l 1
 218.75 612.5 l 1
 250 612.5 l 1
 250 581.25 l 1
 250 550 l 1
 281.25 550 l 1
 312.5 550 l 1
 312.5 518.75 l 1
 312.5 487.5 l 1
 343.75 487.5 l 1
 375 487.5 l 1
 375 456.25 l 1
 375 425 l 1
 437.5 425 l 1
 500 425 l 1
 500 581.25 l 1
 500 737.5 l 1
 531.25 737.5 l 1
 562.5 737.5 l 1
 562.5 393.75 l 1
 562.5 50 l 1
 531.25 50 l 1
 500 50 l 1
 500 175 l 1
 500 300 l 1
 468.75 300 l 1
 437.5 300 l 1
 437.5 331.25 l 1
 437.5 362.5 l 1
 406.25 362.5 l 1
 375 362.5 l 1
 375 393.75 l 1
 375 425 l 1
 343.75 425 l 1
 312.5 425 l 1
 312.5 456.25 l 1
 312.5 487.5 l 1
 281.25 487.5 l 1
 250 487.5 l 1
 250 518.75 l 1
 250 550 l 1
 218.75 550 l 1
 187.5 550 l 1
 187.5 581.25 l 1
 187.5 612.5 l 1
 156.25 612.5 l 1
 125 612.5 l 1
 125 331.25 l 1
 125 50 l 1
 93.75 50 l 1
 62.5 50 l 1
 62.5 393.75 l 1
EndSplineSet
EndChar

StartChar: O
Encoding: 79 79 47
Width: 687
VWidth: 0
Flags: HW
LayerCount: 2
Back
Fore
SplineSet
187.5 706.25 m 1
 187.5 737.5 l 1
 343.75 737.5 l 1
 500 737.5 l 1
 500 706.25 l 1
 500 675 l 1
 531.25 675 l 1
 562.5 675 l 1
 562.5 643.75 l 1
 562.5 612.5 l 1
 593.75 612.5 l 1
 625 612.5 l 1
 625 393.75 l 1
 625 175 l 1
 593.75 175 l 1
 562.5 175 l 1
 562.5 143.75 l 1
 562.5 112.5 l 1
 531.25 112.5 l 1
 500 112.5 l 1
 500 81.25 l 1
 500 50 l 1
 343.75 50 l 1
 187.5 50 l 1
 187.5 81.25 l 1
 187.5 112.5 l 1
 156.25 112.5 l 1
 125 112.5 l 1
 125 143.75 l 1
 125 175 l 1
 93.75 175 l 1
 62.5 175 l 1
 62.5 393.75 l 1
 62.5 612.5 l 1
 93.75 612.5 l 1
 125 612.5 l 1
 125 643.75 l 1
 125 675 l 1
 156.25 675 l 1
 187.5 675 l 1
 187.5 706.25 l 1
500 643.75 m 1
 500 675 l 1
 343.75 675 l 1
 187.5 675 l 1
 187.5 643.75 l 1
 187.5 612.5 l 1
 156.25 612.5 l 1
 125 612.5 l 1
 125 393.75 l 1
 125 175 l 1
 156.25 175 l 1
 187.5 175 l 1
 187.5 143.75 l 1
 187.5 112.5 l 1
 343.75 112.5 l 1
 500 112.5 l 1
 500 143.75 l 1
 500 175 l 1
 531.25 175 l 1
 562.5 175 l 1
 562.5 393.75 l 1
 562.5 612.5 l 1
 531.25 612.5 l 1
 500 612.5 l 1
 500 643.75 l 1
EndSplineSet
EndChar

StartChar: P
Encoding: 80 80 48
Width: 625
VWidth: 0
Flags: HW
LayerCount: 2
Back
Fore
SplineSet
62.5 393.75 m 1
 62.5 737.5 l 1
 281.25 737.5 l 1
 500 737.5 l 1
 500 706.25 l 1
 500 675 l 1
 531.25 675 l 1
 562.5 675 l 1
 562.5 550 l 1
 562.5 425 l 1
 531.25 425 l 1
 500 425 l 1
 500 393.75 l 1
 500 362.5 l 1
 375 362.5 l 1
 250 362.5 l 1
 250 393.75 l 1
 250 425 l 1
 375 425 l 1
 500 425 l 1
 500 550 l 1
 500 675 l 1
 312.5 675 l 1
 125 675 l 1
 125 362.5 l 1
 125 50 l 1
 93.75 50 l 1
 62.5 50 l 1
 62.5 393.75 l 1
EndSplineSet
EndChar

StartChar: Q
Encoding: 81 81 49
Width: 750
VWidth: 0
Flags: HW
LayerCount: 2
Back
Fore
SplineSet
187.5 706.25 m 1
 187.5 737.5 l 1
 343.75 737.5 l 1
 500 737.5 l 1
 500 706.25 l 1
 500 675 l 1
 531.25 675 l 1
 562.5 675 l 1
 562.5 643.75 l 1
 562.5 612.5 l 1
 593.75 612.5 l 1
 625 612.5 l 1
 625 393.75 l 1
 625 175 l 1
 593.75 175 l 1
 562.5 175 l 1
 562.5 143.75 l 1
 562.5 112.5 l 1
 625 112.5 l 1
 687.5 112.5 l 1
 687.5 81.25 l 1
 687.5 50 l 1
 531.25 50 l 1
 375 50 l 1
 375 112.5 l 1
 375 175 l 1
 406.25 175 l 1
 437.5 175 l 1
 437.5 143.75 l 1
 437.5 112.5 l 1
 468.75 112.5 l 1
 500 112.5 l 1
 500 143.75 l 1
 500 175 l 1
 531.25 175 l 1
 562.5 175 l 1
 562.5 393.75 l 1
 562.5 612.5 l 1
 531.25 612.5 l 1
 500 612.5 l 1
 500 643.75 l 1
 500 675 l 1
 343.75 675 l 1
 187.5 675 l 1
 187.5 643.75 l 1
 187.5 612.5 l 1
 156.25 612.5 l 1
 125 612.5 l 1
 125 393.75 l 1
 125 175 l 1
 156.25 175 l 1
 187.5 175 l 1
 187.5 143.75 l 1
 187.5 112.5 l 1
 250 112.5 l 1
 312.5 112.5 l 1
 312.5 81.25 l 1
 312.5 50 l 1
 250 50 l 1
 187.5 50 l 1
 187.5 81.25 l 1
 187.5 112.5 l 1
 156.25 112.5 l 1
 125 112.5 l 1
 125 143.75 l 1
 125 175 l 1
 93.75 175 l 1
 62.5 175 l 1
 62.5 393.75 l 1
 62.5 612.5 l 1
 93.75 612.5 l 1
 125 612.5 l 1
 125 643.75 l 1
 125 675 l 1
 156.25 675 l 1
 187.5 675 l 1
 187.5 706.25 l 1
EndSplineSet
EndChar

StartChar: R
Encoding: 82 82 50
Width: 625
VWidth: 0
Flags: HW
LayerCount: 2
Back
Fore
SplineSet
62.5 393.75 m 1
 62.5 737.5 l 1
 281.25 737.5 l 1
 500 737.5 l 1
 500 706.25 l 1
 500 675 l 1
 531.25 675 l 1
 562.5 675 l 1
 562.5 550 l 1
 562.5 425 l 1
 531.25 425 l 1
 500 425 l 1
 500 362.5 l 1
 500 300 l 1
 531.25 300 l 1
 562.5 300 l 1
 562.5 175 l 1
 562.5 50 l 1
 531.25 50 l 1
 500 50 l 1
 500 175 l 1
 500 300 l 1
 468.75 300 l 1
 437.5 300 l 1
 437.5 331.25 l 1
 437.5 362.5 l 1
 343.75 362.5 l 1
 250 362.5 l 1
 250 393.75 l 1
 250 425 l 1
 375 425 l 1
 500 425 l 1
 500 550 l 1
 500 675 l 1
 312.5 675 l 1
 125 675 l 1
 125 362.5 l 1
 125 50 l 1
 93.75 50 l 1
 62.5 50 l 1
 62.5 393.75 l 1
EndSplineSet
EndChar

StartChar: S
Encoding: 83 83 51
Width: 625
VWidth: 0
Flags: HW
LayerCount: 2
Back
Fore
SplineSet
125 675 m 1
 125 737.5 l 1
 281.25 737.5 l 1
 437.5 737.5 l 1
 437.5 706.25 l 1
 437.5 675 l 1
 468.75 675 l 1
 500 675 l 1
 500 643.75 l 1
 500 612.5 l 1
 468.75 612.5 l 1
 437.5 612.5 l 1
 437.5 643.75 l 1
 437.5 675 l 1
 312.5 675 l 1
 187.5 675 l 1
 187.5 643.75 l 1
 187.5 612.5 l 1
 156.25 612.5 l 1
 125 612.5 l 1
 125 550 l 1
 125 487.5 l 1
 281.25 487.5 l 1
 437.5 487.5 l 1
 437.5 456.25 l 1
 437.5 425 l 1
 468.75 425 l 1
 500 425 l 1
 500 393.75 l 1
 500 362.5 l 1
 531.25 362.5 l 1
 562.5 362.5 l 1
 562.5 268.75 l 1
 562.5 175 l 1
 531.25 175 l 1
 500 175 l 1
 500 112.5 l 1
 500 50 l 1
 312.5 50 l 1
 125 50 l 1
 125 81.25 l 1
 125 112.5 l 1
 93.75 112.5 l 1
 62.5 112.5 l 1
 62.5 175 l 1
 62.5 237.5 l 1
 93.75 237.5 l 1
 125 237.5 l 1
 125 175 l 1
 125 112.5 l 1
 281.25 112.5 l 1
 437.5 112.5 l 1
 437.5 143.75 l 1
 437.5 175 l 1
 468.75 175 l 1
 500 175 l 1
 500 268.75 l 1
 500 362.5 l 1
 468.75 362.5 l 1
 437.5 362.5 l 1
 437.5 393.75 l 1
 437.5 425 l 1
 281.25 425 l 1
 125 425 l 1
 125 456.25 l 1
 125 487.5 l 1
 93.75 487.5 l 1
 62.5 487.5 l 1
 62.5 550 l 1
 62.5 612.5 l 1
 93.75 612.5 l 1
 125 612.5 l 1
 125 675 l 1
EndSplineSet
EndChar

StartChar: T
Encoding: 84 84 52
Width: 625
VWidth: 0
Flags: HW
LayerCount: 2
Back
Fore
SplineSet
62.5 706.25 m 1
 62.5 737.5 l 1
 312.5 737.5 l 1
 562.5 737.5 l 1
 562.5 706.25 l 1
 562.5 675 l 1
 437.5 675 l 1
 312.5 675 l 1
 312.5 362.5 l 1
 312.5 50 l 1
 281.25 50 l 1
 250 50 l 1
 250 362.5 l 1
 250 675 l 1
 156.25 675 l 1
 62.5 675 l 1
 62.5 706.25 l 1
EndSplineSet
EndChar

StartChar: U
Encoding: 85 85 53
Width: 687
VWidth: 0
Flags: HW
LayerCount: 2
Back
Fore
SplineSet
62.5 487.5 m 1
 62.5 737.5 l 1
 93.75 737.5 l 1
 125 737.5 l 1
 125 487.5 l 1
 125 237.5 l 1
 156.25 237.5 l 1
 187.5 237.5 l 1
 187.5 206.25 l 1
 187.5 175 l 1
 218.75 175 l 1
 250 175 l 1
 250 143.75 l 1
 250 112.5 l 1
 343.75 112.5 l 1
 437.5 112.5 l 1
 437.5 143.75 l 1
 437.5 175 l 1
 468.75 175 l 1
 500 175 l 1
 500 206.25 l 1
 500 237.5 l 1
 531.25 237.5 l 1
 562.5 237.5 l 1
 562.5 487.5 l 1
 562.5 737.5 l 1
 593.75 737.5 l 1
 625 737.5 l 1
 625 487.5 l 1
 625 237.5 l 1
 593.75 237.5 l 1
 562.5 237.5 l 1
 562.5 175 l 1
 562.5 112.5 l 1
 500 112.5 l 1
 437.5 112.5 l 1
 437.5 81.25 l 1
 437.5 50 l 1
 343.75 50 l 1
 250 50 l 1
 250 81.25 l 1
 250 112.5 l 1
 187.5 112.5 l 1
 125 112.5 l 1
 125 175 l 1
 125 237.5 l 1
 93.75 237.5 l 1
 62.5 237.5 l 1
 62.5 487.5 l 1
EndSplineSet
EndChar

StartChar: V
Encoding: 86 86 54
Width: 687
VWidth: 0
Flags: HW
LayerCount: 2
Back
Fore
SplineSet
62.5 612.5 m 1
 62.5 737.5 l 1
 93.75 737.5 l 1
 125 737.5 l 1
 125 612.5 l 1
 125 487.5 l 1
 156.25 487.5 l 1
 187.5 487.5 l 1
 187.5 393.75 l 1
 187.5 300 l 1
 218.75 300 l 1
 250 300 l 1
 250 237.5 l 1
 250 175 l 1
 281.25 175 l 1
 312.5 175 l 1
 312.5 143.75 l 1
 312.5 112.5 l 1
 343.75 112.5 l 1
 375 112.5 l 1
 375 143.75 l 1
 375 175 l 1
 406.25 175 l 1
 437.5 175 l 1
 437.5 237.5 l 1
 437.5 300 l 1
 468.75 300 l 1
 500 300 l 1
 500 393.75 l 1
 500 487.5 l 1
 531.25 487.5 l 1
 562.5 487.5 l 1
 562.5 612.5 l 1
 562.5 737.5 l 1
 593.75 737.5 l 1
 625 737.5 l 1
 625 612.5 l 1
 625 487.5 l 1
 593.75 487.5 l 1
 562.5 487.5 l 1
 562.5 393.75 l 1
 562.5 300 l 1
 531.25 300 l 1
 500 300 l 1
 500 237.5 l 1
 500 175 l 1
 468.75 175 l 1
 437.5 175 l 1
 437.5 143.75 l 1
 437.5 112.5 l 1
 406.25 112.5 l 1
 375 112.5 l 1
 375 81.25 l 1
 375 50 l 1
 343.75 50 l 1
 312.5 50 l 1
 312.5 81.25 l 1
 312.5 112.5 l 1
 281.25 112.5 l 1
 250 112.5 l 1
 250 143.75 l 1
 250 175 l 1
 218.75 175 l 1
 187.5 175 l 1
 187.5 237.5 l 1
 187.5 300 l 1
 156.25 300 l 1
 125 300 l 1
 125 393.75 l 1
 125 487.5 l 1
 93.75 487.5 l 1
 62.5 487.5 l 1
 62.5 612.5 l 1
EndSplineSet
EndChar

StartChar: W
Encoding: 87 87 55
Width: 812
VWidth: 0
Flags: HW
LayerCount: 2
Back
Fore
SplineSet
62.5 487.5 m 1
 62.5 737.5 l 1
 93.75 737.5 l 1
 125 737.5 l 1
 125 487.5 l 1
 125 237.5 l 1
 156.25 237.5 l 1
 187.5 237.5 l 1
 187.5 175 l 1
 187.5 112.5 l 1
 250 112.5 l 1
 312.5 112.5 l 1
 312.5 175 l 1
 312.5 237.5 l 1
 343.75 237.5 l 1
 375 237.5 l 1
 375 331.25 l 1
 375 425 l 1
 406.25 425 l 1
 437.5 425 l 1
 437.5 331.25 l 1
 437.5 237.5 l 1
 468.75 237.5 l 1
 500 237.5 l 1
 500 175 l 1
 500 112.5 l 1
 562.5 112.5 l 1
 625 112.5 l 1
 625 175 l 1
 625 237.5 l 1
 656.25 237.5 l 1
 687.5 237.5 l 1
 687.5 487.5 l 1
 687.5 737.5 l 1
 718.75 737.5 l 1
 750 737.5 l 1
 750 487.5 l 1
 750 237.5 l 1
 718.75 237.5 l 1
 687.5 237.5 l 1
 687.5 175 l 1
 687.5 112.5 l 1
 656.25 112.5 l 1
 625 112.5 l 1
 625 81.25 l 1
 625 50 l 1
 562.5 50 l 1
 500 50 l 1
 500 81.25 l 1
 500 112.5 l 1
 468.75 112.5 l 1
 437.5 112.5 l 1
 437.5 175 l 1
 437.5 237.5 l 1
 406.25 237.5 l 1
 375 237.5 l 1
 375 175 l 1
 375 112.5 l 1
 343.75 112.5 l 1
 312.5 112.5 l 1
 312.5 81.25 l 1
 312.5 50 l 1
 250 50 l 1
 187.5 50 l 1
 187.5 81.25 l 1
 187.5 112.5 l 1
 156.25 112.5 l 1
 125 112.5 l 1
 125 175 l 1
 125 237.5 l 1
 93.75 237.5 l 1
 62.5 237.5 l 1
 62.5 487.5 l 1
EndSplineSet
EndChar

StartChar: X
Encoding: 88 88 56
Width: 687
VWidth: 0
Flags: HW
LayerCount: 2
Back
Fore
SplineSet
62.5 675 m 1
 62.5 737.5 l 1
 93.75 737.5 l 1
 125 737.5 l 1
 125 675 l 1
 125 612.5 l 1
 156.25 612.5 l 1
 187.5 612.5 l 1
 187.5 581.25 l 1
 187.5 550 l 1
 218.75 550 l 1
 250 550 l 1
 250 518.75 l 1
 250 487.5 l 1
 312.5 487.5 l 1
 375 487.5 l 1
 375 518.75 l 1
 375 550 l 1
 406.25 550 l 1
 437.5 550 l 1
 437.5 581.25 l 1
 437.5 612.5 l 1
 468.75 612.5 l 1
 500 612.5 l 1
 500 675 l 1
 500 737.5 l 1
 531.25 737.5 l 1
 562.5 737.5 l 1
 562.5 675 l 1
 562.5 612.5 l 1
 531.25 612.5 l 1
 500 612.5 l 1
 500 550 l 1
 500 487.5 l 1
 437.5 487.5 l 1
 375 487.5 l 1
 375 425 l 1
 375 362.5 l 1
 406.25 362.5 l 1
 437.5 362.5 l 1
 437.5 300 l 1
 437.5 237.5 l 1
 468.75 237.5 l 1
 500 237.5 l 1
 500 206.25 l 1
 500 175 l 1
 531.25 175 l 1
 562.5 175 l 1
 562.5 112.5 l 1
 562.5 50 l 1
 531.25 50 l 1
 500 50 l 1
 500 112.5 l 1
 500 175 l 1
 468.75 175 l 1
 437.5 175 l 1
 437.5 206.25 l 1
 437.5 237.5 l 1
 406.25 237.5 l 1
 375 237.5 l 1
 375 300 l 1
 375 362.5 l 1
 312.5 362.5 l 1
 250 362.5 l 1
 250 300 l 1
 250 237.5 l 1
 218.75 237.5 l 1
 187.5 237.5 l 1
 187.5 206.25 l 1
 187.5 175 l 1
 156.25 175 l 1
 125 175 l 1
 125 112.5 l 1
 125 50 l 1
 93.75 50 l 1
 62.5 50 l 1
 62.5 112.5 l 1
 62.5 175 l 1
 93.75 175 l 1
 125 175 l 1
 125 206.25 l 1
 125 237.5 l 1
 156.25 237.5 l 1
 187.5 237.5 l 1
 187.5 300 l 1
 187.5 362.5 l 1
 218.75 362.5 l 1
 250 362.5 l 1
 250 425 l 1
 250 487.5 l 1
 187.5 487.5 l 1
 125 487.5 l 1
 125 550 l 1
 125 612.5 l 1
 93.75 612.5 l 1
 62.5 612.5 l 1
 62.5 675 l 1
EndSplineSet
EndChar

StartChar: Y
Encoding: 89 89 57
Width: 687
VWidth: 0
Flags: HW
LayerCount: 2
Back
Fore
SplineSet
62.5 675 m 1
 62.5 737.5 l 1
 93.75 737.5 l 1
 125 737.5 l 1
 125 675 l 1
 125 612.5 l 1
 156.25 612.5 l 1
 187.5 612.5 l 1
 187.5 550 l 1
 187.5 487.5 l 1
 218.75 487.5 l 1
 250 487.5 l 1
 250 456.25 l 1
 250 425 l 1
 281.25 425 l 1
 312.5 425 l 1
 312.5 456.25 l 1
 312.5 487.5 l 1
 343.75 487.5 l 1
 375 487.5 l 1
 375 550 l 1
 375 612.5 l 1
 406.25 612.5 l 1
 437.5 612.5 l 1
 437.5 675 l 1
 437.5 737.5 l 1
 468.75 737.5 l 1
 500 737.5 l 1
 500 675 l 1
 500 612.5 l 1
 468.75 612.5 l 1
 437.5 612.5 l 1
 437.5 550 l 1
 437.5 487.5 l 1
 406.25 487.5 l 1
 375 487.5 l 1
 375 456.25 l 1
 375 425 l 1
 343.75 425 l 1
 312.5 425 l 1
 312.5 237.5 l 1
 312.5 50 l 1
 281.25 50 l 1
 250 50 l 1
 250 237.5 l 1
 250 425 l 1
 218.75 425 l 1
 187.5 425 l 1
 187.5 456.25 l 1
 187.5 487.5 l 1
 156.25 487.5 l 1
 125 487.5 l 1
 125 550 l 1
 125 612.5 l 1
 93.75 612.5 l 1
 62.5 612.5 l 1
 62.5 675 l 1
EndSplineSet
EndChar

StartChar: Z
Encoding: 90 90 58
Width: 625
VWidth: 0
Flags: HW
LayerCount: 2
Back
Fore
SplineSet
125 393.75 m 1
 125 425 l 1
 187.5 425 l 1
 250 425 l 1
 250 393.75 l 1
 250 362.5 l 1
 281.25 362.5 l 1
 312.5 362.5 l 1
 312.5 331.25 l 1
 312.5 300 l 1
 281.25 300 l 1
 250 300 l 1
 250 268.75 l 1
 250 237.5 l 1
 218.75 237.5 l 1
 187.5 237.5 l 1
 187.5 206.25 l 1
 187.5 175 l 1
 156.25 175 l 1
 125 175 l 1
 125 143.75 l 1
 125 112.5 l 1
 343.75 112.5 l 1
 562.5 112.5 l 1
 562.5 81.25 l 1
 562.5 50 l 1
 312.5 50 l 1
 62.5 50 l 1
 62.5 112.5 l 1
 62.5 175 l 1
 93.75 175 l 1
 125 175 l 1
 125 206.25 l 1
 125 237.5 l 1
 156.25 237.5 l 1
 187.5 237.5 l 1
 187.5 268.75 l 1
 187.5 300 l 1
 218.75 300 l 1
 250 300 l 1
 250 331.25 l 1
 250 362.5 l 1
 187.5 362.5 l 1
 125 362.5 l 1
 125 393.75 l 1
125 706.25 m 1
 125 737.5 l 1
 312.5 737.5 l 1
 500 737.5 l 1
 500 706.25 l 1
 500 675 l 1
 531.25 675 l 1
 562.5 675 l 1
 562.5 643.75 l 1
 562.5 612.5 l 1
 531.25 612.5 l 1
 500 612.5 l 1
 500 581.25 l 1
 500 550 l 1
 468.75 550 l 1
 437.5 550 l 1
 437.5 518.75 l 1
 437.5 487.5 l 1
 406.25 487.5 l 1
 375 487.5 l 1
 375 456.25 l 1
 375 425 l 1
 437.5 425 l 1
 500 425 l 1
 500 393.75 l 1
 500 362.5 l 1
 437.5 362.5 l 1
 375 362.5 l 1
 375 393.75 l 1
 375 425 l 1
 343.75 425 l 1
 312.5 425 l 1
 312.5 456.25 l 1
 312.5 487.5 l 1
 343.75 487.5 l 1
 375 487.5 l 1
 375 518.75 l 1
 375 550 l 1
 406.25 550 l 1
 437.5 550 l 1
 437.5 581.25 l 1
 437.5 612.5 l 1
 468.75 612.5 l 1
 500 612.5 l 1
 500 643.75 l 1
 500 675 l 1
 312.5 675 l 1
 125 675 l 1
 125 706.25 l 1
EndSplineSet
EndChar

StartChar: bracketleft
Encoding: 91 91 59
Width: 250
VWidth: 0
Flags: HW
LayerCount: 2
Back
Fore
SplineSet
62.5 706.25 m 1
 62.5 737.5 l 1
 125 737.5 l 1
 187.5 737.5 l 1
 187.5 706.25 l 1
 187.5 675 l 1
 125 675 l 1
 62.5 675 l 1
 62.5 331.25 l 1
 62.5 -12.5 l 1
 125 -12.5 l 1
 187.5 -12.5 l 1
 187.5 -43.75 l 1
 187.5 -75 l 1
 125 -75 l 1
 62.5 -75 l 1
 62.5 -43.75 l 1
 62.5 -12.5 l 1
 31.25 -12.5 l 1
 0 -12.5 l 1
 0 331.25 l 1
 0 675 l 1
 31.25 675 l 1
 62.5 675 l 1
 62.5 706.25 l 1
EndSplineSet
EndChar

StartChar: backslash
Encoding: 92 92 60
Width: 375
VWidth: 0
Flags: HW
LayerCount: 2
Back
Fore
SplineSet
0 706.25 m 1
 0 737.5 l 1
 31.25 737.5 l 1
 62.5 737.5 l 1
 62.5 706.25 l 1
 62.5 675 l 1
 93.75 675 l 1
 125 675 l 1
 125 581.25 l 1
 125 487.5 l 1
 156.25 487.5 l 1
 187.5 487.5 l 1
 187.5 393.75 l 1
 187.5 300 l 1
 218.75 300 l 1
 250 300 l 1
 250 237.5 l 1
 250 175 l 1
 281.25 175 l 1
 312.5 175 l 1
 312.5 112.5 l 1
 312.5 50 l 1
 281.25 50 l 1
 250 50 l 1
 250 112.5 l 1
 250 175 l 1
 218.75 175 l 1
 187.5 175 l 1
 187.5 237.5 l 1
 187.5 300 l 1
 156.25 300 l 1
 125 300 l 1
 125 393.75 l 1
 125 487.5 l 1
 93.75 487.5 l 1
 62.5 487.5 l 1
 62.5 581.25 l 1
 62.5 675 l 1
 31.25 675 l 1
 0 675 l 1
 0 706.25 l 1
EndSplineSet
EndChar

StartChar: bracketright
Encoding: 93 93 61
Width: 312
VWidth: 0
Flags: HW
LayerCount: 2
Back
Fore
SplineSet
62.5 706.25 m 1
 62.5 737.5 l 1
 125 737.5 l 1
 187.5 737.5 l 1
 187.5 706.25 l 1
 187.5 675 l 1
 218.75 675 l 1
 250 675 l 1
 250 331.25 l 1
 250 -12.5 l 1
 218.75 -12.5 l 1
 187.5 -12.5 l 1
 187.5 -43.75 l 1
 187.5 -75 l 1
 125 -75 l 1
 62.5 -75 l 1
 62.5 -43.75 l 1
 62.5 -12.5 l 1
 125 -12.5 l 1
 187.5 -12.5 l 1
 187.5 331.25 l 1
 187.5 675 l 1
 125 675 l 1
 62.5 675 l 1
 62.5 706.25 l 1
EndSplineSet
EndChar

StartChar: asciicircum
Encoding: 94 94 62
Width: 437
VWidth: 0
Flags: HW
LayerCount: 2
Back
Fore
SplineSet
125 488 m 1
 63 488 l 1
 63 550 l 1
 125 550 l 1
 125 488 l 1
250 550 m 1
 312 550 l 1
 312 488 l 1
 250 488 l 1
 250 550 l 1
125 612 m 1
 250 612 l 1
 250 550 l 1
 125 550 l 1
 125 612 l 1
EndSplineSet
EndChar

StartChar: underscore
Encoding: 95 95 63
Width: 562
VWidth: 0
Flags: HW
LayerCount: 2
Back
Fore
SplineSet
0 60 m 5
 499 60 l 5
 499 0 l 5
 0 0 l 5
 0 60 l 5
EndSplineSet
EndChar

StartChar: grave
Encoding: 96 96 64
Width: 250
VWidth: 0
Flags: HW
LayerCount: 2
Back
Fore
SplineSet
62 737 m 1
 124 737 l 1
 124 675 l 1
 62 675 l 1
 62 737 l 1
187 613 m 1
 125 613 l 1
 125 675 l 1
 187 675 l 1
 187 613 l 1
EndSplineSet
EndChar

StartChar: a
Encoding: 97 97 65
Width: 625
VWidth: 0
Flags: HW
LayerCount: 2
Back
Fore
SplineSet
125 456.25 m 1
 125 487.5 l 1
 281.25 487.5 l 1
 437.5 487.5 l 1
 437.5 300 l 1
 437.5 112.5 l 1
 500 112.5 l 1
 562.5 112.5 l 1
 562.5 81.25 l 1
 562.5 50 l 1
 500 50 l 1
 437.5 50 l 1
 437.5 81.25 l 1
 437.5 112.5 l 1
 406.25 112.5 l 1
 375 112.5 l 1
 375 81.25 l 1
 375 50 l 1
 250 50 l 1
 125 50 l 1
 125 81.25 l 1
 125 112.5 l 1
 93.75 112.5 l 1
 62.5 112.5 l 1
 62.5 268.75 l 1
 62.5 425 l 1
 93.75 425 l 1
 125 425 l 1
 125 456.25 l 1
375 300 m 1
 375 425 l 1
 281.25 425 l 1
 187.5 425 l 1
 187.5 393.75 l 1
 187.5 362.5 l 1
 156.25 362.5 l 1
 125 362.5 l 1
 125 237.5 l 1
 125 112.5 l 1
 218.75 112.5 l 1
 312.5 112.5 l 1
 312.5 143.75 l 1
 312.5 175 l 1
 343.75 175 l 1
 375 175 l 1
 375 300 l 1
EndSplineSet
EndChar

StartChar: b
Encoding: 98 98 66
Width: 500
VWidth: 0
Flags: HW
LayerCount: 2
Back
Fore
SplineSet
62.5 393.75 m 1
 62.5 737.5 l 1
 93.75 737.5 l 1
 125 737.5 l 1
 125 581.25 l 1
 125 425 l 1
 156.25 425 l 1
 187.5 425 l 1
 187.5 456.25 l 1
 187.5 487.5 l 1
 281.25 487.5 l 1
 375 487.5 l 1
 375 425 l 1
 375 362.5 l 1
 406.25 362.5 l 1
 437.5 362.5 l 1
 437.5 206.25 l 1
 437.5 50 l 1
 250 50 l 1
 62.5 50 l 1
 62.5 393.75 l 1
312.5 393.75 m 1
 312.5 425 l 1
 250 425 l 1
 187.5 425 l 1
 187.5 393.75 l 1
 187.5 362.5 l 1
 156.25 362.5 l 1
 125 362.5 l 1
 125 237.5 l 1
 125 112.5 l 1
 250 112.5 l 1
 375 112.5 l 1
 375 237.5 l 1
 375 362.5 l 1
 343.75 362.5 l 1
 312.5 362.5 l 1
 312.5 393.75 l 1
EndSplineSet
EndChar

StartChar: c
Encoding: 99 99 67
Width: 500
VWidth: 0
Flags: HW
LayerCount: 2
Back
Fore
SplineSet
125 456.25 m 1
 125 487.5 l 1
 250 487.5 l 1
 375 487.5 l 1
 375 456.25 l 1
 375 425 l 1
 406.25 425 l 1
 437.5 425 l 1
 437.5 393.75 l 1
 437.5 362.5 l 1
 406.25 362.5 l 1
 375 362.5 l 1
 375 393.75 l 1
 375 425 l 1
 281.25 425 l 1
 187.5 425 l 1
 187.5 393.75 l 1
 187.5 362.5 l 1
 156.25 362.5 l 1
 125 362.5 l 1
 125 268.75 l 1
 125 175 l 1
 156.25 175 l 1
 187.5 175 l 1
 187.5 143.75 l 1
 187.5 112.5 l 1
 281.25 112.5 l 1
 375 112.5 l 1
 375 143.75 l 1
 375 175 l 1
 406.25 175 l 1
 437.5 175 l 1
 437.5 143.75 l 1
 437.5 112.5 l 1
 406.25 112.5 l 1
 375 112.5 l 1
 375 81.25 l 1
 375 50 l 1
 250 50 l 1
 125 50 l 1
 125 81.25 l 1
 125 112.5 l 1
 93.75 112.5 l 1
 62.5 112.5 l 1
 62.5 268.75 l 1
 62.5 425 l 1
 93.75 425 l 1
 125 425 l 1
 125 456.25 l 1
EndSplineSet
EndChar

StartChar: d
Encoding: 100 100 68
Width: 562
VWidth: 0
Flags: HW
LayerCount: 2
Back
Fore
SplineSet
375 581.25 m 1
 375 737.5 l 1
 406.25 737.5 l 1
 437.5 737.5 l 1
 437.5 425 l 1
 437.5 112.5 l 1
 468.75 112.5 l 1
 500 112.5 l 1
 500 81.25 l 1
 500 50 l 1
 312.5 50 l 1
 125 50 l 1
 125 81.25 l 1
 125 112.5 l 1
 93.75 112.5 l 1
 62.5 112.5 l 1
 62.5 237.5 l 1
 62.5 362.5 l 1
 93.75 362.5 l 1
 125 362.5 l 1
 125 425 l 1
 125 487.5 l 1
 218.75 487.5 l 1
 312.5 487.5 l 1
 312.5 456.25 l 1
 312.5 425 l 1
 343.75 425 l 1
 375 425 l 1
 375 581.25 l 1
312.5 393.75 m 1
 312.5 425 l 1
 250 425 l 1
 187.5 425 l 1
 187.5 393.75 l 1
 187.5 362.5 l 1
 156.25 362.5 l 1
 125 362.5 l 1
 125 237.5 l 1
 125 112.5 l 1
 250 112.5 l 1
 375 112.5 l 1
 375 237.5 l 1
 375 362.5 l 1
 343.75 362.5 l 1
 312.5 362.5 l 1
 312.5 393.75 l 1
EndSplineSet
EndChar

StartChar: e
Encoding: 101 101 69
Width: 500
VWidth: 0
Flags: HW
LayerCount: 2
Back
Fore
SplineSet
125 456.25 m 1
 125 487.5 l 1
 250 487.5 l 1
 375 487.5 l 1
 375 456.25 l 1
 375 425 l 1
 406.25 425 l 1
 437.5 425 l 1
 437.5 331.25 l 1
 437.5 237.5 l 1
 281.25 237.5 l 1
 125 237.5 l 1
 125 175 l 1
 125 112.5 l 1
 250 112.5 l 1
 375 112.5 l 1
 375 143.75 l 1
 375 175 l 1
 406.25 175 l 1
 437.5 175 l 1
 437.5 143.75 l 1
 437.5 112.5 l 1
 406.25 112.5 l 1
 375 112.5 l 1
 375 81.25 l 1
 375 50 l 1
 250 50 l 1
 125 50 l 1
 125 81.25 l 1
 125 112.5 l 1
 93.75 112.5 l 1
 62.5 112.5 l 1
 62.5 268.75 l 1
 62.5 425 l 1
 93.75 425 l 1
 125 425 l 1
 125 456.25 l 1
375 362.5 m 1
 375 425 l 1
 250 425 l 1
 125 425 l 1
 125 362.5 l 1
 125 300 l 1
 250 300 l 1
 375 300 l 1
 375 362.5 l 1
EndSplineSet
EndChar

StartChar: f
Encoding: 102 102 70
Width: 375
VWidth: 0
Flags: HW
LayerCount: 2
Back
Fore
SplineSet
125 706.25 m 1
 125 737.5 l 1
 218.75 737.5 l 1
 312.5 737.5 l 1
 312.5 706.25 l 1
 312.5 675 l 1
 218.75 675 l 1
 125 675 l 1
 125 550 l 1
 125 425 l 1
 187.5 425 l 1
 250 425 l 1
 250 393.75 l 1
 250 362.5 l 1
 187.5 362.5 l 1
 125 362.5 l 1
 125 237.5 l 1
 125 112.5 l 1
 156.25 112.5 l 1
 187.5 112.5 l 1
 187.5 81.25 l 1
 187.5 50 l 1
 125 50 l 1
 62.5 50 l 1
 62.5 362.5 l 1
 62.5 675 l 1
 93.75 675 l 1
 125 675 l 1
 125 706.25 l 1
EndSplineSet
EndChar

StartChar: g
Encoding: 103 103 71
Width: 500
VWidth: 0
Flags: HW
LayerCount: 2
Back
Fore
SplineSet
125 456.25 m 1
 125 487.5 l 1
 250 487.5 l 1
 375 487.5 l 1
 375 456.25 l 1
 375 425 l 1
 406.25 425 l 1
 437.5 425 l 1
 437.5 175 l 1
 437.5 -75 l 1
 406.25 -75 l 1
 375 -75 l 1
 375 -106.25 l 1
 375 -137.5 l 1
 250 -137.5 l 1
 125 -137.5 l 1
 125 -106.25 l 1
 125 -75 l 1
 93.75 -75 l 1
 62.5 -75 l 1
 62.5 -43.75 l 1
 62.5 -12.5 l 1
 93.75 -12.5 l 1
 125 -12.5 l 1
 125 -43.75 l 1
 125 -75 l 1
 250 -75 l 1
 375 -75 l 1
 375 -12.5 l 1
 375 50 l 1
 250 50 l 1
 125 50 l 1
 125 81.25 l 1
 125 112.5 l 1
 93.75 112.5 l 1
 62.5 112.5 l 1
 62.5 268.75 l 1
 62.5 425 l 1
 93.75 425 l 1
 125 425 l 1
 125 456.25 l 1
375 268.75 m 1
 375 425 l 1
 281.25 425 l 1
 187.5 425 l 1
 187.5 393.75 l 1
 187.5 362.5 l 1
 156.25 362.5 l 1
 125 362.5 l 1
 125 268.75 l 1
 125 175 l 1
 156.25 175 l 1
 187.5 175 l 1
 187.5 143.75 l 1
 187.5 112.5 l 1
 281.25 112.5 l 1
 375 112.5 l 1
 375 268.75 l 1
EndSplineSet
EndChar

StartChar: h
Encoding: 104 104 72
Width: 500
VWidth: 0
Flags: HW
LayerCount: 2
Back
Fore
SplineSet
62.5 393.75 m 1
 62.5 737.5 l 1
 93.75 737.5 l 1
 125 737.5 l 1
 125 581.25 l 1
 125 425 l 1
 156.25 425 l 1
 187.5 425 l 1
 187.5 456.25 l 1
 187.5 487.5 l 1
 281.25 487.5 l 1
 375 487.5 l 1
 375 456.25 l 1
 375 425 l 1
 406.25 425 l 1
 437.5 425 l 1
 437.5 237.5 l 1
 437.5 50 l 1
 406.25 50 l 1
 375 50 l 1
 375 237.5 l 1
 375 425 l 1
 281.25 425 l 1
 187.5 425 l 1
 187.5 393.75 l 1
 187.5 362.5 l 1
 156.25 362.5 l 1
 125 362.5 l 1
 125 237.5 l 1
 125 112.5 l 1
 156.25 112.5 l 1
 187.5 112.5 l 1
 187.5 81.25 l 1
 187.5 50 l 1
 125 50 l 1
 62.5 50 l 1
 62.5 393.75 l 1
EndSplineSet
EndChar

StartChar: i
Encoding: 105 105 73
Width: 187
VWidth: 0
Flags: HW
LayerCount: 2
Back
Fore
SplineSet
62 737 m 1
 124 737 l 1
 124 613 l 1
 62 613 l 1
 62 737 l 1
62 550 m 1
 124 550 l 1
 124 51 l 1
 62 51 l 1
 62 550 l 1
EndSplineSet
EndChar

StartChar: j
Encoding: 106 106 74
Width: 187
VWidth: 0
Flags: HW
LayerCount: 2
Back
Fore
SplineSet
0 -200 m 1
 0 -138 l 1
 62 -138 l 1
 62 -200 l 1
 0 -200 l 1
63 550 m 1
 125 550 l 1
 125 -137 l 1
 63 -137 l 1
 63 550 l 1
62 737 m 1
 124 737 l 1
 124 613 l 1
 62 613 l 1
 62 737 l 1
EndSplineSet
EndChar

StartChar: k
Encoding: 107 107 75
Width: 500
VWidth: 0
Flags: HW
LayerCount: 2
Back
Fore
SplineSet
62.5 393.75 m 1
 62.5 737.5 l 1
 93.75 737.5 l 1
 125 737.5 l 1
 125 518.75 l 1
 125 300 l 1
 156.25 300 l 1
 187.5 300 l 1
 187.5 331.25 l 1
 187.5 362.5 l 1
 218.75 362.5 l 1
 250 362.5 l 1
 250 393.75 l 1
 250 425 l 1
 281.25 425 l 1
 312.5 425 l 1
 312.5 456.25 l 1
 312.5 487.5 l 1
 343.75 487.5 l 1
 375 487.5 l 1
 375 456.25 l 1
 375 425 l 1
 343.75 425 l 1
 312.5 425 l 1
 312.5 393.75 l 1
 312.5 362.5 l 1
 281.25 362.5 l 1
 250 362.5 l 1
 250 300 l 1
 250 237.5 l 1
 281.25 237.5 l 1
 312.5 237.5 l 1
 312.5 206.25 l 1
 312.5 175 l 1
 343.75 175 l 1
 375 175 l 1
 375 143.75 l 1
 375 112.5 l 1
 406.25 112.5 l 1
 437.5 112.5 l 1
 437.5 81.25 l 1
 437.5 50 l 1
 406.25 50 l 1
 375 50 l 1
 375 81.25 l 1
 375 112.5 l 1
 343.75 112.5 l 1
 312.5 112.5 l 1
 312.5 143.75 l 1
 312.5 175 l 1
 281.25 175 l 1
 250 175 l 1
 250 206.25 l 1
 250 237.5 l 1
 187.5 237.5 l 1
 125 237.5 l 1
 125 143.75 l 1
 125 50 l 1
 93.75 50 l 1
 62.5 50 l 1
 62.5 393.75 l 1
EndSplineSet
EndChar

StartChar: l
Encoding: 108 108 76
Width: 250
VWidth: 0
Flags: HW
LayerCount: 2
Back
Fore
SplineSet
63 737 m 1
 125 737 l 5
 125 112 l 1
 187 112 l 1
 187 50 l 1
 63 50 l 1
 63 737 l 1
EndSplineSet
EndChar

StartChar: m
Encoding: 109 109 77
Width: 812
VWidth: 0
Flags: HW
LayerCount: 2
Back
Fore
SplineSet
62.5 268.75 m 1
 62.5 487.5 l 1
 93.75 487.5 l 1
 125 487.5 l 1
 125 456.25 l 1
 125 425 l 1
 156.25 425 l 1
 187.5 425 l 1
 187.5 456.25 l 1
 187.5 487.5 l 1
 281.25 487.5 l 1
 375 487.5 l 1
 375 456.25 l 1
 375 425 l 1
 437.5 425 l 1
 500 425 l 1
 500 456.25 l 1
 500 487.5 l 1
 593.75 487.5 l 1
 687.5 487.5 l 1
 687.5 456.25 l 1
 687.5 425 l 1
 718.75 425 l 1
 750 425 l 1
 750 237.5 l 1
 750 50 l 1
 718.75 50 l 1
 687.5 50 l 1
 687.5 237.5 l 1
 687.5 425 l 1
 593.75 425 l 1
 500 425 l 1
 500 393.75 l 1
 500 362.5 l 1
 468.75 362.5 l 1
 437.5 362.5 l 1
 437.5 300 l 1
 437.5 237.5 l 1
 406.25 237.5 l 1
 375 237.5 l 1
 375 331.25 l 1
 375 425 l 1
 281.25 425 l 1
 187.5 425 l 1
 187.5 393.75 l 1
 187.5 362.5 l 1
 156.25 362.5 l 1
 125 362.5 l 1
 125 237.5 l 1
 125 112.5 l 1
 156.25 112.5 l 1
 187.5 112.5 l 1
 187.5 81.25 l 1
 187.5 50 l 1
 125 50 l 1
 62.5 50 l 1
 62.5 268.75 l 1
EndSplineSet
EndChar

StartChar: n
Encoding: 110 110 78
Width: 476
VWidth: 0
Flags: HW
LayerCount: 2
Back
Fore
SplineSet
46.5 268.75 m 1
 46.5 487.5 l 1
 77.75 487.5 l 1
 109 487.5 l 1
 109 456.25 l 1
 109 425 l 1
 140.25 425 l 1
 171.5 425 l 1
 171.5 456.25 l 1
 171.5 487.5 l 1
 265.25 487.5 l 1
 359 487.5 l 1
 359 456.25 l 1
 359 425 l 1
 390.25 425 l 1
 421.5 425 l 1
 421.5 237.5 l 1
 421.5 50 l 1
 390.25 50 l 1
 359 50 l 1
 359 237.5 l 1
 359 425 l 1
 265.25 425 l 1
 171.5 425 l 1
 171.5 393.75 l 1
 171.5 362.5 l 1
 140.25 362.5 l 1
 109 362.5 l 1
 109 237.5 l 1
 109 112.5 l 1
 140.25 112.5 l 1
 171.5 112.5 l 1
 171.5 81.25 l 1
 171.5 50 l 1
 109 50 l 1
 46.5 50 l 1
 46.5 268.75 l 1
EndSplineSet
EndChar

StartChar: o
Encoding: 111 111 79
Width: 562
VWidth: 0
Flags: HW
LayerCount: 2
Back
Fore
SplineSet
187.5 456.25 m 1
 187.5 487.5 l 1
 281.25 487.5 l 1
 375 487.5 l 1
 375 456.25 l 1
 375 425 l 1
 406.25 425 l 1
 437.5 425 l 1
 437.5 393.75 l 1
 437.5 362.5 l 1
 468.75 362.5 l 1
 500 362.5 l 1
 500 268.75 l 1
 500 175 l 1
 468.75 175 l 1
 437.5 175 l 1
 437.5 143.75 l 1
 437.5 112.5 l 1
 406.25 112.5 l 1
 375 112.5 l 1
 375 81.25 l 1
 375 50 l 1
 281.25 50 l 1
 187.5 50 l 1
 187.5 81.25 l 1
 187.5 112.5 l 1
 156.25 112.5 l 1
 125 112.5 l 1
 125 143.75 l 1
 125 175 l 1
 93.75 175 l 1
 62.5 175 l 1
 62.5 268.75 l 1
 62.5 362.5 l 1
 93.75 362.5 l 1
 125 362.5 l 1
 125 393.75 l 1
 125 425 l 1
 156.25 425 l 1
 187.5 425 l 1
 187.5 456.25 l 1
375 393.75 m 1
 375 425 l 1
 281.25 425 l 1
 187.5 425 l 1
 187.5 393.75 l 1
 187.5 362.5 l 1
 156.25 362.5 l 1
 125 362.5 l 1
 125 268.75 l 1
 125 175 l 1
 156.25 175 l 1
 187.5 175 l 1
 187.5 143.75 l 1
 187.5 112.5 l 1
 281.25 112.5 l 1
 375 112.5 l 1
 375 143.75 l 1
 375 175 l 1
 406.25 175 l 1
 437.5 175 l 1
 437.5 268.75 l 1
 437.5 362.5 l 1
 406.25 362.5 l 1
 375 362.5 l 1
 375 393.75 l 1
EndSplineSet
EndChar

StartChar: p
Encoding: 112 112 80
Width: 500
VWidth: 0
Flags: HW
LayerCount: 2
Back
Fore
SplineSet
62.5 143.75 m 1
 62.5 487.5 l 1
 93.75 487.5 l 1
 125 487.5 l 1
 125 456.25 l 1
 125 425 l 1
 156.25 425 l 1
 187.5 425 l 1
 187.5 456.25 l 1
 187.5 487.5 l 1
 281.25 487.5 l 1
 375 487.5 l 1
 375 456.25 l 1
 375 425 l 1
 406.25 425 l 1
 437.5 425 l 1
 437.5 268.75 l 1
 437.5 112.5 l 1
 406.25 112.5 l 1
 375 112.5 l 1
 375 81.25 l 1
 375 50 l 1
 250 50 l 1
 125 50 l 1
 125 -43.75 l 1
 125 -137.5 l 1
 156.25 -137.5 l 1
 187.5 -137.5 l 1
 187.5 -168.75 l 1
 187.5 -200 l 1
 125 -200 l 1
 62.5 -200 l 1
 62.5 143.75 l 1
375 268.75 m 1
 375 425 l 1
 281.25 425 l 1
 187.5 425 l 1
 187.5 393.75 l 1
 187.5 362.5 l 1
 156.25 362.5 l 1
 125 362.5 l 1
 125 237.5 l 1
 125 112.5 l 1
 250 112.5 l 1
 375 112.5 l 1
 375 268.75 l 1
EndSplineSet
EndChar

StartChar: q
Encoding: 113 113 81
Width: 500
VWidth: 0
Flags: HW
LayerCount: 2
Back
Fore
SplineSet
125 456.25 m 1
 125 487.5 l 1
 218.75 487.5 l 1
 312.5 487.5 l 1
 312.5 456.25 l 1
 312.5 425 l 1
 343.75 425 l 1
 375 425 l 1
 375 456.25 l 1
 375 487.5 l 1
 406.25 487.5 l 1
 437.5 487.5 l 1
 437.5 143.75 l 1
 437.5 -200 l 1
 375 -200 l 1
 312.5 -200 l 1
 312.5 -168.75 l 1
 312.5 -137.5 l 1
 343.75 -137.5 l 1
 375 -137.5 l 1
 375 -43.75 l 1
 375 50 l 1
 250 50 l 1
 125 50 l 1
 125 81.25 l 1
 125 112.5 l 1
 93.75 112.5 l 1
 62.5 112.5 l 1
 62.5 268.75 l 1
 62.5 425 l 1
 93.75 425 l 1
 125 425 l 1
 125 456.25 l 1
312.5 393.75 m 1
 312.5 425 l 1
 218.75 425 l 1
 125 425 l 1
 125 268.75 l 1
 125 112.5 l 1
 250 112.5 l 1
 375 112.5 l 1
 375 237.5 l 1
 375 362.5 l 1
 343.75 362.5 l 1
 312.5 362.5 l 1
 312.5 393.75 l 1
EndSplineSet
EndChar

StartChar: r
Encoding: 114 114 82
Width: 375
VWidth: 0
Flags: HW
LayerCount: 2
Back
Fore
SplineSet
62.5 268.75 m 1
 62.5 487.5 l 1
 93.75 487.5 l 1
 125 487.5 l 1
 125 456.25 l 1
 125 425 l 1
 156.25 425 l 1
 187.5 425 l 1
 187.5 456.25 l 1
 187.5 487.5 l 1
 250 487.5 l 1
 312.5 487.5 l 1
 312.5 456.25 l 1
 312.5 425 l 1
 250 425 l 1
 187.5 425 l 1
 187.5 393.75 l 1
 187.5 362.5 l 1
 156.25 362.5 l 1
 125 362.5 l 1
 125 237.5 l 1
 125 112.5 l 1
 156.25 112.5 l 1
 187.5 112.5 l 1
 187.5 81.25 l 1
 187.5 50 l 1
 125 50 l 1
 62.5 50 l 1
 62.5 268.75 l 1
EndSplineSet
EndChar

StartChar: s
Encoding: 115 115 83
Width: 500
VWidth: 0
Flags: HW
LayerCount: 2
Back
Fore
SplineSet
125 456.25 m 1
 125 487.5 l 1
 250 487.5 l 1
 375 487.5 l 1
 375 456.25 l 1
 375 425 l 1
 406.25 425 l 1
 437.5 425 l 1
 437.5 393.75 l 1
 437.5 362.5 l 1
 406.25 362.5 l 1
 375 362.5 l 1
 375 393.75 l 1
 375 425 l 1
 250 425 l 1
 125 425 l 1
 125 362.5 l 1
 125 300 l 1
 250 300 l 1
 375 300 l 1
 375 268.75 l 1
 375 237.5 l 1
 406.25 237.5 l 1
 437.5 237.5 l 1
 437.5 175 l 1
 437.5 112.5 l 1
 406.25 112.5 l 1
 375 112.5 l 1
 375 81.25 l 1
 375 50 l 1
 250 50 l 1
 125 50 l 1
 125 81.25 l 1
 125 112.5 l 1
 93.75 112.5 l 1
 62.5 112.5 l 1
 62.5 143.75 l 1
 62.5 175 l 1
 93.75 175 l 1
 125 175 l 1
 125 143.75 l 1
 125 112.5 l 1
 250 112.5 l 1
 375 112.5 l 1
 375 175 l 1
 375 237.5 l 1
 250 237.5 l 1
 125 237.5 l 1
 125 268.75 l 1
 125 300 l 1
 93.75 300 l 1
 62.5 300 l 1
 62.5 362.5 l 1
 62.5 425 l 1
 93.75 425 l 1
 125 425 l 1
 125 456.25 l 1
EndSplineSet
EndChar

StartChar: t
Encoding: 116 116 84
Width: 312
VWidth: 0
Flags: HW
LayerCount: 2
Back
Fore
SplineSet
62.5 362.5 m 1
 62.5 675 l 1
 93.75 675 l 1
 125 675 l 1
 125 581.25 l 1
 125 487.5 l 1
 187.5 487.5 l 1
 250 487.5 l 1
 250 456.25 l 1
 250 425 l 1
 187.5 425 l 1
 125 425 l 1
 125 268.75 l 1
 125 112.5 l 1
 249.5 112.5 l 1
 249.5 50 l 5
 62.5 50 l 5
 62.5 362.5 l 1
EndSplineSet
EndChar

StartChar: u
Encoding: 117 117 85
Width: 562
VWidth: 0
Flags: HW
LayerCount: 2
Back
Fore
SplineSet
62.5 300 m 1
 62.5 487.5 l 1
 93.75 487.5 l 1
 125 487.5 l 1
 125 300 l 1
 125 112.5 l 1
 250 112.5 l 1
 375 112.5 l 1
 375 300 l 1
 375 487.5 l 1
 406.25 487.5 l 1
 437.5 487.5 l 1
 437.5 300 l 1
 437.5 112.5 l 1
 468.75 112.5 l 1
 500 112.5 l 1
 500 81.25 l 1
 500 50 l 1
 468.75 50 l 1
 437.5 50 l 1
 437.5 81.25 l 1
 437.5 112.5 l 1
 406.25 112.5 l 1
 375 112.5 l 1
 375 81.25 l 1
 375 50 l 1
 250 50 l 1
 125 50 l 1
 125 81.25 l 1
 125 112.5 l 1
 93.75 112.5 l 1
 62.5 112.5 l 1
 62.5 300 l 1
EndSplineSet
EndChar

StartChar: v
Encoding: 118 118 86
Width: 437
VWidth: 0
Flags: HW
LayerCount: 2
Back
Fore
SplineSet
62.5 331.25 m 1
 62.5 487.5 l 1
 93.75 487.5 l 1
 125 487.5 l 1
 125 331.25 l 1
 125 175 l 1
 156.25 175 l 1
 187.5 175 l 1
 187.5 143.75 l 1
 187.5 112.5 l 1
 218.75 112.5 l 1
 250 112.5 l 1
 250 143.75 l 1
 250 175 l 1
 281.25 175 l 1
 312.5 175 l 1
 312.5 331.25 l 1
 312.5 487.5 l 1
 343.75 487.5 l 1
 375 487.5 l 1
 375 331.25 l 1
 375 175 l 1
 343.75 175 l 1
 312.5 175 l 1
 312.5 143.75 l 1
 312.5 112.5 l 1
 281.25 112.5 l 1
 250 112.5 l 1
 250 81.25 l 1
 250 50 l 1
 218.75 50 l 1
 187.5 50 l 1
 187.5 81.25 l 1
 187.5 112.5 l 1
 156.25 112.5 l 1
 125 112.5 l 1
 125 143.75 l 1
 125 175 l 1
 93.75 175 l 1
 62.5 175 l 1
 62.5 331.25 l 1
EndSplineSet
EndChar

StartChar: w
Encoding: 119 119 87
Width: 687
VWidth: 0
Flags: HW
LayerCount: 2
Back
Fore
SplineSet
62.5 331.25 m 1
 62.5 487.5 l 1
 93.75 487.5 l 1
 125 487.5 l 1
 125 331.25 l 1
 125 175 l 1
 156.25 175 l 1
 187.5 175 l 1
 187.5 143.75 l 1
 187.5 112.5 l 1
 218.75 112.5 l 1
 250 112.5 l 1
 250 143.75 l 1
 250 175 l 1
 281.25 175 l 1
 312.5 175 l 1
 312.5 268.75 l 1
 312.5 362.5 l 1
 343.75 362.5 l 1
 375 362.5 l 1
 375 268.75 l 1
 375 175 l 1
 406.25 175 l 1
 437.5 175 l 1
 437.5 143.75 l 1
 437.5 112.5 l 1
 468.75 112.5 l 1
 500 112.5 l 1
 500 143.75 l 1
 500 175 l 1
 531.25 175 l 1
 562.5 175 l 1
 562.5 331.25 l 1
 562.5 487.5 l 1
 593.75 487.5 l 1
 625 487.5 l 1
 625 331.25 l 1
 625 175 l 1
 593.75 175 l 1
 562.5 175 l 1
 562.5 143.75 l 1
 562.5 112.5 l 1
 531.25 112.5 l 1
 500 112.5 l 1
 500 81.25 l 1
 500 50 l 1
 437.5 50 l 1
 375 50 l 1
 375 112.5 l 1
 375 175 l 1
 343.75 175 l 1
 312.5 175 l 1
 312.5 112.5 l 1
 312.5 50 l 1
 250 50 l 1
 187.5 50 l 1
 187.5 81.25 l 1
 187.5 112.5 l 1
 156.25 112.5 l 1
 125 112.5 l 1
 125 143.75 l 1
 125 175 l 1
 93.75 175 l 1
 62.5 175 l 1
 62.5 331.25 l 1
EndSplineSet
EndChar

StartChar: x
Encoding: 120 120 88
Width: 500
VWidth: 0
Flags: HW
LayerCount: 2
Back
Fore
SplineSet
62.5 425 m 1
 62.5 487.5 l 1
 93.75 487.5 l 1
 125 487.5 l 1
 125 456.25 l 1
 125 425 l 1
 156.25 425 l 1
 187.5 425 l 1
 187.5 362.5 l 1
 187.5 300 l 1
 218.75 300 l 1
 250 300 l 1
 250 331.25 l 1
 250 362.5 l 1
 281.25 362.5 l 1
 312.5 362.5 l 1
 312.5 393.75 l 1
 312.5 425 l 1
 343.75 425 l 1
 375 425 l 1
 375 456.25 l 1
 375 487.5 l 1
 406.25 487.5 l 1
 437.5 487.5 l 1
 437.5 425 l 1
 437.5 362.5 l 1
 375 362.5 l 1
 312.5 362.5 l 1
 312.5 300 l 1
 312.5 237.5 l 1
 343.75 237.5 l 1
 375 237.5 l 1
 375 206.25 l 1
 375 175 l 1
 406.25 175 l 1
 437.5 175 l 1
 437.5 112.5 l 1
 437.5 50 l 1
 406.25 50 l 1
 375 50 l 1
 375 81.25 l 1
 375 112.5 l 1
 343.75 112.5 l 1
 312.5 112.5 l 1
 312.5 175 l 1
 312.5 237.5 l 1
 250 237.5 l 1
 187.5 237.5 l 1
 187.5 175 l 1
 187.5 112.5 l 1
 156.25 112.5 l 1
 125 112.5 l 1
 125 81.25 l 1
 125 50 l 1
 93.75 50 l 1
 62.5 50 l 1
 62.5 112.5 l 1
 62.5 175 l 1
 93.75 175 l 1
 125 175 l 1
 125 206.25 l 1
 125 237.5 l 1
 156.25 237.5 l 1
 187.5 237.5 l 1
 187.5 268.75 l 1
 187.5 300 l 1
 156.25 300 l 1
 125 300 l 1
 125 331.25 l 1
 125 362.5 l 1
 93.75 362.5 l 1
 62.5 362.5 l 1
 62.5 425 l 1
EndSplineSet
EndChar

StartChar: y
Encoding: 121 121 89
Width: 437
VWidth: 0
Flags: HW
LayerCount: 2
Back
Fore
SplineSet
62.5 300 m 1
 62.5 487.5 l 1
 93.75 487.5 l 1
 125 487.5 l 1
 125 300 l 1
 125 112.5 l 1
 218.75 112.5 l 1
 312.5 112.5 l 1
 312.5 300 l 1
 312.5 487.5 l 1
 343.75 487.5 l 1
 375 487.5 l 1
 375 143.75 l 1
 375 -200 l 1
 312.5 -200 l 1
 250 -200 l 1
 250 -168.75 l 1
 250 -137.5 l 1
 281.25 -137.5 l 1
 312.5 -137.5 l 1
 312.5 -43.75 l 1
 312.5 50 l 1
 218.75 50 l 1
 125 50 l 1
 125 81.25 l 1
 125 112.5 l 1
 93.75 112.5 l 1
 62.5 112.5 l 1
 62.5 300 l 1
EndSplineSet
EndChar

StartChar: z
Encoding: 122 122 90
Width: 500
VWidth: 0
Flags: HW
LayerCount: 2
Back
Fore
SplineSet
125 456.25 m 1
 125 487.5 l 1
 281.25 487.5 l 1
 437.5 487.5 l 1
 437.5 425 l 1
 437.5 362.5 l 1
 406.25 362.5 l 1
 375 362.5 l 1
 375 331.25 l 1
 375 300 l 1
 343.75 300 l 1
 312.5 300 l 1
 312.5 268.75 l 1
 312.5 237.5 l 1
 281.25 237.5 l 1
 250 237.5 l 1
 250 206.25 l 1
 250 175 l 1
 218.75 175 l 1
 187.5 175 l 1
 187.5 143.75 l 1
 187.5 112.5 l 1
 312.5 112.5 l 1
 437.5 112.5 l 1
 437.5 81.25 l 1
 437.5 50 l 1
 250 50 l 1
 62.5 50 l 1
 62.5 81.25 l 1
 62.5 112.5 l 1
 93.75 112.5 l 1
 125 112.5 l 1
 125 143.75 l 1
 125 175 l 1
 156.25 175 l 1
 187.5 175 l 1
 187.5 206.25 l 1
 187.5 237.5 l 1
 218.75 237.5 l 1
 250 237.5 l 1
 250 268.75 l 1
 250 300 l 1
 281.25 300 l 1
 312.5 300 l 1
 312.5 331.25 l 1
 312.5 362.5 l 1
 343.75 362.5 l 1
 375 362.5 l 1
 375 393.75 l 1
 375 425 l 1
 250 425 l 1
 125 425 l 1
 125 456.25 l 1
EndSplineSet
EndChar

StartChar: braceleft
Encoding: 123 123 91
Width: 312
VWidth: 0
Flags: HW
LayerCount: 2
Back
Fore
SplineSet
187.5 706.25 m 1
 187.5 737.5 l 1
 250 737.5 l 1
 312.5 737.5 l 1
 312.5 706.25 l 1
 312.5 675 l 1
 250 675 l 1
 187.5 675 l 1
 187.5 550 l 1
 187.5 425 l 1
 156.25 425 l 1
 125 425 l 1
 125 393.75 l 1
 125 362.5 l 1
 93.75 362.5 l 1
 62.5 362.5 l 1
 62.5 331.25 l 1
 62.5 300 l 1
 93.75 300 l 1
 125 300 l 1
 125 268.75 l 1
 125 237.5 l 1
 156.25 237.5 l 1
 187.5 237.5 l 1
 187.5 112.5 l 1
 187.5 -12.5 l 1
 250 -12.5 l 1
 312.5 -12.5 l 1
 312.5 -43.75 l 1
 312.5 -75 l 1
 250 -75 l 1
 187.5 -75 l 1
 187.5 -43.75 l 1
 187.5 -12.5 l 1
 156.25 -12.5 l 1
 125 -12.5 l 1
 125 112.5 l 1
 125 237.5 l 1
 93.75 237.5 l 1
 62.5 237.5 l 1
 62.5 268.75 l 1
 62.5 300 l 1
 31.25 300 l 1
 0 300 l 1
 0 331.25 l 1
 0 362.5 l 1
 31.25 362.5 l 1
 62.5 362.5 l 1
 62.5 393.75 l 1
 62.5 425 l 1
 93.75 425 l 1
 125 425 l 1
 125 550 l 1
 125 675 l 1
 156.25 675 l 1
 187.5 675 l 1
 187.5 706.25 l 1
EndSplineSet
EndChar

StartChar: bar
Encoding: 124 124 92
Width: 187
VWidth: 0
Flags: HW
LayerCount: 2
Back
Fore
SplineSet
63 737 m 1
 125 737 l 1
 125 -137 l 1
 63 -137 l 1
 63 737 l 1
EndSplineSet
EndChar

StartChar: braceright
Encoding: 125 125 93
Width: 312
VWidth: 0
Flags: HW
LayerCount: 2
Back
Fore
SplineSet
0 706.25 m 1
 0 737.5 l 1
 62.5 737.5 l 1
 125 737.5 l 1
 125 706.25 l 1
 125 675 l 1
 156.25 675 l 1
 187.5 675 l 1
 187.5 518.75 l 1
 187.5 362.5 l 1
 218.75 362.5 l 1
 250 362.5 l 1
 250 331.25 l 1
 250 300 l 1
 218.75 300 l 1
 187.5 300 l 1
 187.5 143.75 l 1
 187.5 -12.5 l 1
 156.25 -12.5 l 1
 125 -12.5 l 1
 125 -43.75 l 1
 125 -75 l 1
 62.5 -75 l 1
 0 -75 l 1
 0 -43.75 l 1
 0 -12.5 l 1
 62.5 -12.5 l 1
 125 -12.5 l 1
 125 143.75 l 1
 125 300 l 1
 156.25 300 l 1
 187.5 300 l 1
 187.5 331.25 l 1
 187.5 362.5 l 1
 156.25 362.5 l 1
 125 362.5 l 1
 125 518.75 l 1
 125 675 l 1
 62.5 675 l 1
 0 675 l 1
 0 706.25 l 1
EndSplineSet
EndChar

StartChar: asciitilde
Encoding: 126 126 94
Width: 500
VWidth: 0
Flags: HW
LayerCount: 2
Back
Fore
SplineSet
125 238 m 1
 62 238 l 1
 62 300 l 1
 125 300 l 1
 125 238 l 1
437 300 m 1
 375 300 l 1
 375 362 l 1
 437 362 l 1
 437 300 l 1
250 300 m 1
 375 300 l 1
 375 238 l 1
 250 238 l 1
 250 300 l 1
125 362 m 1
 250 362 l 1
 250 300 l 1
 125 300 l 1
 125 362 l 1
EndSplineSet
EndChar

StartChar: exclamdown
Encoding: 161 161 96
Width: 187
VWidth: 0
Flags: HW
LayerCount: 2
Back
Fore
SplineSet
125 488 m 1
 62 488 l 1
 62 613 l 1
 125 613 l 1
 125 488 l 1
62 425 m 1
 125 425 l 1
 125 238.333007812 125 49.6669921875 125 -137 c 1
 62 -137 l 1
 62 425 l 1
EndSplineSet
EndChar

StartChar: cent
Encoding: 162 162 97
Width: 500
VWidth: 0
Flags: HW
LayerCount: 2
Back
Fore
SplineSet
187.5 581.25 m 1
 187.5 675 l 1
 218.75 675 l 1
 250 675 l 1
 250 581.25 l 1
 250 487.5 l 1
 312.5 487.5 l 1
 375 487.5 l 1
 375 456.25 l 1
 375 425 l 1
 406.25 425 l 1
 437.5 425 l 1
 437.5 393.75 l 1
 437.5 362.5 l 1
 406.25 362.5 l 1
 375 362.5 l 1
 375 393.75 l 1
 375 425 l 1
 312.5 425 l 1
 250 425 l 1
 250 268.75 l 1
 250 112.5 l 1
 312.5 112.5 l 1
 375 112.5 l 1
 375 143.75 l 1
 375 175 l 1
 406.25 175 l 1
 437.5 175 l 1
 437.5 143.75 l 1
 437.5 112.5 l 1
 406.25 112.5 l 1
 375 112.5 l 1
 375 81.25 l 1
 375 50 l 1
 312.5 50 l 1
 250 50 l 1
 250 -43.75 l 1
 250 -137.5 l 1
 218.75 -137.5 l 1
 187.5 -137.5 l 1
 187.5 -43.75 l 1
 187.5 50 l 1
 156.25 50 l 1
 125 50 l 1
 125 81.25 l 1
 125 112.5 l 1
 93.75 112.5 l 1
 62.5 112.5 l 1
 62.5 268.75 l 1
 62.5 425 l 1
 93.75 425 l 1
 125 425 l 1
 125 456.25 l 1
 125 487.5 l 1
 156.25 487.5 l 1
 187.5 487.5 l 1
 187.5 581.25 l 1
187.5 268.75 m 1
 187.5 362.5 l 1
 156.25 362.5 l 1
 125 362.5 l 1
 125 268.75 l 1
 125 175 l 1
 156.25 175 l 1
 187.5 175 l 1
 187.5 268.75 l 1
EndSplineSet
EndChar

StartChar: sterling
Encoding: 163 163 98
Width: 562
VWidth: 0
Flags: HW
LayerCount: 2
Back
Fore
SplineSet
125 706.25 m 1
 125 737.5 l 1
 312.5 737.5 l 1
 500 737.5 l 1
 500 675 l 1
 500 612.5 l 1
 468.75 612.5 l 1
 437.5 612.5 l 1
 437.5 643.75 l 1
 437.5 675 l 1
 281.25 675 l 1
 125 675 l 1
 125 612.5 l 1
 125 550 l 1
 93.75 550 l 1
 62.5 550 l 1
 62.5 518.75 l 1
 62.5 487.5 l 1
 93.75 487.5 l 1
 125 487.5 l 1
 125 456.25 l 1
 125 425 l 1
 218.75 425 l 1
 312.5 425 l 1
 312.5 393.75 l 1
 312.5 362.5 l 1
 187.5 362.5 l 1
 62.5 362.5 l 1
 62.5 331.25 l 1
 62.5 300 l 1
 93.75 300 l 1
 125 300 l 1
 125 206.25 l 1
 125 112.5 l 1
 312.5 112.5 l 1
 500 112.5 l 1
 500 81.25 l 1
 500 50 l 1
 312.5 50 l 1
 125 50 l 1
 125 81.25 l 1
 125 112.5 l 1
 93.75 112.5 l 1
 62.5 112.5 l 1
 62.5 81.25 l 1
 62.5 50 l 1
 31.25 50 l 1
 0 50 l 1
 0 81.25 l 1
 0 112.5 l 1
 31.25 112.5 l 1
 62.5 112.5 l 1
 62.5 206.25 l 1
 62.5 300 l 1
 31.25 300 l 1
 0 300 l 1
 0 331.25 l 1
 0 362.5 l 1
 31.25 362.5 l 1
 62.5 362.5 l 1
 62.5 425 l 1
 62.5 487.5 l 1
 31.25 487.5 l 1
 0 487.5 l 1
 0 518.75 l 1
 0 550 l 1
 31.25 550 l 1
 62.5 550 l 1
 62.5 612.5 l 1
 62.5 675 l 1
 93.75 675 l 1
 125 675 l 1
 125 706.25 l 1
EndSplineSet
EndChar

StartChar: currency
Encoding: 164 164 99
Width: 562
VWidth: 0
Flags: HW
LayerCount: 2
Back
Fore
SplineSet
62.5 581.25 m 1
 62.5 612.5 l 1
 93.75 612.5 l 1
 125 612.5 l 1
 125 581.25 l 1
 125 550 l 1
 156.25 550 l 1
 187.5 550 l 1
 187.5 581.25 l 1
 187.5 612.5 l 1
 281.25 612.5 l 1
 375 612.5 l 1
 375 581.25 l 1
 375 550 l 1
 406.25 550 l 1
 437.5 550 l 1
 437.5 581.25 l 1
 437.5 612.5 l 1
 468.75 612.5 l 1
 500 612.5 l 1
 500 581.25 l 1
 500 550 l 1
 468.75 550 l 1
 437.5 550 l 1
 437.5 518.75 l 1
 437.5 487.5 l 1
 468.75 487.5 l 1
 500 487.5 l 1
 500 393.75 l 1
 500 300 l 1
 468.75 300 l 1
 437.5 300 l 1
 437.5 268.75 l 1
 437.5 237.5 l 1
 468.75 237.5 l 1
 500 237.5 l 1
 500 206.25 l 1
 500 175 l 1
 468.75 175 l 1
 437.5 175 l 1
 437.5 206.25 l 1
 437.5 237.5 l 1
 406.25 237.5 l 1
 375 237.5 l 1
 375 206.25 l 1
 375 175 l 1
 281.25 175 l 1
 187.5 175 l 1
 187.5 206.25 l 1
 187.5 237.5 l 1
 156.25 237.5 l 1
 125 237.5 l 1
 125 206.25 l 1
 125 175 l 1
 93.75 175 l 1
 62.5 175 l 1
 62.5 206.25 l 1
 62.5 237.5 l 1
 93.75 237.5 l 1
 125 237.5 l 1
 125 268.75 l 1
 125 300 l 1
 93.75 300 l 1
 62.5 300 l 1
 62.5 393.75 l 1
 62.5 487.5 l 1
 93.75 487.5 l 1
 125 487.5 l 1
 125 518.75 l 1
 125 550 l 1
 93.75 550 l 1
 62.5 550 l 1
 62.5 581.25 l 1
375 518.75 m 1
 375 550 l 1
 281.25 550 l 1
 187.5 550 l 1
 187.5 518.75 l 1
 187.5 487.5 l 1
 156.25 487.5 l 1
 125 487.5 l 1
 125 393.75 l 1
 125 300 l 1
 156.25 300 l 1
 187.5 300 l 1
 187.5 268.75 l 1
 187.5 237.5 l 1
 281.25 237.5 l 1
 375 237.5 l 1
 375 268.75 l 1
 375 300 l 1
 406.25 300 l 1
 437.5 300 l 1
 437.5 393.75 l 1
 437.5 487.5 l 1
 406.25 487.5 l 1
 375 487.5 l 1
 375 518.75 l 1
EndSplineSet
EndChar

StartChar: yen
Encoding: 165 165 100
Width: 562
VWidth: 0
Flags: HW
LayerCount: 2
Back
Fore
SplineSet
62.5 675 m 1
 62.5 737.5 l 1
 93.75 737.5 l 1
 125 737.5 l 1
 125 675 l 1
 125 612.5 l 1
 156.25 612.5 l 1
 187.5 612.5 l 1
 187.5 550 l 1
 187.5 487.5 l 1
 218.75 487.5 l 1
 250 487.5 l 1
 250 456.25 l 1
 250 425 l 1
 281.25 425 l 1
 312.5 425 l 1
 312.5 456.25 l 1
 312.5 487.5 l 1
 343.75 487.5 l 1
 375 487.5 l 1
 375 550 l 1
 375 612.5 l 1
 406.25 612.5 l 1
 437.5 612.5 l 1
 437.5 675 l 1
 437.5 737.5 l 1
 468.75 737.5 l 1
 500 737.5 l 1
 500 675 l 1
 500 612.5 l 1
 468.75 612.5 l 1
 437.5 612.5 l 1
 437.5 550 l 1
 437.5 487.5 l 1
 406.25 487.5 l 1
 375 487.5 l 1
 375 456.25 l 1
 375 425 l 1
 343.75 425 l 1
 312.5 425 l 1
 312.5 393.75 l 1
 312.5 362.5 l 1
 375 362.5 l 1
 437.5 362.5 l 1
 437.5 331.25 l 1
 437.5 300 l 1
 375 300 l 1
 312.5 300 l 1
 312.5 268.75 l 1
 312.5 237.5 l 1
 375 237.5 l 1
 437.5 237.5 l 1
 437.5 206.25 l 1
 437.5 175 l 1
 375 175 l 1
 312.5 175 l 1
 312.5 112.5 l 1
 312.5 50 l 1
 281.25 50 l 1
 250 50 l 1
 250 112.5 l 1
 250 175 l 1
 187.5 175 l 1
 125 175 l 1
 125 206.25 l 1
 125 237.5 l 1
 187.5 237.5 l 1
 250 237.5 l 1
 250 268.75 l 1
 250 300 l 1
 187.5 300 l 1
 125 300 l 1
 125 331.25 l 1
 125 362.5 l 1
 187.5 362.5 l 1
 250 362.5 l 1
 250 393.75 l 1
 250 425 l 1
 218.75 425 l 1
 187.5 425 l 1
 187.5 456.25 l 1
 187.5 487.5 l 1
 156.25 487.5 l 1
 125 487.5 l 1
 125 550 l 1
 125 612.5 l 1
 93.75 612.5 l 1
 62.5 612.5 l 1
 62.5 675 l 1
EndSplineSet
EndChar

StartChar: brokenbar
Encoding: 166 166 101
Width: 187
VWidth: 0
Flags: HW
LayerCount: 2
Back
Fore
SplineSet
62 737 m 1
 125 737 l 1
 125 427 l 1
 62 427 l 1
 62 737 l 1
62 237 m 1
 125 237 l 1
 125 -138 l 1
 62 -138 l 1
 62 237 l 1
EndSplineSet
EndChar

StartChar: section
Encoding: 167 167 102
Width: 500
VWidth: 0
Flags: HW
LayerCount: 2
Back
Fore
SplineSet
187.5 706.25 m 1
 187.5 737.5 l 1
 281.25 737.5 l 1
 375 737.5 l 1
 375 675 l 1
 375 612.5 l 1
 343.75 612.5 l 1
 312.5 612.5 l 1
 312.5 643.75 l 1
 312.5 675 l 1
 250 675 l 1
 187.5 675 l 1
 187.5 612.5 l 1
 187.5 550 l 1
 218.75 550 l 1
 250 550 l 1
 250 518.75 l 1
 250 487.5 l 1
 281.25 487.5 l 1
 312.5 487.5 l 1
 312.5 456.25 l 1
 312.5 425 l 1
 343.75 425 l 1
 375 425 l 1
 375 268.75 l 1
 375 112.5 l 1
 343.75 112.5 l 1
 312.5 112.5 l 1
 312.5 81.25 l 1
 312.5 50 l 1
 218.75 50 l 1
 125 50 l 1
 125 112.5 l 1
 125 175 l 1
 156.25 175 l 1
 187.5 175 l 1
 187.5 143.75 l 1
 187.5 112.5 l 1
 250 112.5 l 1
 312.5 112.5 l 1
 312.5 175 l 1
 312.5 237.5 l 1
 281.25 237.5 l 1
 250 237.5 l 1
 250 268.75 l 1
 250 300 l 1
 218.75 300 l 1
 187.5 300 l 1
 187.5 331.25 l 1
 187.5 362.5 l 1
 156.25 362.5 l 1
 125 362.5 l 1
 125 518.75 l 1
 125 675 l 1
 156.25 675 l 1
 187.5 675 l 1
 187.5 706.25 l 1
250 456.25 m 1
 250 487.5 l 1
 218.75 487.5 l 1
 187.5 487.5 l 1
 187.5 425 l 1
 187.5 362.5 l 1
 218.75 362.5 l 1
 250 362.5 l 1
 250 331.25 l 1
 250 300 l 1
 281.25 300 l 1
 312.5 300 l 1
 312.5 362.5 l 1
 312.5 425 l 1
 281.25 425 l 1
 250 425 l 1
 250 456.25 l 1
EndSplineSet
EndChar

StartChar: dieresis
Encoding: 168 168 103
Width: 375
VWidth: 0
Flags: HW
LayerCount: 2
Back
Fore
SplineSet
250 800 m 5
 312 800 l 5
 312 676 l 5
 250 676 l 5
 250 800 l 5
62 800 m 1
 124 800 l 1
 124 675 l 1
 62 675 l 1
 62 800 l 1
EndSplineSet
EndChar

StartChar: copyright
Encoding: 169 169 104
Width: 750
VWidth: 0
Flags: HW
LayerCount: 2
Back
Fore
SplineSet
312.5 581.25 m 1
 312.5 612.5 l 1
 375 612.5 l 1
 437.5 612.5 l 1
 437.5 581.25 l 1
 437.5 550 l 1
 468.75 550 l 1
 500 550 l 1
 500 518.75 l 1
 500 487.5 l 1
 468.75 487.5 l 1
 437.5 487.5 l 1
 437.5 518.75 l 1
 437.5 550 l 1
 375 550 l 1
 312.5 550 l 1
 312.5 425 l 1
 312.5 300 l 1
 375 300 l 1
 437.5 300 l 1
 437.5 331.25 l 1
 437.5 362.5 l 1
 468.75 362.5 l 1
 500 362.5 l 1
 500 331.25 l 1
 500 300 l 1
 468.75 300 l 1
 437.5 300 l 1
 437.5 268.75 l 1
 437.5 237.5 l 1
 375 237.5 l 1
 312.5 237.5 l 1
 312.5 268.75 l 1
 312.5 300 l 1
 281.25 300 l 1
 250 300 l 1
 250 425 l 1
 250 550 l 1
 281.25 550 l 1
 312.5 550 l 1
 312.5 581.25 l 1
187.5 706.25 m 1
 187.5 737.5 l 1
 375 737.5 l 1
 562.5 737.5 l 1
 562.5 706.25 l 1
 562.5 675 l 1
 593.75 675 l 1
 625 675 l 1
 625 643.75 l 1
 625 612.5 l 1
 656.25 612.5 l 1
 687.5 612.5 l 1
 687.5 425 l 1
 687.5 237.5 l 1
 656.25 237.5 l 1
 625 237.5 l 1
 625 206.25 l 1
 625 175 l 1
 593.75 175 l 1
 562.5 175 l 1
 562.5 143.75 l 1
 562.5 112.5 l 1
 375 112.5 l 1
 187.5 112.5 l 1
 187.5 143.75 l 1
 187.5 175 l 1
 156.25 175 l 1
 125 175 l 1
 125 206.25 l 1
 125 237.5 l 1
 93.75 237.5 l 1
 62.5 237.5 l 1
 62.5 425 l 1
 62.5 612.5 l 1
 93.75 612.5 l 1
 125 612.5 l 1
 125 643.75 l 1
 125 675 l 1
 156.25 675 l 1
 187.5 675 l 1
 187.5 706.25 l 1
562.5 643.75 m 1
 562.5 675 l 1
 375 675 l 1
 187.5 675 l 1
 187.5 643.75 l 1
 187.5 612.5 l 1
 156.25 612.5 l 1
 125 612.5 l 1
 125 425 l 1
 125 237.5 l 1
 156.25 237.5 l 1
 187.5 237.5 l 1
 187.5 206.25 l 1
 187.5 175 l 1
 375 175 l 1
 562.5 175 l 1
 562.5 206.25 l 1
 562.5 237.5 l 1
 593.75 237.5 l 1
 625 237.5 l 1
 625 425 l 1
 625 612.5 l 1
 593.75 612.5 l 1
 562.5 612.5 l 1
 562.5 643.75 l 1
EndSplineSet
EndChar

StartChar: ordfeminine
Encoding: 170 170 105
Width: 437
VWidth: 0
Flags: HW
LayerCount: 2
Back
Fore
SplineSet
62.5 331.25 m 1
 62.5 362.5 l 1
 218.75 362.5 l 1
 375 362.5 l 1
 375 331.25 l 1
 375 300 l 1
 218.75 300 l 1
 62.5 300 l 1
 62.5 331.25 l 1
125 706.25 m 1
 125 737.5 l 1
 218.75 737.5 l 1
 312.5 737.5 l 1
 312.5 612.5 l 1
 312.5 487.5 l 1
 343.75 487.5 l 1
 375 487.5 l 1
 375 456.25 l 1
 375 425 l 1
 343.75 425 l 1
 312.5 425 l 1
 312.5 456.25 l 1
 312.5 487.5 l 1
 281.25 487.5 l 1
 250 487.5 l 1
 250 456.25 l 1
 250 425 l 1
 156.25 425 l 1
 62.5 425 l 1
 62.5 550 l 1
 62.5 675 l 1
 93.75 675 l 1
 125 675 l 1
 125 706.25 l 1
250 581.25 m 1
 250 675 l 1
 187.5 675 l 1
 125 675 l 1
 125 581.25 l 1
 125 487.5 l 1
 187.5 487.5 l 1
 250 487.5 l 1
 250 581.25 l 1
EndSplineSet
EndChar

StartChar: guillemotleft
Encoding: 171 171 106
Width: 500
VWidth: 0
Flags: HW
LayerCount: 2
Back
Fore
SplineSet
375 518.75 m 1
 375 550 l 1
 406.25 550 l 1
 437.5 550 l 1
 437.5 518.75 l 1
 437.5 487.5 l 1
 406.25 487.5 l 1
 375 487.5 l 1
 375 425 l 1
 375 362.5 l 1
 343.75 362.5 l 1
 312.5 362.5 l 1
 312.5 331.25 l 1
 312.5 300 l 1
 343.75 300 l 1
 375 300 l 1
 375 237.5 l 1
 375 175 l 1
 406.25 175 l 1
 437.5 175 l 1
 437.5 143.75 l 1
 437.5 112.5 l 1
 406.25 112.5 l 1
 375 112.5 l 1
 375 143.75 l 1
 375 175 l 1
 343.75 175 l 1
 312.5 175 l 1
 312.5 237.5 l 1
 312.5 300 l 1
 281.25 300 l 1
 250 300 l 1
 250 331.25 l 1
 250 362.5 l 1
 281.25 362.5 l 1
 312.5 362.5 l 1
 312.5 425 l 1
 312.5 487.5 l 1
 343.75 487.5 l 1
 375 487.5 l 1
 375 518.75 l 1
187.5 518.75 m 1
 187.5 550 l 1
 218.75 550 l 1
 250 550 l 1
 250 518.75 l 1
 250 487.5 l 1
 218.75 487.5 l 1
 187.5 487.5 l 1
 187.5 425 l 1
 187.5 362.5 l 1
 156.25 362.5 l 1
 125 362.5 l 1
 125 331.25 l 1
 125 300 l 1
 156.25 300 l 1
 187.5 300 l 1
 187.5 237.5 l 1
 187.5 175 l 1
 218.75 175 l 1
 250 175 l 1
 250 143.75 l 1
 250 112.5 l 1
 218.75 112.5 l 1
 187.5 112.5 l 1
 187.5 143.75 l 1
 187.5 175 l 1
 156.25 175 l 1
 125 175 l 1
 125 237.5 l 1
 125 300 l 1
 93.75 300 l 1
 62.5 300 l 1
 62.5 331.25 l 1
 62.5 362.5 l 1
 93.75 362.5 l 1
 125 362.5 l 1
 125 425 l 1
 125 487.5 l 1
 156.25 487.5 l 1
 187.5 487.5 l 1
 187.5 518.75 l 1
EndSplineSet
EndChar

StartChar: logicalnot
Encoding: 172 172 107
Width: 500
VWidth: 0
Flags: HW
LayerCount: 2
Back
Fore
SplineSet
375 362.5 m 1
 375 425 l 1
 406.25 425 l 1
 437.5 425 l 1
 437.5 362.5 l 1
 437.5 300 l 1
 406.25 300 l 1
 375 300 l 1
 375 362.5 l 1
62.5 456.25 m 1
 62.5 487.5 l 1
 156.25 487.5 l 1
 437 487.5 l 1
 437 425 l 1
 156.25 425 l 1
 62.5 425 l 1
 62.5 456.25 l 1
EndSplineSet
EndChar

StartChar: registered
Encoding: 174 174 108
Width: 750
VWidth: 0
Flags: HW
LayerCount: 2
Back
Fore
SplineSet
312.5 581.25 m 1
 312.5 612.5 l 1
 375 612.5 l 1
 437.5 612.5 l 1
 437.5 581.25 l 1
 437.5 550 l 1
 468.75 550 l 1
 500 550 l 1
 500 487.5 l 1
 500 425 l 1
 468.75 425 l 1
 437.5 425 l 1
 437.5 393.75 l 1
 437.5 362.5 l 1
 468.75 362.5 l 1
 500 362.5 l 1
 500 300 l 1
 500 237.5 l 1
 468.75 237.5 l 1
 437.5 237.5 l 1
 437.5 300 l 1
 437.5 362.5 l 1
 375 362.5 l 1
 312.5 362.5 l 1
 312.5 300 l 1
 312.5 237.5 l 1
 281.25 237.5 l 1
 250 237.5 l 1
 250 393.75 l 1
 250 550 l 1
 281.25 550 l 1
 312.5 550 l 1
 312.5 581.25 l 1
437.5 487.5 m 1
 437.5 550 l 1
 375 550 l 1
 312.5 550 l 1
 312.5 487.5 l 1
 312.5 425 l 1
 375 425 l 1
 437.5 425 l 1
 437.5 487.5 l 1
187.5 706.25 m 1
 187.5 737.5 l 1
 375 737.5 l 1
 562.5 737.5 l 1
 562.5 706.25 l 1
 562.5 675 l 1
 593.75 675 l 1
 625 675 l 1
 625 643.75 l 1
 625 612.5 l 1
 656.25 612.5 l 1
 687.5 612.5 l 1
 687.5 425 l 1
 687.5 237.5 l 1
 656.25 237.5 l 1
 625 237.5 l 1
 625 206.25 l 1
 625 175 l 1
 593.75 175 l 1
 562.5 175 l 1
 562.5 143.75 l 1
 562.5 112.5 l 1
 375 112.5 l 1
 187.5 112.5 l 1
 187.5 143.75 l 1
 187.5 175 l 1
 156.25 175 l 1
 125 175 l 1
 125 206.25 l 1
 125 237.5 l 1
 93.75 237.5 l 1
 62.5 237.5 l 1
 62.5 425 l 1
 62.5 612.5 l 1
 93.75 612.5 l 1
 125 612.5 l 1
 125 643.75 l 1
 125 675 l 1
 156.25 675 l 1
 187.5 675 l 1
 187.5 706.25 l 1
562.5 643.75 m 1
 562.5 675 l 1
 375 675 l 1
 187.5 675 l 1
 187.5 643.75 l 1
 187.5 612.5 l 1
 156.25 612.5 l 1
 125 612.5 l 1
 125 425 l 1
 125 237.5 l 1
 156.25 237.5 l 1
 187.5 237.5 l 1
 187.5 206.25 l 1
 187.5 175 l 1
 375 175 l 1
 562.5 175 l 1
 562.5 206.25 l 1
 562.5 237.5 l 1
 593.75 237.5 l 1
 625 237.5 l 1
 625 425 l 1
 625 612.5 l 1
 593.75 612.5 l 1
 562.5 612.5 l 1
 562.5 643.75 l 1
EndSplineSet
EndChar

StartChar: macron
Encoding: 175 175 109
Width: 562
VWidth: 0
Flags: HW
LayerCount: 2
Back
Fore
SplineSet
63 800 m 1
 437 800 l 1
 437 738 l 1
 63 738 l 1
 63 800 l 1
EndSplineSet
EndChar

StartChar: degree
Encoding: 176 176 110
Width: 312
VWidth: 0
Flags: HW
LayerCount: 2
Back
Fore
SplineSet
63 737 m 1
 187 737 l 1
 187 675 l 1
 63 675 l 1
 63 737 l 1
188 675 m 1
 250 675 l 1
 250 613 l 1
 188 613 l 1
 188 675 l 1
0 643.75 m 1
 0 675 l 1
 31.25 675 l 1
 62.5 675 l 1
 62.5 643.75 l 1
 62.5 612.5 l 1
 125 612.5 l 1
 187.5 612.5 l 1
 187.5 581.25 l 1
 187.5 550 l 1
 125 550 l 1
 62.5 550 l 1
 62.5 581.25 l 1
 62.5 612.5 l 1
 31.25 612.5 l 1
 0 612.5 l 1
 0 643.75 l 1
EndSplineSet
EndChar

StartChar: plusminus
Encoding: 177 177 111
Width: 437
VWidth: 0
Flags: HW
LayerCount: 2
Back
Fore
SplineSet
62.5 206.25 m 1
 62.5 237.5 l 1
 218.75 237.5 l 1
 375 237.5 l 1
 375 206.25 l 1
 375 175 l 1
 218.75 175 l 1
 62.5 175 l 1
 62.5 206.25 l 1
187.5 550 m 1
 187.5 612.5 l 1
 218.75 612.5 l 1
 250 612.5 l 1
 250 550 l 1
 250 487.5 l 1
 312.5 487.5 l 1
 375 487.5 l 1
 375 456.25 l 1
 375 425 l 1
 312.5 425 l 1
 250 425 l 1
 250 362.5 l 1
 250 300 l 1
 218.75 300 l 1
 187.5 300 l 1
 187.5 362.5 l 1
 187.5 425 l 1
 125 425 l 1
 62.5 425 l 1
 62.5 456.25 l 1
 62.5 487.5 l 1
 125 487.5 l 1
 187.5 487.5 l 1
 187.5 550 l 1
EndSplineSet
EndChar

StartChar: uni00B2
Encoding: 178 178 112
Width: 312
VWidth: 0
Flags: HW
LayerCount: 2
Back
Fore
SplineSet
62.5 768.75 m 1
 62.5 800 l 1
 125 800 l 1
 187.5 800 l 1
 187.5 768.75 l 1
 187.5 737.5 l 1
 218.75 737.5 l 1
 250 737.5 l 1
 250 706.25 l 1
 250 675 l 1
 218.75 675 l 1
 187.5 675 l 1
 187.5 643.75 l 1
 187.5 612.5 l 1
 156.25 612.5 l 1
 125 612.5 l 1
 125 581.25 l 1
 125 550 l 1
 187.5 550 l 1
 250 550 l 1
 250 518.75 l 1
 250 487.5 l 1
 125 487.5 l 1
 0 487.5 l 1
 0 518.75 l 1
 0 550 l 1
 31.25 550 l 1
 62.5 550 l 1
 62.5 581.25 l 1
 62.5 612.5 l 1
 93.75 612.5 l 1
 125 612.5 l 1
 125 643.75 l 1
 125 675 l 1
 156.25 675 l 1
 187.5 675 l 1
 187.5 706.25 l 1
 187.5 737.5 l 1
 125 737.5 l 1
 62.5 737.5 l 1
 62.5 706.25 l 1
 62.5 675 l 1
 31.25 675 l 1
 0 675 l 1
 0 706.25 l 1
 0 737.5 l 1
 31.25 737.5 l 1
 62.5 737.5 l 1
 62.5 768.75 l 1
EndSplineSet
EndChar

StartChar: uni00B3
Encoding: 179 179 113
Width: 312
VWidth: 0
Flags: HW
LayerCount: 2
Back
Fore
SplineSet
125 643.75 m 1
 125 675 l 1
 187.5 675 l 1
 187.5 737.5 l 1
 250 737 l 1
 250 675 l 1
 250 581.25 l 1
 250 487.5 l 1
 125 487.5 l 1
 0 487.5 l 1
 0 518.75 l 1
 0 550 l 1
 93.75 550 l 1
 187.5 550 l 1
 187.5 581.25 l 1
 187.5 612.5 l 1
 156.25 612.5 l 1
 125 612.5 l 1
 125 643.75 l 1
0 768.75 m 1
 0 800 l 1
 93.75 800 l 1
 187.5 800 l 1
 187.5 768.75 l 1
 187.5 737.5 l 1
 93.75 737.5 l 1
 0 737.5 l 1
 0 768.75 l 1
EndSplineSet
EndChar

StartChar: acute
Encoding: 180 180 114
Width: 250
VWidth: 0
Flags: HW
LayerCount: 2
Back
Fore
SplineSet
63 675 m 1
 125 675 l 1
 125 613 l 1
 63 613 l 1
 63 675 l 1
125 737 m 1
 187 737 l 1
 187 676 l 1
 125 676 l 1
 125 737 l 1
EndSplineSet
EndChar

StartChar: uni00B5
Encoding: 181 181 115
Width: 562
VWidth: 0
Flags: HW
LayerCount: 2
Back
Fore
SplineSet
62.5 175 m 1
 62.5 487.5 l 1
 93.75 487.5 l 1
 125 487.5 l 1
 125 300 l 1
 125 112.5 l 1
 250 112.5 l 1
 375 112.5 l 1
 375 300 l 1
 375 487.5 l 1
 406.25 487.5 l 1
 437.5 487.5 l 1
 437.5 300 l 1
 437.5 112.5 l 1
 468.75 112.5 l 1
 500 112.5 l 1
 500 81.25 l 1
 500 50 l 1
 312.5 50 l 1
 125 50 l 1
 125 -43.75 l 1
 125 -137.5 l 1
 93.75 -137.5 l 1
 62.5 -137.5 l 1
 62.5 175 l 1
EndSplineSet
EndChar

StartChar: paragraph
Encoding: 182 182 116
Width: 562
VWidth: 0
Flags: HW
LayerCount: 2
Back
Fore
SplineSet
62.5 706.25 m 1
 62.5 737.5 l 1
 281.25 737.5 l 1
 500 737.5 l 1
 500 706.25 l 1
 500 675 l 1
 468.75 675 l 1
 437.5 675 l 1
 437.5 268.75 l 1
 437.5 -137.5 l 1
 406.25 -137.5 l 1
 375 -137.5 l 1
 375 268.75 l 1
 375 675 l 1
 343.75 675 l 1
 312.5 675 l 1
 312.5 268.75 l 1
 312.5 -137.5 l 1
 281.25 -137.5 l 1
 250 -137.5 l 1
 250 112.5 l 1
 250 362.5 l 1
 156.25 362.5 l 1
 62.5 362.5 l 1
 62.5 393.75 l 1
 62.5 425 l 1
 31.25 425 l 1
 0 425 l 1
 0 550 l 1
 0 675 l 1
 31.25 675 l 1
 62.5 675 l 1
 62.5 706.25 l 1
EndSplineSet
EndChar

StartChar: periodcentered
Encoding: 183 183 117
Width: 250
VWidth: 0
Flags: HW
LayerCount: 2
Back
Fore
SplineSet
62 425 m 5
 186 425 l 5
 186 301 l 5
 62 301 l 5
 62 425 l 5
EndSplineSet
EndChar

StartChar: cedilla
Encoding: 184 184 118
Width: 312
VWidth: 0
Flags: HW
LayerCount: 2
Back
Fore
SplineSet
249 -75 m 1
 187 -75 l 1
 187 -12 l 1
 249 -12 l 1
 249 -75 l 1
125 50 m 1
 187 50 l 1
 187 -12 l 1
 125 -12 l 1
 125 50 l 1
62.5 -106.25 m 1
 62.5 -75 l 1
 93.75 -75 l 1
 187 -75 l 1
 187 -137.5 l 1
 93.75 -137.5 l 1
 62.5 -137.5 l 1
 62.5 -106.25 l 1
EndSplineSet
EndChar

StartChar: uni00B9
Encoding: 185 185 119
Width: 250
VWidth: 0
Flags: HW
LayerCount: 2
Back
Fore
SplineSet
125 800 m 1
 186 800 l 1
 186 488 l 1
 125 488 l 1
 125 675 l 1
 62 675 l 1
 62 737 l 5
 125 737 l 1
 125 800 l 1
EndSplineSet
EndChar

StartChar: ordmasculine
Encoding: 186 186 120
Width: 375
VWidth: 0
Flags: HW
LayerCount: 2
Back
Fore
SplineSet
62.5 393.75 m 1
 62.5 425 l 1
 187.5 425 l 1
 312.5 425 l 1
 312.5 393.75 l 1
 312.5 362.5 l 1
 187.5 362.5 l 1
 62.5 362.5 l 1
 62.5 393.75 l 1
125 768.75 m 1
 125 800 l 1
 187.5 800 l 1
 250 800 l 1
 250 768.75 l 1
 250 737.5 l 1
 281.25 737.5 l 1
 312.5 737.5 l 1
 312.5 643.75 l 1
 312.5 550 l 1
 281.25 550 l 1
 250 550 l 1
 250 518.75 l 1
 250 487.5 l 1
 187.5 487.5 l 1
 125 487.5 l 1
 125 518.75 l 1
 125 550 l 1
 93.75 550 l 1
 62.5 550 l 1
 62.5 643.75 l 1
 62.5 737.5 l 1
 93.75 737.5 l 1
 125 737.5 l 1
 125 768.75 l 1
250 643.75 m 1
 250 737.5 l 1
 187.5 737.5 l 1
 125 737.5 l 1
 125 643.75 l 1
 125 550 l 1
 187.5 550 l 1
 250 550 l 1
 250 643.75 l 1
EndSplineSet
EndChar

StartChar: guillemotright
Encoding: 187 187 121
Width: 500
VWidth: 0
Flags: HW
LayerCount: 2
Back
Fore
SplineSet
250 518.75 m 1
 250 550 l 1
 281.25 550 l 1
 312.5 550 l 1
 312.5 518.75 l 1
 312.5 487.5 l 1
 343.75 487.5 l 1
 375 487.5 l 1
 375 425 l 1
 375 362.5 l 1
 406.25 362.5 l 1
 437.5 362.5 l 1
 437.5 331.25 l 1
 437.5 300 l 1
 406.25 300 l 1
 375 300 l 1
 375 237.5 l 1
 375 175 l 1
 343.75 175 l 1
 312.5 175 l 1
 312.5 143.75 l 1
 312.5 112.5 l 1
 281.25 112.5 l 1
 250 112.5 l 1
 250 143.75 l 1
 250 175 l 1
 281.25 175 l 1
 312.5 175 l 1
 312.5 237.5 l 1
 312.5 300 l 1
 343.75 300 l 1
 375 300 l 1
 375 331.25 l 1
 375 362.5 l 1
 343.75 362.5 l 1
 312.5 362.5 l 1
 312.5 425 l 1
 312.5 487.5 l 1
 281.25 487.5 l 1
 250 487.5 l 1
 250 518.75 l 1
62.5 518.75 m 1
 62.5 550 l 1
 93.75 550 l 1
 125 550 l 1
 125 518.75 l 1
 125 487.5 l 1
 156.25 487.5 l 1
 187.5 487.5 l 1
 187.5 425 l 1
 187.5 362.5 l 1
 218.75 362.5 l 1
 250 362.5 l 1
 250 331.25 l 1
 250 300 l 1
 218.75 300 l 1
 187.5 300 l 1
 187.5 237.5 l 1
 187.5 175 l 1
 156.25 175 l 1
 125 175 l 1
 125 143.75 l 1
 125 112.5 l 1
 93.75 112.5 l 1
 62.5 112.5 l 1
 62.5 143.75 l 1
 62.5 175 l 1
 93.75 175 l 1
 125 175 l 1
 125 237.5 l 1
 125 300 l 1
 156.25 300 l 1
 187.5 300 l 1
 187.5 331.25 l 1
 187.5 362.5 l 1
 156.25 362.5 l 1
 125 362.5 l 1
 125 425 l 1
 125 487.5 l 1
 93.75 487.5 l 1
 62.5 487.5 l 1
 62.5 518.75 l 1
EndSplineSet
EndChar

StartChar: onequarter
Encoding: 188 188 122
Width: 437
VWidth: 0
Flags: HW
LayerCount: 2
Back
Fore
SplineSet
250 706.25 m 1
 250 737.5 l 1
 281.25 737.5 l 1
 312.5 737.5 l 1
 312.5 675 l 1
 312.5 612.5 l 1
 281.25 612.5 l 1
 250 612.5 l 1
 250 550 l 1
 250 487.5 l 1
 218.75 487.5 l 1
 187.5 487.5 l 1
 187.5 393.75 l 1
 187.5 300 l 1
 218.75 300 l 1
 250 300 l 1
 250 268.75 l 1
 250 237.5 l 1
 281.25 237.5 l 1
 312.5 237.5 l 1
 312.5 268.75 l 1
 312.5 300 l 1
 343.75 300 l 1
 375 300 l 1
 375 175 l 1
 375 50 l 1
 343.75 50 l 1
 312.5 50 l 1
 312.5 112.5 l 1
 312.5 175 l 1
 250 175 l 1
 187.5 175 l 1
 187.5 237.5 l 1
 187.5 300 l 1
 156.25 300 l 1
 125 300 l 1
 125 237.5 l 1
 125 175 l 1
 93.75 175 l 1
 62.5 175 l 1
 62.5 112.5 l 1
 62.5 50 l 1
 31.25 50 l 1
 0 50 l 1
 0 112.5 l 1
 0 175 l 1
 31.25 175 l 1
 62.5 175 l 1
 62.5 237.5 l 1
 62.5 300 l 1
 93.75 300 l 1
 125 300 l 1
 125 393.75 l 1
 125 487.5 l 1
 156.25 487.5 l 1
 187.5 487.5 l 1
 187.5 581.25 l 1
 187.5 675 l 1
 218.75 675 l 1
 250 675 l 1
 250 706.25 l 1
62.5 768.75 m 1
 62.5 800 l 1
 93.75 800 l 1
 125 800 l 1
 125 675 l 1
 125 550 l 1
 93.75 550 l 1
 62.5 550 l 1
 62.5 612.5 l 1
 62.5 675 l 1
 31.25 675 l 1
 0 675 l 1
 0 706.25 l 1
 0 737.5 l 1
 31.25 737.5 l 1
 62.5 737.5 l 1
 62.5 768.75 l 1
EndSplineSet
EndChar

StartChar: onehalf
Encoding: 189 189 123
Width: 437
VWidth: 0
Flags: HW
LayerCount: 2
Back
Fore
SplineSet
250 706.25 m 1
 250 737.5 l 1
 281.25 737.5 l 1
 312.5 737.5 l 1
 312.5 675 l 1
 312.5 612.5 l 1
 281.25 612.5 l 1
 250 612.5 l 1
 250 550 l 1
 250 487.5 l 1
 218.75 487.5 l 1
 187.5 487.5 l 1
 187.5 393.75 l 1
 187.5 300 l 1
 281.25 300 l 1
 375 300 l 1
 375 237.5 l 1
 375 175 l 1
 343.75 175 l 1
 312.5 175 l 1
 312.5 143.75 l 1
 312.5 112.5 l 1
 343.75 112.5 l 1
 375 112.5 l 1
 375 81.25 l 1
 375 50 l 1
 281.25 50 l 1
 187.5 50 l 1
 187.5 81.25 l 1
 187.5 112.5 l 1
 218.75 112.5 l 1
 250 112.5 l 1
 250 143.75 l 1
 250 175 l 1
 281.25 175 l 1
 312.5 175 l 1
 312.5 206.25 l 1
 312.5 237.5 l 1
 250 237.5 l 1
 187.5 237.5 l 1
 187.5 268.75 l 1
 187.5 300 l 1
 156.25 300 l 1
 125 300 l 1
 125 237.5 l 1
 125 175 l 1
 93.75 175 l 1
 62.5 175 l 1
 62.5 112.5 l 1
 62.5 50 l 1
 31.25 50 l 1
 0 50 l 1
 0 112.5 l 1
 0 175 l 1
 31.25 175 l 1
 62.5 175 l 1
 62.5 237.5 l 1
 62.5 300 l 1
 93.75 300 l 1
 125 300 l 1
 125 393.75 l 1
 125 487.5 l 1
 156.25 487.5 l 1
 187.5 487.5 l 1
 187.5 581.25 l 1
 187.5 675 l 1
 218.75 675 l 1
 250 675 l 1
 250 706.25 l 1
62.5 768.75 m 1
 62.5 800 l 1
 93.75 800 l 1
 125 800 l 1
 125 675 l 1
 125 550 l 1
 93.75 550 l 1
 62.5 550 l 1
 62.5 612.5 l 1
 62.5 675 l 1
 31.25 675 l 1
 0 675 l 1
 0 706.25 l 1
 0 737.5 l 1
 31.25 737.5 l 1
 62.5 737.5 l 1
 62.5 768.75 l 1
EndSplineSet
EndChar

StartChar: threequarters
Encoding: 190 190 124
Width: 500
VWidth: 0
Flags: HW
LayerCount: 2
Back
Fore
SplineSet
312.5 706.25 m 1
 312.5 737.5 l 1
 343.75 737.5 l 1
 375 737.5 l 1
 375 675 l 1
 375 612.5 l 1
 343.75 612.5 l 1
 312.5 612.5 l 1
 312.5 550 l 1
 312.5 487.5 l 1
 281.25 487.5 l 1
 250 487.5 l 1
 250 393.75 l 1
 250 300 l 1
 281.25 300 l 1
 312.5 300 l 1
 312.5 268.75 l 1
 312.5 237.5 l 1
 343.75 237.5 l 1
 375 237.5 l 1
 375 268.75 l 1
 375 300 l 1
 406.25 300 l 1
 437.5 300 l 1
 437.5 175 l 1
 437.5 50 l 1
 406.25 50 l 1
 375 50 l 1
 375 112.5 l 1
 375 175 l 1
 312.5 175 l 1
 250 175 l 1
 250 237.5 l 1
 250 300 l 1
 218.75 300 l 1
 187.5 300 l 1
 187.5 237.5 l 1
 187.5 175 l 1
 156.25 175 l 1
 125 175 l 1
 125 112.5 l 1
 125 50 l 1
 93.75 50 l 1
 62.5 50 l 1
 62.5 112.5 l 1
 62.5 175 l 1
 93.75 175 l 1
 125 175 l 1
 125 237.5 l 1
 125 300 l 1
 156.25 300 l 1
 187.5 300 l 1
 187.5 393.75 l 1
 187.5 487.5 l 1
 218.75 487.5 l 1
 250 487.5 l 1
 250 581.25 l 1
 250 675 l 1
 281.25 675 l 1
 312.5 675 l 1
 312.5 706.25 l 1
0 768.75 m 1
 0 800 l 1
 93.75 800 l 1
 187.5 800 l 1
 187.5 768.75 l 1
 187.5 737.5 l 1
 156.25 737.5 l 1
 125 737.5 l 1
 125 706.25 l 1
 125 675 l 1
 156.25 675 l 1
 187.5 675 l 1
 187.5 612.5 l 1
 187.5 550 l 1
 93.75 550 l 1
 0 550 l 1
 0 581.25 l 1
 0 612.5 l 1
 62.5 612.5 l 1
 125 612.5 l 1
 125 643.75 l 1
 125 675 l 1
 93.75 675 l 1
 62.5 675 l 1
 62.5 706.25 l 1
 62.5 737.5 l 1
 31.25 737.5 l 1
 0 737.5 l 1
 0 768.75 l 1
EndSplineSet
EndChar

StartChar: questiondown
Encoding: 191 191 125
Width: 500
VWidth: 0
Flags: HW
LayerCount: 2
Back
Fore
SplineSet
250 331.25 m 1
 250 362.5 l 1
 281.25 362.5 l 1
 312.5 362.5 l 1
 312.5 300 l 1
 312.5 237.5 l 1
 250 237.5 l 1
 187.5 237.5 l 1
 187.5 206.25 l 1
 187.5 175 l 1
 156.25 175 l 1
 125 175 l 1
 125 81.25 l 1
 125 -12.5 l 1
 156.25 -12.5 l 1
 187.5 -12.5 l 1
 187.5 -43.75 l 1
 187.5 -75 l 1
 281.25 -75 l 1
 375 -75 l 1
 375 -12.5 l 1
 375 50 l 1
 406.25 50 l 1
 437.5 50 l 1
 437.5 -12.5 l 1
 437.5 -75 l 1
 406.25 -75 l 1
 375 -75 l 1
 375 -106.25 l 1
 375 -137.5 l 1
 281.25 -137.5 l 1
 187.5 -137.5 l 1
 187.5 -106.25 l 1
 187.5 -75 l 1
 156.25 -75 l 1
 125 -75 l 1
 125 -43.75 l 1
 125 -12.5 l 1
 93.75 -12.5 l 1
 62.5 -12.5 l 1
 62.5 81.25 l 1
 62.5 175 l 1
 93.75 175 l 1
 125 175 l 1
 125 206.25 l 1
 125 237.5 l 1
 156.25 237.5 l 1
 187.5 237.5 l 1
 187.5 268.75 l 1
 187.5 300 l 1
 218.75 300 l 1
 250 300 l 1
 250 331.25 l 1
250 487.5 m 1
 250 550 l 1
 281.25 550 l 1
 312.5 550 l 1
 312.5 487.5 l 1
 312.5 425 l 1
 281.25 425 l 1
 250 425 l 1
 250 487.5 l 1
EndSplineSet
EndChar

StartChar: Agrave
Encoding: 192 192 126
Width: 562
VWidth: 0
Flags: HW
LayerCount: 2
Back
Fore
SplineSet
187.5 706.25 m 1
 187.5 737.5 l 1
 312.5 737.5 l 1
 437.5 737.5 l 1
 437.5 706.25 l 1
 437.5 675 l 1
 468.75 675 l 1
 500 675 l 1
 500 643.75 l 1
 500 612.5 l 1
 531.25 612.5 l 1
 562.5 612.5 l 1
 562.5 331.25 l 1
 562.5 50 l 1
 531.25 50 l 1
 500 50 l 1
 500 175 l 1
 500 300 l 1
 437.5 300 l 1
 375 300 l 1
 375 331.25 l 1
 375 362.5 l 1
 437.5 362.5 l 1
 500 362.5 l 1
 500 487.5 l 1
 500 612.5 l 1
 468.75 612.5 l 1
 437.5 612.5 l 1
 437.5 643.75 l 1
 437.5 675 l 1
 312.5 675 l 1
 187.5 675 l 1
 187.5 643.75 l 1
 187.5 612.5 l 1
 156.25 612.5 l 1
 125 612.5 l 1
 125 487.5 l 1
 125 362.5 l 1
 187.5 362.5 l 1
 250 362.5 l 1
 250 331.25 l 1
 250 300 l 1
 187.5 300 l 1
 125 300 l 1
 125 175 l 1
 125 50 l 1
 93.75 50 l 1
 62.5 50 l 1
 62.5 331.25 l 1
 62.5 612.5 l 1
 93.75 612.5 l 1
 125 612.5 l 1
 125 643.75 l 1
 125 675 l 1
 156.25 675 l 1
 187.5 675 l 1
 187.5 706.25 l 1
250 893.75 m 1
 250 925 l 1
 281.25 925 l 1
 312.5 925 l 1
 312.5 893.75 l 1
 312.5 862.5 l 1
 343.75 862.5 l 1
 375 862.5 l 1
 375 831.25 l 1
 375 800 l 1
 343.75 800 l 1
 312.5 800 l 1
 312.5 831.25 l 1
 312.5 862.5 l 1
 281.25 862.5 l 1
 250 862.5 l 1
 250 893.75 l 1
EndSplineSet
EndChar

StartChar: Aacute
Encoding: 193 193 127
Width: 625
VWidth: 0
Flags: HW
LayerCount: 2
Back
Fore
SplineSet
187.5 706.25 m 1
 187.5 737.5 l 1
 312.5 737.5 l 1
 437.5 737.5 l 1
 437.5 706.25 l 1
 437.5 675 l 1
 468.75 675 l 1
 500 675 l 1
 500 643.75 l 1
 500 612.5 l 1
 531.25 612.5 l 1
 562.5 612.5 l 1
 562.5 331.25 l 1
 562.5 50 l 1
 531.25 50 l 1
 500 50 l 1
 500 175 l 1
 500 300 l 1
 437.5 300 l 1
 375 300 l 1
 375 331.25 l 1
 375 362.5 l 1
 437.5 362.5 l 1
 500 362.5 l 1
 500 487.5 l 1
 500 612.5 l 1
 468.75 612.5 l 1
 437.5 612.5 l 1
 437.5 643.75 l 1
 437.5 675 l 1
 312.5 675 l 1
 187.5 675 l 1
 187.5 643.75 l 1
 187.5 612.5 l 1
 156.25 612.5 l 1
 125 612.5 l 1
 125 487.5 l 1
 125 362.5 l 1
 187.5 362.5 l 1
 250 362.5 l 1
 250 331.25 l 1
 250 300 l 1
 187.5 300 l 1
 125 300 l 1
 125 175 l 1
 125 50 l 1
 93.75 50 l 1
 62.5 50 l 1
 62.5 331.25 l 1
 62.5 612.5 l 1
 93.75 612.5 l 1
 125 612.5 l 1
 125 643.75 l 1
 125 675 l 1
 156.25 675 l 1
 187.5 675 l 1
 187.5 706.25 l 1
312.5 893.75 m 1
 312.5 925 l 1
 343.75 925 l 1
 375 925 l 1
 375 893.75 l 1
 375 862.5 l 1
 343.75 862.5 l 1
 312.5 862.5 l 1
 312.5 831.25 l 1
 312.5 800 l 1
 281.25 800 l 1
 250 800 l 1
 250 831.25 l 1
 250 862.5 l 1
 281.25 862.5 l 1
 312.5 862.5 l 1
 312.5 893.75 l 1
EndSplineSet
EndChar

StartChar: Acircumflex
Encoding: 194 194 128
Width: 625
VWidth: 0
Flags: HW
LayerCount: 2
Back
Fore
SplineSet
187.5 706.25 m 1
 187.5 737.5 l 1
 312.5 737.5 l 1
 437.5 737.5 l 1
 437.5 706.25 l 1
 437.5 675 l 1
 468.75 675 l 1
 500 675 l 1
 500 643.75 l 1
 500 612.5 l 1
 531.25 612.5 l 1
 562.5 612.5 l 1
 562.5 331.25 l 1
 562.5 50 l 1
 531.25 50 l 1
 500 50 l 1
 500 175 l 1
 500 300 l 1
 437.5 300 l 1
 375 300 l 1
 375 331.25 l 1
 375 362.5 l 1
 437.5 362.5 l 1
 500 362.5 l 1
 500 487.5 l 1
 500 612.5 l 1
 468.75 612.5 l 1
 437.5 612.5 l 1
 437.5 643.75 l 1
 437.5 675 l 1
 312.5 675 l 1
 187.5 675 l 1
 187.5 643.75 l 1
 187.5 612.5 l 1
 156.25 612.5 l 1
 125 612.5 l 1
 125 487.5 l 1
 125 362.5 l 1
 187.5 362.5 l 1
 250 362.5 l 1
 250 331.25 l 1
 250 300 l 1
 187.5 300 l 1
 125 300 l 1
 125 175 l 1
 125 50 l 1
 93.75 50 l 1
 62.5 50 l 1
 62.5 331.25 l 1
 62.5 612.5 l 1
 93.75 612.5 l 1
 125 612.5 l 1
 125 643.75 l 1
 125 675 l 1
 156.25 675 l 1
 187.5 675 l 1
 187.5 706.25 l 1
250 893.75 m 1
 250 925 l 1
 312.5 925 l 1
 375 925 l 1
 375 893.75 l 1
 375 862.5 l 1
 406.25 862.5 l 1
 437.5 862.5 l 1
 437.5 831.25 l 1
 437.5 800 l 1
 406.25 800 l 1
 375 800 l 1
 375 831.25 l 1
 375 862.5 l 1
 312.5 862.5 l 1
 250 862.5 l 1
 250 831.25 l 1
 250 800 l 1
 218.75 800 l 1
 187.5 800 l 1
 187.5 831.25 l 1
 187.5 862.5 l 1
 218.75 862.5 l 1
 250 862.5 l 1
 250 893.75 l 1
EndSplineSet
EndChar

StartChar: Atilde
Encoding: 195 195 129
Width: 625
VWidth: 0
Flags: HW
LayerCount: 2
Back
Fore
SplineSet
187.5 706.25 m 1
 187.5 737.5 l 1
 312.5 737.5 l 1
 437.5 737.5 l 1
 437.5 706.25 l 1
 437.5 675 l 1
 468.75 675 l 1
 500 675 l 1
 500 643.75 l 1
 500 612.5 l 1
 531.25 612.5 l 1
 562.5 612.5 l 1
 562.5 331.25 l 1
 562.5 50 l 1
 531.25 50 l 1
 500 50 l 1
 500 175 l 1
 500 300 l 1
 437.5 300 l 1
 375 300 l 1
 375 331.25 l 1
 375 362.5 l 1
 437.5 362.5 l 1
 500 362.5 l 1
 500 487.5 l 1
 500 612.5 l 1
 468.75 612.5 l 1
 437.5 612.5 l 1
 437.5 643.75 l 1
 437.5 675 l 1
 312.5 675 l 1
 187.5 675 l 1
 187.5 643.75 l 1
 187.5 612.5 l 1
 156.25 612.5 l 1
 125 612.5 l 1
 125 487.5 l 1
 125 362.5 l 1
 187.5 362.5 l 1
 250 362.5 l 1
 250 331.25 l 1
 250 300 l 1
 187.5 300 l 1
 125 300 l 1
 125 175 l 1
 125 50 l 1
 93.75 50 l 1
 62.5 50 l 1
 62.5 331.25 l 1
 62.5 612.5 l 1
 93.75 612.5 l 1
 125 612.5 l 1
 125 643.75 l 1
 125 675 l 1
 156.25 675 l 1
 187.5 675 l 1
 187.5 706.25 l 1
187.5 893.75 m 1
 187.5 925 l 1
 250 925 l 1
 312.5 925 l 1
 312.5 893.75 l 1
 312.5 862.5 l 1
 375 862.5 l 1
 437.5 862.5 l 1
 437.5 893.75 l 1
 437.5 925 l 1
 468.75 925 l 1
 500 925 l 1
 500 893.75 l 1
 500 862.5 l 1
 468.75 862.5 l 1
 437.5 862.5 l 1
 437.5 831.25 l 1
 437.5 800 l 1
 375 800 l 1
 312.5 800 l 1
 312.5 831.25 l 1
 312.5 862.5 l 1
 250 862.5 l 1
 187.5 862.5 l 1
 187.5 831.25 l 1
 187.5 800 l 1
 156.25 800 l 1
 125 800 l 1
 125 831.25 l 1
 125 862.5 l 1
 156.25 862.5 l 1
 187.5 862.5 l 1
 187.5 893.75 l 1
EndSplineSet
EndChar

StartChar: Adieresis
Encoding: 196 196 130
Width: 625
VWidth: 0
Flags: HW
LayerCount: 2
Back
Fore
SplineSet
187.5 706.25 m 1
 187.5 737.5 l 1
 312.5 737.5 l 1
 437.5 737.5 l 1
 437.5 706.25 l 1
 437.5 675 l 1
 468.75 675 l 1
 500 675 l 1
 500 643.75 l 1
 500 612.5 l 1
 531.25 612.5 l 1
 562.5 612.5 l 1
 562.5 331.25 l 1
 562.5 50 l 1
 531.25 50 l 1
 500 50 l 1
 500 175 l 1
 500 300 l 1
 437.5 300 l 1
 375 300 l 1
 375 331.25 l 1
 375 362.5 l 1
 437.5 362.5 l 1
 500 362.5 l 1
 500 487.5 l 1
 500 612.5 l 1
 468.75 612.5 l 1
 437.5 612.5 l 1
 437.5 643.75 l 1
 437.5 675 l 1
 312.5 675 l 1
 187.5 675 l 1
 187.5 643.75 l 1
 187.5 612.5 l 1
 156.25 612.5 l 1
 125 612.5 l 1
 125 487.5 l 1
 125 362.5 l 1
 187.5 362.5 l 1
 250 362.5 l 1
 250 331.25 l 1
 250 300 l 1
 187.5 300 l 1
 125 300 l 1
 125 175 l 1
 125 50 l 1
 93.75 50 l 1
 62.5 50 l 1
 62.5 331.25 l 1
 62.5 612.5 l 1
 93.75 612.5 l 1
 125 612.5 l 1
 125 643.75 l 1
 125 675 l 1
 156.25 675 l 1
 187.5 675 l 1
 187.5 706.25 l 1
375 862.5 m 1
 375 925 l 1
 406.25 925 l 1
 437.5 925 l 1
 437.5 862.5 l 1
 437.5 800 l 1
 406.25 800 l 1
 375 800 l 1
 375 862.5 l 1
187.5 862.5 m 1
 187.5 925 l 1
 218.75 925 l 1
 250 925 l 1
 250 862.5 l 1
 250 800 l 1
 218.75 800 l 1
 187.5 800 l 1
 187.5 862.5 l 1
EndSplineSet
EndChar

StartChar: Aring
Encoding: 197 197 131
Width: 625
VWidth: 0
Flags: HW
LayerCount: 2
Back
Fore
SplineSet
187.5 706.25 m 1
 187.5 737.5 l 1
 312.5 737.5 l 1
 437.5 737.5 l 1
 437.5 706.25 l 1
 437.5 675 l 1
 468.75 675 l 1
 500 675 l 1
 500 643.75 l 1
 500 612.5 l 1
 531.25 612.5 l 1
 562.5 612.5 l 1
 562.5 331.25 l 1
 562.5 50 l 1
 531.25 50 l 1
 500 50 l 1
 500 175 l 1
 500 300 l 1
 437.5 300 l 1
 375 300 l 1
 375 331.25 l 1
 375 362.5 l 1
 437.5 362.5 l 1
 500 362.5 l 1
 500 487.5 l 1
 500 612.5 l 1
 468.75 612.5 l 1
 437.5 612.5 l 1
 437.5 643.75 l 1
 437.5 675 l 1
 312.5 675 l 1
 187.5 675 l 1
 187.5 643.75 l 1
 187.5 612.5 l 1
 156.25 612.5 l 1
 125 612.5 l 1
 125 487.5 l 1
 125 362.5 l 1
 187.5 362.5 l 1
 250 362.5 l 1
 250 331.25 l 1
 250 300 l 1
 187.5 300 l 1
 125 300 l 1
 125 175 l 1
 125 50 l 1
 93.75 50 l 1
 62.5 50 l 1
 62.5 331.25 l 1
 62.5 612.5 l 1
 93.75 612.5 l 1
 125 612.5 l 1
 125 643.75 l 1
 125 675 l 1
 156.25 675 l 1
 187.5 675 l 1
 187.5 706.25 l 1
250 956.25 m 1
 250 987.5 l 1
 312.5 987.5 l 1
 375 987.5 l 1
 375 956.25 l 1
 375 925 l 1
 406.25 925 l 1
 437.5 925 l 1
 437.5 893.75 l 1
 437.5 862.5 l 1
 406.25 862.5 l 1
 375 862.5 l 1
 375 831.25 l 1
 375 800 l 1
 312.5 800 l 1
 250 800 l 1
 250 831.25 l 1
 250 862.5 l 1
 218.75 862.5 l 1
 187.5 862.5 l 1
 187.5 893.75 l 1
 187.5 925 l 1
 218.75 925 l 1
 250 925 l 1
 250 956.25 l 1
375 893.75 m 1
 375 925 l 1
 312.5 925 l 1
 250 925 l 1
 250 893.75 l 1
 250 862.5 l 1
 312.5 862.5 l 1
 375 862.5 l 1
 375 893.75 l 1
EndSplineSet
EndChar

StartChar: AE
Encoding: 198 198 132
Width: 750
VWidth: 0
Flags: HW
LayerCount: 2
Back
Fore
SplineSet
250 706.25 m 1
 250 737.5 l 1
 468.75 737.5 l 1
 687.5 737.5 l 1
 687.5 706.25 l 1
 687.5 675 l 1
 531.25 675 l 1
 375 675 l 1
 375 550 l 1
 375 425 l 1
 468.75 425 l 1
 562.5 425 l 1
 562.5 393.75 l 1
 562.5 362.5 l 1
 468.75 362.5 l 1
 375 362.5 l 1
 375 237.5 l 1
 375 112.5 l 1
 531.25 112.5 l 1
 687.5 112.5 l 1
 687.5 81.25 l 1
 687.5 50 l 1
 500 50 l 1
 312.5 50 l 1
 312.5 175 l 1
 312.5 300 l 1
 218.75 300 l 1
 125 300 l 1
 125 237.5 l 1
 125 175 l 1
 93.75 175 l 1
 62.5 175 l 1
 62.5 112.5 l 1
 62.5 50 l 1
 31.25 50 l 1
 0 50 l 1
 0 112.5 l 1
 0 175 l 1
 31.25 175 l 1
 62.5 175 l 1
 62.5 237.5 l 1
 62.5 300 l 1
 93.75 300 l 1
 125 300 l 1
 125 393.75 l 1
 125 487.5 l 1
 156.25 487.5 l 1
 187.5 487.5 l 1
 187.5 581.25 l 1
 187.5 675 l 1
 218.75 675 l 1
 250 675 l 1
 250 706.25 l 1
312.5 487.5 m 1
 312.5 612.5 l 1
 281.25 612.5 l 1
 250 612.5 l 1
 250 550 l 1
 250 487.5 l 1
 218.75 487.5 l 1
 187.5 487.5 l 1
 187.5 425 l 1
 187.5 362.5 l 1
 250 362.5 l 1
 312.5 362.5 l 1
 312.5 487.5 l 1
EndSplineSet
EndChar

StartChar: Ccedilla
Encoding: 199 199 133
Width: 562
VWidth: 0
Flags: HW
LayerCount: 2
Back
Fore
SplineSet
187.5 706.25 m 1
 187.5 737.5 l 1
 312.5 737.5 l 1
 437.5 737.5 l 1
 437.5 706.25 l 1
 437.5 675 l 1
 500 675 l 1
 562.5 675 l 1
 562.5 612.5 l 1
 562.5 550 l 1
 531.25 550 l 1
 500 550 l 1
 500 581.25 l 1
 500 612.5 l 1
 468.75 612.5 l 1
 437.5 612.5 l 1
 437.5 643.75 l 1
 437.5 675 l 1
 312.5 675 l 1
 187.5 675 l 1
 187.5 612.5 l 1
 187.5 550 l 1
 156.25 550 l 1
 125 550 l 1
 125 362.5 l 1
 125 175 l 1
 156.25 175 l 1
 187.5 175 l 1
 187.5 143.75 l 1
 187.5 112.5 l 1
 343.75 112.5 l 1
 500 112.5 l 1
 500 175 l 1
 500 237.5 l 1
 531.25 237.5 l 1
 562.5 237.5 l 1
 562.5 175 l 1
 562.5 112.5 l 1
 531.25 112.5 l 1
 500 112.5 l 1
 500 81.25 l 1
 500 50 l 1
 406.25 50 l 1
 312.5 50 l 1
 312.5 18.75 l 1
 312.5 -12.5 l 1
 343.75 -12.5 l 1
 375 -12.5 l 1
 375 -43.75 l 1
 375 -75 l 1
 343.75 -75 l 1
 312.5 -75 l 1
 312.5 -106.25 l 1
 312.5 -137.5 l 1
 250 -137.5 l 1
 187.5 -137.5 l 1
 187.5 -106.25 l 1
 187.5 -75 l 1
 250 -75 l 1
 312.5 -75 l 1
 312.5 -43.75 l 1
 312.5 -12.5 l 1
 281.25 -12.5 l 1
 250 -12.5 l 1
 250 18.75 l 1
 250 50 l 1
 187.5 50 l 1
 125 50 l 1
 125 112.5 l 1
 125 175 l 1
 93.75 175 l 1
 62.5 175 l 1
 62.5 393.75 l 1
 62.5 612.5 l 1
 93.75 612.5 l 1
 125 612.5 l 1
 125 643.75 l 1
 125 675 l 1
 156.25 675 l 1
 187.5 675 l 1
 187.5 706.25 l 1
EndSplineSet
EndChar

StartChar: Egrave
Encoding: 200 200 134
Width: 500
VWidth: 0
Flags: HW
LayerCount: 2
Back
Fore
SplineSet
62.5 393.75 m 1
 62.5 737.5 l 1
 281.25 737.5 l 1
 500 737.5 l 1
 500 706.25 l 1
 500 675 l 1
 312.5 675 l 1
 125 675 l 1
 125 550 l 1
 125 425 l 1
 281.25 425 l 1
 437.5 425 l 1
 437.5 393.75 l 1
 437.5 362.5 l 1
 281.25 362.5 l 1
 125 362.5 l 1
 125 237.5 l 1
 125 112.5 l 1
 312.5 112.5 l 1
 500 112.5 l 1
 500 81.25 l 1
 500 50 l 1
 281.25 50 l 1
 62.5 50 l 1
 62.5 393.75 l 1
187.5 893.75 m 1
 187.5 925 l 1
 218.75 925 l 1
 250 925 l 1
 250 893.75 l 1
 250 862.5 l 1
 281.25 862.5 l 1
 312.5 862.5 l 1
 312.5 831.25 l 1
 312.5 800 l 1
 281.25 800 l 1
 250 800 l 1
 250 831.25 l 1
 250 862.5 l 1
 218.75 862.5 l 1
 187.5 862.5 l 1
 187.5 893.75 l 1
EndSplineSet
EndChar

StartChar: Eacute
Encoding: 201 201 135
Width: 500
VWidth: 0
Flags: HW
LayerCount: 2
Back
Fore
SplineSet
62.5 393.75 m 1
 62.5 737.5 l 1
 281.25 737.5 l 1
 500 737.5 l 1
 500 706.25 l 1
 500 675 l 1
 312.5 675 l 1
 125 675 l 1
 125 550 l 1
 125 425 l 1
 281.25 425 l 1
 437.5 425 l 1
 437.5 393.75 l 1
 437.5 362.5 l 1
 281.25 362.5 l 1
 125 362.5 l 1
 125 237.5 l 1
 125 112.5 l 1
 312.5 112.5 l 1
 500 112.5 l 1
 500 81.25 l 1
 500 50 l 1
 281.25 50 l 1
 62.5 50 l 1
 62.5 393.75 l 1
250 893.75 m 1
 250 925 l 1
 281.25 925 l 1
 312.5 925 l 1
 312.5 893.75 l 1
 312.5 862.5 l 1
 281.25 862.5 l 1
 250 862.5 l 1
 250 831.25 l 1
 250 800 l 1
 218.75 800 l 1
 187.5 800 l 1
 187.5 831.25 l 1
 187.5 862.5 l 1
 218.75 862.5 l 1
 250 862.5 l 1
 250 893.75 l 1
EndSplineSet
EndChar

StartChar: Ecircumflex
Encoding: 202 202 136
Width: 500
VWidth: 0
Flags: HW
LayerCount: 2
Back
Fore
SplineSet
62.5 393.75 m 1
 62.5 737.5 l 1
 281.25 737.5 l 1
 500 737.5 l 1
 500 706.25 l 1
 500 675 l 1
 312.5 675 l 1
 125 675 l 1
 125 550 l 1
 125 425 l 1
 281.25 425 l 1
 437.5 425 l 1
 437.5 393.75 l 1
 437.5 362.5 l 1
 281.25 362.5 l 1
 125 362.5 l 1
 125 237.5 l 1
 125 112.5 l 1
 312.5 112.5 l 1
 500 112.5 l 1
 500 81.25 l 1
 500 50 l 1
 281.25 50 l 1
 62.5 50 l 1
 62.5 393.75 l 1
250 893.75 m 1
 250 925 l 1
 312.5 925 l 1
 375 925 l 1
 375 893.75 l 1
 375 862.5 l 1
 406.25 862.5 l 1
 437.5 862.5 l 1
 437.5 831.25 l 1
 437.5 800 l 1
 406.25 800 l 1
 375 800 l 1
 375 831.25 l 1
 375 862.5 l 1
 312.5 862.5 l 1
 250 862.5 l 1
 250 831.25 l 1
 250 800 l 1
 218.75 800 l 1
 187.5 800 l 1
 187.5 831.25 l 1
 187.5 862.5 l 1
 218.75 862.5 l 1
 250 862.5 l 1
 250 893.75 l 1
EndSplineSet
EndChar

StartChar: Edieresis
Encoding: 203 203 137
Width: 500
VWidth: 0
Flags: HW
LayerCount: 2
Back
Fore
SplineSet
62.5 393.75 m 1
 62.5 737.5 l 1
 281.25 737.5 l 1
 500 737.5 l 1
 500 706.25 l 1
 500 675 l 1
 312.5 675 l 1
 125 675 l 1
 125 550 l 1
 125 425 l 1
 281.25 425 l 1
 437.5 425 l 1
 437.5 393.75 l 1
 437.5 362.5 l 1
 281.25 362.5 l 1
 125 362.5 l 1
 125 237.5 l 1
 125 112.5 l 1
 312.5 112.5 l 1
 500 112.5 l 1
 500 81.25 l 1
 500 50 l 1
 281.25 50 l 1
 62.5 50 l 1
 62.5 393.75 l 1
375 862.5 m 1
 375 925 l 1
 406.25 925 l 1
 437.5 925 l 1
 437.5 862.5 l 1
 437.5 800 l 1
 406.25 800 l 1
 375 800 l 1
 375 862.5 l 1
187.5 862.5 m 1
 187.5 925 l 1
 218.75 925 l 1
 250 925 l 1
 250 862.5 l 1
 250 800 l 1
 218.75 800 l 1
 187.5 800 l 1
 187.5 862.5 l 1
EndSplineSet
EndChar

StartChar: Igrave
Encoding: 204 204 138
Width: 187
VWidth: 0
Flags: HW
LayerCount: 2
Back
Fore
SplineSet
0 925 m 1
 62 925 l 1
 62 862 l 1
 0 862 l 1
 0 925 l 1
62 862 m 1
 125 862 l 1
 125 800 l 1
 62 800 l 1
 62 862 l 1
64 736 m 1
 125 736 l 1
 125 50 l 1
 64 50 l 1
 64 736 l 1
EndSplineSet
EndChar

StartChar: Iacute
Encoding: 205 205 139
Width: 250
VWidth: 0
Flags: HW
LayerCount: 2
Back
Fore
SplineSet
62 737 m 5
 125 737 l 5
 125 50 l 1
 62 50 l 1
 62 737 l 5
62 800 m 1
 62 863 l 1
 124 863 l 1
 124 800 l 1
 62 800 l 1
187 925 m 1
 187 863 l 1
 124 863 l 1
 124 925 l 1
 187 925 l 1
EndSplineSet
EndChar

StartChar: Icircumflex
Encoding: 206 206 140
Width: 250
VWidth: 0
Flags: HW
LayerCount: 2
Back
Fore
SplineSet
125 393.75 m 1
 125 737.5 l 1
 156.25 737.5 l 1
 187.5 737.5 l 1
 187.5 393.75 l 1
 187.5 50 l 1
 156.25 50 l 1
 125 50 l 1
 125 393.75 l 1
125 893.75 m 1
 125 925 l 1
 187.5 925 l 1
 250 925 l 1
 250 893.75 l 1
 250 862.5 l 1
 281.25 862.5 l 1
 312.5 862.5 l 1
 312.5 831.25 l 1
 312.5 800 l 1
 281.25 800 l 1
 250 800 l 1
 250 831.25 l 1
 250 862.5 l 1
 187.5 862.5 l 1
 125 862.5 l 1
 125 831.25 l 1
 125 800 l 1
 93.75 800 l 1
 62.5 800 l 1
 62.5 831.25 l 1
 62.5 862.5 l 1
 93.75 862.5 l 1
 125 862.5 l 1
 125 893.75 l 1
EndSplineSet
EndChar

StartChar: Idieresis
Encoding: 207 207 141
Width: 250
VWidth: 0
Flags: HW
LayerCount: 2
Back
Fore
SplineSet
125 393.75 m 1
 125 737.5 l 1
 156.25 737.5 l 1
 187.5 737.5 l 1
 187.5 393.75 l 1
 187.5 50 l 1
 156.25 50 l 1
 125 50 l 1
 125 393.75 l 1
250 862.5 m 1
 250 925 l 1
 281.25 925 l 1
 312.5 925 l 1
 312.5 862.5 l 1
 312.5 800 l 1
 281.25 800 l 1
 250 800 l 1
 250 862.5 l 1
62.5 862.5 m 1
 62.5 925 l 1
 93.75 925 l 1
 125 925 l 1
 125 862.5 l 1
 125 800 l 1
 93.75 800 l 1
 62.5 800 l 1
 62.5 862.5 l 1
EndSplineSet
EndChar

StartChar: Eth
Encoding: 208 208 142
Width: 625
VWidth: 0
Flags: HW
LayerCount: 2
Back
Fore
SplineSet
62.5 581.25 m 1
 62.5 737.5 l 1
 218.75 737.5 l 1
 375 737.5 l 1
 375 706.25 l 1
 375 675 l 1
 437.5 675 l 1
 500 675 l 1
 500 393.75 l 1
 500 112.5 l 1
 468.75 112.5 l 1
 437.5 112.5 l 1
 437.5 81.25 l 1
 437.5 50 l 1
 250 50 l 1
 62.5 50 l 1
 62.5 206.25 l 1
 62.5 362.5 l 1
 31.25 362.5 l 1
 0 362.5 l 1
 0 393.75 l 1
 0 425 l 1
 31.25 425 l 1
 62.5 425 l 1
 62.5 581.25 l 1
375 643.75 m 1
 375 675 l 1
 250 675 l 1
 125 675 l 1
 125 550 l 1
 125 425 l 1
 218.75 425 l 1
 312.5 425 l 1
 312.5 393.75 l 1
 312.5 362.5 l 1
 218.75 362.5 l 1
 125 362.5 l 1
 125 237.5 l 1
 125 112.5 l 1
 281.25 112.5 l 1
 437.5 112.5 l 1
 437.5 362.5 l 1
 437.5 612.5 l 1
 406.25 612.5 l 1
 375 612.5 l 1
 375 643.75 l 1
EndSplineSet
EndChar

StartChar: Ntilde
Encoding: 209 209 143
Width: 562
VWidth: 0
Flags: HW
LayerCount: 2
Back
Fore
SplineSet
62.5 393.75 m 1
 62.5 737.5 l 1
 125 737.5 l 1
 187.5 737.5 l 1
 187.5 675 l 1
 187.5 612.5 l 1
 218.75 612.5 l 1
 250 612.5 l 1
 250 581.25 l 1
 250 550 l 1
 281.25 550 l 1
 312.5 550 l 1
 312.5 518.75 l 1
 312.5 487.5 l 1
 343.75 487.5 l 1
 375 487.5 l 1
 375 456.25 l 1
 375 425 l 1
 437.5 425 l 1
 500 425 l 1
 500 581.25 l 1
 500 737.5 l 1
 531.25 737.5 l 1
 562.5 737.5 l 1
 562.5 393.75 l 1
 562.5 50 l 1
 531.25 50 l 1
 500 50 l 1
 500 175 l 1
 500 300 l 1
 468.75 300 l 1
 437.5 300 l 1
 437.5 331.25 l 1
 437.5 362.5 l 1
 406.25 362.5 l 1
 375 362.5 l 1
 375 393.75 l 1
 375 425 l 1
 343.75 425 l 1
 312.5 425 l 1
 312.5 456.25 l 1
 312.5 487.5 l 1
 281.25 487.5 l 1
 250 487.5 l 1
 250 518.75 l 1
 250 550 l 1
 218.75 550 l 1
 187.5 550 l 1
 187.5 581.25 l 1
 187.5 612.5 l 1
 156.25 612.5 l 1
 125 612.5 l 1
 125 331.25 l 1
 125 50 l 1
 93.75 50 l 1
 62.5 50 l 1
 62.5 393.75 l 1
187.5 893.75 m 1
 187.5 925 l 1
 250 925 l 1
 312.5 925 l 1
 312.5 893.75 l 1
 312.5 862.5 l 1
 375 862.5 l 1
 437.5 862.5 l 1
 437.5 893.75 l 1
 437.5 925 l 1
 468.75 925 l 1
 500 925 l 1
 500 893.75 l 1
 500 862.5 l 1
 468.75 862.5 l 1
 437.5 862.5 l 1
 437.5 831.25 l 1
 437.5 800 l 1
 375 800 l 1
 312.5 800 l 1
 312.5 831.25 l 1
 312.5 862.5 l 1
 250 862.5 l 1
 187.5 862.5 l 1
 187.5 831.25 l 1
 187.5 800 l 1
 156.25 800 l 1
 125 800 l 1
 125 831.25 l 1
 125 862.5 l 1
 156.25 862.5 l 1
 187.5 862.5 l 1
 187.5 893.75 l 1
EndSplineSet
EndChar

StartChar: Ograve
Encoding: 210 210 144
Width: 625
VWidth: 0
Flags: HW
LayerCount: 2
Back
Fore
SplineSet
187.5 706.25 m 1
 187.5 737.5 l 1
 343.75 737.5 l 1
 500 737.5 l 1
 500 706.25 l 1
 500 675 l 1
 531.25 675 l 1
 562.5 675 l 1
 562.5 643.75 l 1
 562.5 612.5 l 1
 593.75 612.5 l 1
 625 612.5 l 1
 625 393.75 l 1
 625 175 l 1
 593.75 175 l 1
 562.5 175 l 1
 562.5 143.75 l 1
 562.5 112.5 l 1
 531.25 112.5 l 1
 500 112.5 l 1
 500 81.25 l 1
 500 50 l 1
 343.75 50 l 1
 187.5 50 l 1
 187.5 81.25 l 1
 187.5 112.5 l 1
 156.25 112.5 l 1
 125 112.5 l 1
 125 143.75 l 1
 125 175 l 1
 93.75 175 l 1
 62.5 175 l 1
 62.5 393.75 l 1
 62.5 612.5 l 1
 93.75 612.5 l 1
 125 612.5 l 1
 125 643.75 l 1
 125 675 l 1
 156.25 675 l 1
 187.5 675 l 1
 187.5 706.25 l 1
500 643.75 m 1
 500 675 l 1
 343.75 675 l 1
 187.5 675 l 1
 187.5 643.75 l 1
 187.5 612.5 l 1
 156.25 612.5 l 1
 125 612.5 l 1
 125 393.75 l 1
 125 175 l 1
 156.25 175 l 1
 187.5 175 l 1
 187.5 143.75 l 1
 187.5 112.5 l 1
 343.75 112.5 l 1
 500 112.5 l 1
 500 143.75 l 1
 500 175 l 1
 531.25 175 l 1
 562.5 175 l 1
 562.5 393.75 l 1
 562.5 612.5 l 1
 531.25 612.5 l 1
 500 612.5 l 1
 500 643.75 l 1
250 893.75 m 1
 250 925 l 1
 281.25 925 l 1
 312.5 925 l 1
 312.5 893.75 l 1
 312.5 862.5 l 1
 343.75 862.5 l 1
 375 862.5 l 1
 375 831.25 l 1
 375 800 l 1
 343.75 800 l 1
 312.5 800 l 1
 312.5 831.25 l 1
 312.5 862.5 l 1
 281.25 862.5 l 1
 250 862.5 l 1
 250 893.75 l 1
EndSplineSet
EndChar

StartChar: Oacute
Encoding: 211 211 145
Width: 625
VWidth: 0
Flags: HW
LayerCount: 2
Back
Fore
SplineSet
187.5 706.25 m 1
 187.5 737.5 l 1
 343.75 737.5 l 1
 500 737.5 l 1
 500 706.25 l 1
 500 675 l 1
 531.25 675 l 1
 562.5 675 l 1
 562.5 643.75 l 1
 562.5 612.5 l 1
 593.75 612.5 l 1
 625 612.5 l 1
 625 393.75 l 1
 625 175 l 1
 593.75 175 l 1
 562.5 175 l 1
 562.5 143.75 l 1
 562.5 112.5 l 1
 531.25 112.5 l 1
 500 112.5 l 1
 500 81.25 l 1
 500 50 l 1
 343.75 50 l 1
 187.5 50 l 1
 187.5 81.25 l 1
 187.5 112.5 l 1
 156.25 112.5 l 1
 125 112.5 l 1
 125 143.75 l 1
 125 175 l 1
 93.75 175 l 1
 62.5 175 l 1
 62.5 393.75 l 1
 62.5 612.5 l 1
 93.75 612.5 l 1
 125 612.5 l 1
 125 643.75 l 1
 125 675 l 1
 156.25 675 l 1
 187.5 675 l 1
 187.5 706.25 l 1
500 643.75 m 1
 500 675 l 1
 343.75 675 l 1
 187.5 675 l 1
 187.5 643.75 l 1
 187.5 612.5 l 1
 156.25 612.5 l 1
 125 612.5 l 1
 125 393.75 l 1
 125 175 l 1
 156.25 175 l 1
 187.5 175 l 1
 187.5 143.75 l 1
 187.5 112.5 l 1
 343.75 112.5 l 1
 500 112.5 l 1
 500 143.75 l 1
 500 175 l 1
 531.25 175 l 1
 562.5 175 l 1
 562.5 393.75 l 1
 562.5 612.5 l 1
 531.25 612.5 l 1
 500 612.5 l 1
 500 643.75 l 1
375 893.75 m 1
 375 925 l 1
 406.25 925 l 1
 437.5 925 l 1
 437.5 893.75 l 1
 437.5 862.5 l 1
 406.25 862.5 l 1
 375 862.5 l 1
 375 831.25 l 1
 375 800 l 1
 343.75 800 l 1
 312.5 800 l 1
 312.5 831.25 l 1
 312.5 862.5 l 1
 343.75 862.5 l 1
 375 862.5 l 1
 375 893.75 l 1
EndSplineSet
EndChar

StartChar: Ocircumflex
Encoding: 212 212 146
Width: 625
VWidth: 0
Flags: HW
LayerCount: 2
Back
Fore
SplineSet
187.5 706.25 m 1
 187.5 737.5 l 1
 343.75 737.5 l 1
 500 737.5 l 1
 500 706.25 l 1
 500 675 l 1
 531.25 675 l 1
 562.5 675 l 1
 562.5 643.75 l 1
 562.5 612.5 l 1
 593.75 612.5 l 1
 625 612.5 l 1
 625 393.75 l 1
 625 175 l 1
 593.75 175 l 1
 562.5 175 l 1
 562.5 143.75 l 1
 562.5 112.5 l 1
 531.25 112.5 l 1
 500 112.5 l 1
 500 81.25 l 1
 500 50 l 1
 343.75 50 l 1
 187.5 50 l 1
 187.5 81.25 l 1
 187.5 112.5 l 1
 156.25 112.5 l 1
 125 112.5 l 1
 125 143.75 l 1
 125 175 l 1
 93.75 175 l 1
 62.5 175 l 1
 62.5 393.75 l 1
 62.5 612.5 l 1
 93.75 612.5 l 1
 125 612.5 l 1
 125 643.75 l 1
 125 675 l 1
 156.25 675 l 1
 187.5 675 l 1
 187.5 706.25 l 1
500 643.75 m 1
 500 675 l 1
 343.75 675 l 1
 187.5 675 l 1
 187.5 643.75 l 1
 187.5 612.5 l 1
 156.25 612.5 l 1
 125 612.5 l 1
 125 393.75 l 1
 125 175 l 1
 156.25 175 l 1
 187.5 175 l 1
 187.5 143.75 l 1
 187.5 112.5 l 1
 343.75 112.5 l 1
 500 112.5 l 1
 500 143.75 l 1
 500 175 l 1
 531.25 175 l 1
 562.5 175 l 1
 562.5 393.75 l 1
 562.5 612.5 l 1
 531.25 612.5 l 1
 500 612.5 l 1
 500 643.75 l 1
312.5 893.75 m 1
 312.5 925 l 1
 375 925 l 1
 437.5 925 l 1
 437.5 893.75 l 1
 437.5 862.5 l 1
 468.75 862.5 l 1
 500 862.5 l 1
 500 831.25 l 1
 500 800 l 1
 468.75 800 l 1
 437.5 800 l 1
 437.5 831.25 l 1
 437.5 862.5 l 1
 375 862.5 l 1
 312.5 862.5 l 1
 312.5 831.25 l 1
 312.5 800 l 1
 281.25 800 l 1
 250 800 l 1
 250 831.25 l 1
 250 862.5 l 1
 281.25 862.5 l 1
 312.5 862.5 l 1
 312.5 893.75 l 1
EndSplineSet
EndChar

StartChar: Otilde
Encoding: 213 213 147
Width: 625
VWidth: 0
Flags: HW
LayerCount: 2
Back
Fore
SplineSet
187.5 706.25 m 1
 187.5 737.5 l 1
 343.75 737.5 l 1
 500 737.5 l 1
 500 706.25 l 1
 500 675 l 1
 531.25 675 l 1
 562.5 675 l 1
 562.5 643.75 l 1
 562.5 612.5 l 1
 593.75 612.5 l 1
 625 612.5 l 1
 625 393.75 l 1
 625 175 l 1
 593.75 175 l 1
 562.5 175 l 1
 562.5 143.75 l 1
 562.5 112.5 l 1
 531.25 112.5 l 1
 500 112.5 l 1
 500 81.25 l 1
 500 50 l 1
 343.75 50 l 1
 187.5 50 l 1
 187.5 81.25 l 1
 187.5 112.5 l 1
 156.25 112.5 l 1
 125 112.5 l 1
 125 143.75 l 1
 125 175 l 1
 93.75 175 l 1
 62.5 175 l 1
 62.5 393.75 l 1
 62.5 612.5 l 1
 93.75 612.5 l 1
 125 612.5 l 1
 125 643.75 l 1
 125 675 l 1
 156.25 675 l 1
 187.5 675 l 1
 187.5 706.25 l 1
500 643.75 m 1
 500 675 l 1
 343.75 675 l 1
 187.5 675 l 1
 187.5 643.75 l 1
 187.5 612.5 l 1
 156.25 612.5 l 1
 125 612.5 l 1
 125 393.75 l 1
 125 175 l 1
 156.25 175 l 1
 187.5 175 l 1
 187.5 143.75 l 1
 187.5 112.5 l 1
 343.75 112.5 l 1
 500 112.5 l 1
 500 143.75 l 1
 500 175 l 1
 531.25 175 l 1
 562.5 175 l 1
 562.5 393.75 l 1
 562.5 612.5 l 1
 531.25 612.5 l 1
 500 612.5 l 1
 500 643.75 l 1
250 893.75 m 1
 250 925 l 1
 312.5 925 l 1
 375 925 l 1
 375 893.75 l 1
 375 862.5 l 1
 437.5 862.5 l 1
 500 862.5 l 1
 500 893.75 l 1
 500 925 l 1
 531.25 925 l 1
 562.5 925 l 1
 562.5 893.75 l 1
 562.5 862.5 l 1
 531.25 862.5 l 1
 500 862.5 l 1
 500 831.25 l 1
 500 800 l 1
 437.5 800 l 1
 375 800 l 1
 375 831.25 l 1
 375 862.5 l 1
 312.5 862.5 l 1
 250 862.5 l 1
 250 831.25 l 1
 250 800 l 1
 218.75 800 l 1
 187.5 800 l 1
 187.5 831.25 l 1
 187.5 862.5 l 1
 218.75 862.5 l 1
 250 862.5 l 1
 250 893.75 l 1
EndSplineSet
EndChar

StartChar: Odieresis
Encoding: 214 214 148
Width: 625
VWidth: 0
Flags: HW
LayerCount: 2
Back
Fore
SplineSet
187.5 706.25 m 1
 187.5 737.5 l 1
 343.75 737.5 l 1
 500 737.5 l 1
 500 706.25 l 1
 500 675 l 1
 531.25 675 l 1
 562.5 675 l 1
 562.5 643.75 l 1
 562.5 612.5 l 1
 593.75 612.5 l 1
 625 612.5 l 1
 625 393.75 l 1
 625 175 l 1
 593.75 175 l 1
 562.5 175 l 1
 562.5 143.75 l 1
 562.5 112.5 l 1
 531.25 112.5 l 1
 500 112.5 l 1
 500 81.25 l 1
 500 50 l 1
 343.75 50 l 1
 187.5 50 l 1
 187.5 81.25 l 1
 187.5 112.5 l 1
 156.25 112.5 l 1
 125 112.5 l 1
 125 143.75 l 1
 125 175 l 1
 93.75 175 l 1
 62.5 175 l 1
 62.5 393.75 l 1
 62.5 612.5 l 1
 93.75 612.5 l 1
 125 612.5 l 1
 125 643.75 l 1
 125 675 l 1
 156.25 675 l 1
 187.5 675 l 1
 187.5 706.25 l 1
500 643.75 m 1
 500 675 l 1
 343.75 675 l 1
 187.5 675 l 1
 187.5 643.75 l 1
 187.5 612.5 l 1
 156.25 612.5 l 1
 125 612.5 l 1
 125 393.75 l 1
 125 175 l 1
 156.25 175 l 1
 187.5 175 l 1
 187.5 143.75 l 1
 187.5 112.5 l 1
 343.75 112.5 l 1
 500 112.5 l 1
 500 143.75 l 1
 500 175 l 1
 531.25 175 l 1
 562.5 175 l 1
 562.5 393.75 l 1
 562.5 612.5 l 1
 531.25 612.5 l 1
 500 612.5 l 1
 500 643.75 l 1
437.5 862.5 m 1
 437.5 925 l 1
 468.75 925 l 1
 500 925 l 1
 500 862.5 l 1
 500 800 l 1
 468.75 800 l 1
 437.5 800 l 1
 437.5 862.5 l 1
250 862.5 m 1
 250 925 l 1
 281.25 925 l 1
 312.5 925 l 1
 312.5 862.5 l 1
 312.5 800 l 1
 281.25 800 l 1
 250 800 l 1
 250 862.5 l 1
EndSplineSet
EndChar

StartChar: multiply
Encoding: 215 215 149
Width: 500
VWidth: 0
Flags: HW
LayerCount: 2
Back
Fore
SplineSet
62.5 518.75 m 1
 62.5 550 l 1
 93.75 550 l 1
 125 550 l 1
 125 518.75 l 1
 125 487.5 l 1
 156.25 487.5 l 1
 187.5 487.5 l 1
 187.5 456.25 l 1
 187.5 425 l 1
 218.75 425 l 1
 250 425 l 1
 250 456.25 l 1
 250 487.5 l 1
 281.25 487.5 l 1
 312.5 487.5 l 1
 312.5 518.75 l 1
 312.5 550 l 1
 343.75 550 l 1
 375 550 l 1
 375 518.75 l 1
 375 487.5 l 1
 343.75 487.5 l 1
 312.5 487.5 l 1
 312.5 456.25 l 1
 312.5 425 l 1
 281.25 425 l 1
 250 425 l 1
 250 393.75 l 1
 250 362.5 l 1
 281.25 362.5 l 1
 312.5 362.5 l 1
 312.5 331.25 l 1
 312.5 300 l 1
 343.75 300 l 1
 375 300 l 1
 375 268.75 l 1
 375 237.5 l 1
 343.75 237.5 l 1
 312.5 237.5 l 1
 312.5 268.75 l 1
 312.5 300 l 1
 281.25 300 l 1
 250 300 l 1
 250 331.25 l 1
 250 362.5 l 1
 218.75 362.5 l 1
 187.5 362.5 l 1
 187.5 331.25 l 1
 187.5 300 l 1
 156.25 300 l 1
 125 300 l 1
 125 268.75 l 1
 125 237.5 l 1
 93.75 237.5 l 1
 62.5 237.5 l 1
 62.5 268.75 l 1
 62.5 300 l 1
 93.75 300 l 1
 125 300 l 1
 125 331.25 l 1
 125 362.5 l 1
 156.25 362.5 l 1
 187.5 362.5 l 1
 187.5 393.75 l 1
 187.5 425 l 1
 156.25 425 l 1
 125 425 l 1
 125 456.25 l 1
 125 487.5 l 1
 93.75 487.5 l 1
 62.5 487.5 l 1
 62.5 518.75 l 1
EndSplineSet
EndChar

StartChar: Oslash
Encoding: 216 216 150
Width: 687
VWidth: 0
Flags: HW
LayerCount: 2
Back
Fore
SplineSet
437.5 581.25 m 1
 437.5 612.5 l 1
 468.75 612.5 l 1
 500 612.5 l 1
 500 581.25 l 1
 500 550 l 1
 468.75 550 l 1
 437.5 550 l 1
 437.5 487.5 l 1
 437.5 425 l 1
 406.25 425 l 1
 375 425 l 1
 375 393.75 l 1
 375 362.5 l 1
 343.75 362.5 l 1
 312.5 362.5 l 1
 312.5 300 l 1
 312.5 237.5 l 1
 281.25 237.5 l 1
 250 237.5 l 1
 250 206.25 l 1
 250 175 l 1
 218.75 175 l 1
 187.5 175 l 1
 187.5 206.25 l 1
 187.5 237.5 l 1
 218.75 237.5 l 1
 250 237.5 l 1
 250 300 l 1
 250 362.5 l 1
 281.25 362.5 l 1
 312.5 362.5 l 1
 312.5 393.75 l 1
 312.5 425 l 1
 343.75 425 l 1
 375 425 l 1
 375 487.5 l 1
 375 550 l 1
 406.25 550 l 1
 437.5 550 l 1
 437.5 581.25 l 1
187.5 706.25 m 1
 187.5 737.5 l 1
 343.75 737.5 l 1
 500 737.5 l 1
 500 706.25 l 1
 500 675 l 1
 531.25 675 l 1
 562.5 675 l 1
 562.5 706.25 l 1
 562.5 737.5 l 1
 593.75 737.5 l 1
 625 737.5 l 1
 625 706.25 l 1
 625 675 l 1
 593.75 675 l 1
 562.5 675 l 1
 562.5 643.75 l 1
 562.5 612.5 l 1
 593.75 612.5 l 1
 625 612.5 l 1
 625 393.75 l 1
 625 175 l 1
 593.75 175 l 1
 562.5 175 l 1
 562.5 143.75 l 1
 562.5 112.5 l 1
 531.25 112.5 l 1
 500 112.5 l 1
 500 81.25 l 1
 500 50 l 1
 343.75 50 l 1
 187.5 50 l 1
 187.5 81.25 l 1
 187.5 112.5 l 1
 156.25 112.5 l 1
 125 112.5 l 1
 125 81.25 l 1
 125 50 l 1
 93.75 50 l 1
 62.5 50 l 1
 62.5 81.25 l 1
 62.5 112.5 l 1
 93.75 112.5 l 1
 125 112.5 l 1
 125 143.75 l 1
 125 175 l 1
 93.75 175 l 1
 62.5 175 l 1
 62.5 393.75 l 1
 62.5 612.5 l 1
 93.75 612.5 l 1
 125 612.5 l 1
 125 643.75 l 1
 125 675 l 1
 156.25 675 l 1
 187.5 675 l 1
 187.5 706.25 l 1
500 643.75 m 1
 500 675 l 1
 343.75 675 l 1
 187.5 675 l 1
 187.5 643.75 l 1
 187.5 612.5 l 1
 156.25 612.5 l 1
 125 612.5 l 1
 125 393.75 l 1
 125 175 l 1
 156.25 175 l 1
 187.5 175 l 1
 187.5 143.75 l 1
 187.5 112.5 l 1
 343.75 112.5 l 1
 500 112.5 l 1
 500 143.75 l 1
 500 175 l 1
 531.25 175 l 1
 562.5 175 l 1
 562.5 393.75 l 1
 562.5 612.5 l 1
 531.25 612.5 l 1
 500 612.5 l 1
 500 643.75 l 1
EndSplineSet
EndChar

StartChar: Ugrave
Encoding: 217 217 151
Width: 562
VWidth: 0
Flags: HW
LayerCount: 2
Back
Fore
SplineSet
62.5 487.5 m 1
 62.5 737.5 l 1
 93.75 737.5 l 1
 125 737.5 l 1
 125 487.5 l 1
 125 237.5 l 1
 156.25 237.5 l 1
 187.5 237.5 l 1
 187.5 206.25 l 1
 187.5 175 l 1
 218.75 175 l 1
 250 175 l 1
 250 143.75 l 1
 250 112.5 l 1
 343.75 112.5 l 1
 437.5 112.5 l 1
 437.5 143.75 l 1
 437.5 175 l 1
 468.75 175 l 1
 500 175 l 1
 500 206.25 l 1
 500 237.5 l 1
 531.25 237.5 l 1
 562.5 237.5 l 1
 562.5 487.5 l 1
 562.5 737.5 l 1
 593.75 737.5 l 1
 625 737.5 l 1
 625 487.5 l 1
 625 237.5 l 1
 593.75 237.5 l 1
 562.5 237.5 l 1
 562.5 175 l 1
 562.5 112.5 l 1
 500 112.5 l 1
 437.5 112.5 l 1
 437.5 81.25 l 1
 437.5 50 l 1
 343.75 50 l 1
 250 50 l 1
 250 81.25 l 1
 250 112.5 l 1
 187.5 112.5 l 1
 125 112.5 l 1
 125 175 l 1
 125 237.5 l 1
 93.75 237.5 l 1
 62.5 237.5 l 1
 62.5 487.5 l 1
250 893.75 m 1
 250 925 l 1
 281.25 925 l 1
 312.5 925 l 1
 312.5 893.75 l 1
 312.5 862.5 l 1
 343.75 862.5 l 1
 375 862.5 l 1
 375 831.25 l 1
 375 800 l 1
 343.75 800 l 1
 312.5 800 l 1
 312.5 831.25 l 1
 312.5 862.5 l 1
 281.25 862.5 l 1
 250 862.5 l 1
 250 893.75 l 1
EndSplineSet
EndChar

StartChar: Uacute
Encoding: 218 218 152
Width: 562
VWidth: 0
Flags: HW
LayerCount: 2
Back
Fore
SplineSet
62.5 487.5 m 1
 62.5 737.5 l 1
 93.75 737.5 l 1
 125 737.5 l 1
 125 487.5 l 1
 125 237.5 l 1
 156.25 237.5 l 1
 187.5 237.5 l 1
 187.5 206.25 l 1
 187.5 175 l 1
 218.75 175 l 1
 250 175 l 1
 250 143.75 l 1
 250 112.5 l 1
 343.75 112.5 l 1
 437.5 112.5 l 1
 437.5 143.75 l 1
 437.5 175 l 1
 468.75 175 l 1
 500 175 l 1
 500 206.25 l 1
 500 237.5 l 1
 531.25 237.5 l 1
 562.5 237.5 l 1
 562.5 487.5 l 1
 562.5 737.5 l 1
 593.75 737.5 l 1
 625 737.5 l 1
 625 487.5 l 1
 625 237.5 l 1
 593.75 237.5 l 1
 562.5 237.5 l 1
 562.5 175 l 1
 562.5 112.5 l 1
 500 112.5 l 1
 437.5 112.5 l 1
 437.5 81.25 l 1
 437.5 50 l 1
 343.75 50 l 1
 250 50 l 1
 250 81.25 l 1
 250 112.5 l 1
 187.5 112.5 l 1
 125 112.5 l 1
 125 175 l 1
 125 237.5 l 1
 93.75 237.5 l 1
 62.5 237.5 l 1
 62.5 487.5 l 1
375 893.75 m 1
 375 925 l 1
 406.25 925 l 1
 437.5 925 l 1
 437.5 893.75 l 1
 437.5 862.5 l 1
 406.25 862.5 l 1
 375 862.5 l 1
 375 831.25 l 1
 375 800 l 1
 343.75 800 l 1
 312.5 800 l 1
 312.5 831.25 l 1
 312.5 862.5 l 1
 343.75 862.5 l 1
 375 862.5 l 1
 375 893.75 l 1
EndSplineSet
EndChar

StartChar: Ucircumflex
Encoding: 219 219 153
Width: 562
VWidth: 0
Flags: HW
LayerCount: 2
Back
Fore
SplineSet
62.5 487.5 m 1
 62.5 737.5 l 1
 93.75 737.5 l 1
 125 737.5 l 1
 125 487.5 l 1
 125 237.5 l 1
 156.25 237.5 l 1
 187.5 237.5 l 1
 187.5 206.25 l 1
 187.5 175 l 1
 218.75 175 l 1
 250 175 l 1
 250 143.75 l 1
 250 112.5 l 1
 343.75 112.5 l 1
 437.5 112.5 l 1
 437.5 143.75 l 1
 437.5 175 l 1
 468.75 175 l 1
 500 175 l 1
 500 206.25 l 1
 500 237.5 l 1
 531.25 237.5 l 1
 562.5 237.5 l 1
 562.5 487.5 l 1
 562.5 737.5 l 1
 593.75 737.5 l 1
 625 737.5 l 1
 625 487.5 l 1
 625 237.5 l 1
 593.75 237.5 l 1
 562.5 237.5 l 1
 562.5 175 l 1
 562.5 112.5 l 1
 500 112.5 l 1
 437.5 112.5 l 1
 437.5 81.25 l 1
 437.5 50 l 1
 343.75 50 l 1
 250 50 l 1
 250 81.25 l 1
 250 112.5 l 1
 187.5 112.5 l 1
 125 112.5 l 1
 125 175 l 1
 125 237.5 l 1
 93.75 237.5 l 1
 62.5 237.5 l 1
 62.5 487.5 l 1
312.5 893.75 m 1
 312.5 925 l 1
 375 925 l 1
 437.5 925 l 1
 437.5 893.75 l 1
 437.5 862.5 l 1
 468.75 862.5 l 1
 500 862.5 l 1
 500 831.25 l 1
 500 800 l 1
 468.75 800 l 1
 437.5 800 l 1
 437.5 831.25 l 1
 437.5 862.5 l 1
 375 862.5 l 1
 312.5 862.5 l 1
 312.5 831.25 l 1
 312.5 800 l 1
 281.25 800 l 1
 250 800 l 1
 250 831.25 l 1
 250 862.5 l 1
 281.25 862.5 l 1
 312.5 862.5 l 1
 312.5 893.75 l 1
EndSplineSet
EndChar

StartChar: Udieresis
Encoding: 220 220 154
Width: 562
VWidth: 0
Flags: HW
LayerCount: 2
Back
Fore
SplineSet
62.5 487.5 m 1
 62.5 737.5 l 1
 93.75 737.5 l 1
 125 737.5 l 1
 125 487.5 l 1
 125 237.5 l 1
 156.25 237.5 l 1
 187.5 237.5 l 1
 187.5 206.25 l 1
 187.5 175 l 1
 218.75 175 l 1
 250 175 l 1
 250 143.75 l 1
 250 112.5 l 1
 343.75 112.5 l 1
 437.5 112.5 l 1
 437.5 143.75 l 1
 437.5 175 l 1
 468.75 175 l 1
 500 175 l 1
 500 206.25 l 1
 500 237.5 l 1
 531.25 237.5 l 1
 562.5 237.5 l 1
 562.5 487.5 l 1
 562.5 737.5 l 1
 593.75 737.5 l 1
 625 737.5 l 1
 625 487.5 l 1
 625 237.5 l 1
 593.75 237.5 l 1
 562.5 237.5 l 1
 562.5 175 l 1
 562.5 112.5 l 1
 500 112.5 l 1
 437.5 112.5 l 1
 437.5 81.25 l 1
 437.5 50 l 1
 343.75 50 l 1
 250 50 l 1
 250 81.25 l 1
 250 112.5 l 1
 187.5 112.5 l 1
 125 112.5 l 1
 125 175 l 1
 125 237.5 l 1
 93.75 237.5 l 1
 62.5 237.5 l 1
 62.5 487.5 l 1
437.5 862.5 m 1
 437.5 925 l 1
 468.75 925 l 1
 500 925 l 1
 500 862.5 l 1
 500 800 l 1
 468.75 800 l 1
 437.5 800 l 1
 437.5 862.5 l 1
250 862.5 m 1
 250 925 l 1
 281.25 925 l 1
 312.5 925 l 1
 312.5 862.5 l 1
 312.5 800 l 1
 281.25 800 l 1
 250 800 l 1
 250 862.5 l 1
EndSplineSet
EndChar

StartChar: Yacute
Encoding: 221 221 155
Width: 562
VWidth: 0
Flags: HW
LayerCount: 2
Back
Fore
SplineSet
0 675 m 1
 0 737.5 l 1
 31.25 737.5 l 1
 62.5 737.5 l 1
 62.5 675 l 1
 62.5 612.5 l 1
 93.75 612.5 l 1
 125 612.5 l 1
 125 550 l 1
 125 487.5 l 1
 156.25 487.5 l 1
 187.5 487.5 l 1
 187.5 456.25 l 1
 187.5 425 l 1
 218.75 425 l 1
 250 425 l 1
 250 456.25 l 1
 250 487.5 l 1
 281.25 487.5 l 1
 312.5 487.5 l 1
 312.5 550 l 1
 312.5 612.5 l 1
 343.75 612.5 l 1
 375 612.5 l 1
 375 675 l 1
 375 737.5 l 1
 406.25 737.5 l 1
 437.5 737.5 l 1
 437.5 675 l 1
 437.5 612.5 l 1
 406.25 612.5 l 1
 375 612.5 l 1
 375 550 l 1
 375 487.5 l 1
 343.75 487.5 l 1
 312.5 487.5 l 1
 312.5 456.25 l 1
 312.5 425 l 1
 281.25 425 l 1
 250 425 l 1
 250 237.5 l 1
 250 50 l 1
 218.75 50 l 1
 187.5 50 l 1
 187.5 237.5 l 1
 187.5 425 l 1
 156.25 425 l 1
 125 425 l 1
 125 456.25 l 1
 125 487.5 l 1
 93.75 487.5 l 1
 62.5 487.5 l 1
 62.5 550 l 1
 62.5 612.5 l 1
 31.25 612.5 l 1
 0 612.5 l 1
 0 675 l 1
312.5 893.75 m 1
 312.5 925 l 1
 343.75 925 l 1
 375 925 l 1
 375 893.75 l 1
 375 862.5 l 1
 343.75 862.5 l 1
 312.5 862.5 l 1
 312.5 831.25 l 1
 312.5 800 l 1
 281.25 800 l 1
 250 800 l 1
 250 831.25 l 1
 250 862.5 l 1
 281.25 862.5 l 1
 312.5 862.5 l 1
 312.5 893.75 l 1
EndSplineSet
EndChar

StartChar: Thorn
Encoding: 222 222 156
Width: 625
VWidth: 0
Flags: HW
LayerCount: 2
Back
Fore
SplineSet
62.5 393.75 m 1
 62.5 737.5 l 1
 93.75 737.5 l 1
 125 737.5 l 1
 125 675 l 1
 125 612.5 l 1
 312.5 612.5 l 1
 500 612.5 l 1
 500 581.25 l 1
 500 550 l 1
 531.25 550 l 1
 562.5 550 l 1
 562.5 425 l 1
 562.5 300 l 1
 531.25 300 l 1
 500 300 l 1
 500 268.75 l 1
 500 237.5 l 1
 312.5 237.5 l 1
 125 237.5 l 1
 125 143.75 l 1
 125 50 l 1
 93.75 50 l 1
 62.5 50 l 1
 62.5 393.75 l 1
500 425 m 1
 500 550 l 1
 312.5 550 l 1
 125 550 l 1
 125 425 l 1
 125 300 l 1
 312.5 300 l 1
 500 300 l 1
 500 425 l 1
EndSplineSet
EndChar

StartChar: germandbls
Encoding: 223 223 157
Width: 562
VWidth: 0
Flags: HW
LayerCount: 2
Back
Fore
SplineSet
125 706.25 m 1
 125 737.5 l 1
 250 737.5 l 1
 375 737.5 l 1
 375 706.25 l 1
 375 675 l 1
 406.25 675 l 1
 437.5 675 l 1
 437.5 612.5 l 1
 437.5 550 l 1
 406.25 550 l 1
 375 550 l 1
 375 487.5 l 1
 375 425 l 1
 343.75 425 l 1
 312.5 425 l 1
 312.5 393.75 l 1
 312.5 362.5 l 1
 375 362.5 l 1
 437.5 362.5 l 1
 437.5 331.25 l 1
 437.5 300 l 1
 468.75 300 l 1
 500 300 l 1
 500 206.25 l 1
 500 112.5 l 1
 468.75 112.5 l 1
 437.5 112.5 l 1
 437.5 81.25 l 1
 437.5 50 l 1
 312.5 50 l 1
 187.5 50 l 1
 187.5 81.25 l 1
 187.5 112.5 l 1
 156.25 112.5 l 1
 125 112.5 l 1
 125 81.25 l 1
 125 50 l 1
 93.75 50 l 1
 62.5 50 l 1
 62.5 362.5 l 1
 62.5 675 l 1
 93.75 675 l 1
 125 675 l 1
 125 706.25 l 1
375 612.5 m 1
 375 675 l 1
 250 675 l 1
 125 675 l 1
 125 425 l 1
 125 175 l 1
 156.25 175 l 1
 187.5 175 l 1
 187.5 143.75 l 1
 187.5 112.5 l 1
 312.5 112.5 l 1
 437.5 112.5 l 1
 437.5 206.25 l 1
 437.5 300 l 1
 375 300 l 1
 312.5 300 l 1
 312.5 331.25 l 1
 312.5 362.5 l 1
 281.25 362.5 l 1
 250 362.5 l 1
 250 393.75 l 1
 250 425 l 1
 281.25 425 l 1
 312.5 425 l 1
 312.5 487.5 l 1
 312.5 550 l 1
 343.75 550 l 1
 375 550 l 1
 375 612.5 l 1
EndSplineSet
EndChar

StartChar: agrave
Encoding: 224 224 158
Width: 625
VWidth: 0
Flags: HW
LayerCount: 2
Back
Fore
SplineSet
125 456.25 m 1
 125 487.5 l 1
 281.25 487.5 l 1
 437.5 487.5 l 1
 437.5 300 l 1
 437.5 112.5 l 1
 500 112.5 l 1
 562.5 112.5 l 1
 562.5 81.25 l 1
 562.5 50 l 1
 500 50 l 1
 437.5 50 l 1
 437.5 81.25 l 1
 437.5 112.5 l 1
 406.25 112.5 l 1
 375 112.5 l 1
 375 81.25 l 1
 375 50 l 1
 250 50 l 1
 125 50 l 1
 125 81.25 l 1
 125 112.5 l 1
 93.75 112.5 l 1
 62.5 112.5 l 1
 62.5 268.75 l 1
 62.5 425 l 1
 93.75 425 l 1
 125 425 l 1
 125 456.25 l 1
375 300 m 1
 375 425 l 1
 281.25 425 l 1
 187.5 425 l 1
 187.5 393.75 l 1
 187.5 362.5 l 1
 156.25 362.5 l 1
 125 362.5 l 1
 125 237.5 l 1
 125 112.5 l 1
 218.75 112.5 l 1
 312.5 112.5 l 1
 312.5 143.75 l 1
 312.5 175 l 1
 343.75 175 l 1
 375 175 l 1
 375 300 l 1
187.5 643.75 m 1
 187.5 675 l 1
 218.75 675 l 1
 250 675 l 1
 250 643.75 l 1
 250 612.5 l 1
 281.25 612.5 l 1
 312.5 612.5 l 1
 312.5 581.25 l 1
 312.5 550 l 1
 281.25 550 l 1
 250 550 l 1
 250 581.25 l 1
 250 612.5 l 1
 218.75 612.5 l 1
 187.5 612.5 l 1
 187.5 643.75 l 1
EndSplineSet
EndChar

StartChar: aacute
Encoding: 225 225 159
Width: 625
VWidth: 0
Flags: HW
LayerCount: 2
Back
Fore
SplineSet
125 456.25 m 1
 125 487.5 l 1
 281.25 487.5 l 1
 437.5 487.5 l 1
 437.5 300 l 1
 437.5 112.5 l 1
 500 112.5 l 1
 562.5 112.5 l 1
 562.5 81.25 l 1
 562.5 50 l 1
 500 50 l 1
 437.5 50 l 1
 437.5 81.25 l 1
 437.5 112.5 l 1
 406.25 112.5 l 1
 375 112.5 l 1
 375 81.25 l 1
 375 50 l 1
 250 50 l 1
 125 50 l 1
 125 81.25 l 1
 125 112.5 l 1
 93.75 112.5 l 1
 62.5 112.5 l 1
 62.5 268.75 l 1
 62.5 425 l 1
 93.75 425 l 1
 125 425 l 1
 125 456.25 l 1
375 300 m 1
 375 425 l 1
 281.25 425 l 1
 187.5 425 l 1
 187.5 393.75 l 1
 187.5 362.5 l 1
 156.25 362.5 l 1
 125 362.5 l 1
 125 237.5 l 1
 125 112.5 l 1
 218.75 112.5 l 1
 312.5 112.5 l 1
 312.5 143.75 l 1
 312.5 175 l 1
 343.75 175 l 1
 375 175 l 1
 375 300 l 1
312.5 643.75 m 1
 312.5 675 l 1
 343.75 675 l 1
 375 675 l 1
 375 643.75 l 1
 375 612.5 l 1
 343.75 612.5 l 1
 312.5 612.5 l 1
 312.5 581.25 l 1
 312.5 550 l 1
 281.25 550 l 1
 250 550 l 1
 250 581.25 l 1
 250 612.5 l 1
 281.25 612.5 l 1
 312.5 612.5 l 1
 312.5 643.75 l 1
EndSplineSet
EndChar

StartChar: acircumflex
Encoding: 226 226 160
Width: 625
VWidth: 0
Flags: HW
LayerCount: 2
Back
Fore
SplineSet
125 456.25 m 1
 125 487.5 l 1
 281.25 487.5 l 1
 437.5 487.5 l 1
 437.5 300 l 1
 437.5 112.5 l 1
 500 112.5 l 1
 562.5 112.5 l 1
 562.5 81.25 l 1
 562.5 50 l 1
 500 50 l 1
 437.5 50 l 1
 437.5 81.25 l 1
 437.5 112.5 l 1
 406.25 112.5 l 1
 375 112.5 l 1
 375 81.25 l 1
 375 50 l 1
 250 50 l 1
 125 50 l 1
 125 81.25 l 1
 125 112.5 l 1
 93.75 112.5 l 1
 62.5 112.5 l 1
 62.5 268.75 l 1
 62.5 425 l 1
 93.75 425 l 1
 125 425 l 1
 125 456.25 l 1
375 300 m 1
 375 425 l 1
 281.25 425 l 1
 187.5 425 l 1
 187.5 393.75 l 1
 187.5 362.5 l 1
 156.25 362.5 l 1
 125 362.5 l 1
 125 237.5 l 1
 125 112.5 l 1
 218.75 112.5 l 1
 312.5 112.5 l 1
 312.5 143.75 l 1
 312.5 175 l 1
 343.75 175 l 1
 375 175 l 1
 375 300 l 1
250 643.75 m 1
 250 675 l 1
 312.5 675 l 1
 375 675 l 1
 375 643.75 l 1
 375 612.5 l 1
 406.25 612.5 l 1
 437.5 612.5 l 1
 437.5 581.25 l 1
 437.5 550 l 1
 406.25 550 l 1
 375 550 l 1
 375 581.25 l 1
 375 612.5 l 1
 312.5 612.5 l 1
 250 612.5 l 1
 250 581.25 l 1
 250 550 l 1
 218.75 550 l 1
 187.5 550 l 1
 187.5 581.25 l 1
 187.5 612.5 l 1
 218.75 612.5 l 1
 250 612.5 l 1
 250 643.75 l 1
EndSplineSet
EndChar

StartChar: atilde
Encoding: 227 227 161
Width: 625
VWidth: 0
Flags: HW
LayerCount: 2
Back
Fore
SplineSet
125 456.25 m 1
 125 487.5 l 1
 281.25 487.5 l 1
 437.5 487.5 l 1
 437.5 300 l 1
 437.5 112.5 l 1
 500 112.5 l 1
 562.5 112.5 l 1
 562.5 81.25 l 1
 562.5 50 l 1
 500 50 l 1
 437.5 50 l 1
 437.5 81.25 l 1
 437.5 112.5 l 1
 406.25 112.5 l 1
 375 112.5 l 1
 375 81.25 l 1
 375 50 l 1
 250 50 l 1
 125 50 l 1
 125 81.25 l 1
 125 112.5 l 1
 93.75 112.5 l 1
 62.5 112.5 l 1
 62.5 268.75 l 1
 62.5 425 l 1
 93.75 425 l 1
 125 425 l 1
 125 456.25 l 1
375 300 m 1
 375 425 l 1
 281.25 425 l 1
 187.5 425 l 1
 187.5 393.75 l 1
 187.5 362.5 l 1
 156.25 362.5 l 1
 125 362.5 l 1
 125 237.5 l 1
 125 112.5 l 1
 218.75 112.5 l 1
 312.5 112.5 l 1
 312.5 143.75 l 1
 312.5 175 l 1
 343.75 175 l 1
 375 175 l 1
 375 300 l 1
125 643.75 m 1
 125 675 l 1
 187.5 675 l 1
 250 675 l 1
 250 643.75 l 1
 250 612.5 l 1
 312.5 612.5 l 1
 375 612.5 l 1
 375 643.75 l 1
 375 675 l 1
 406.25 675 l 1
 437.5 675 l 1
 437.5 643.75 l 1
 437.5 612.5 l 1
 406.25 612.5 l 1
 375 612.5 l 1
 375 581.25 l 1
 375 550 l 1
 312.5 550 l 1
 250 550 l 1
 250 581.25 l 1
 250 612.5 l 1
 187.5 612.5 l 1
 125 612.5 l 1
 125 581.25 l 1
 125 550 l 1
 93.75 550 l 1
 62.5 550 l 1
 62.5 581.25 l 1
 62.5 612.5 l 1
 93.75 612.5 l 1
 125 612.5 l 1
 125 643.75 l 1
EndSplineSet
EndChar

StartChar: adieresis
Encoding: 228 228 162
Width: 625
VWidth: 0
Flags: HW
LayerCount: 2
Back
Fore
SplineSet
125 456.25 m 1
 125 487.5 l 1
 281.25 487.5 l 1
 437.5 487.5 l 1
 437.5 300 l 1
 437.5 112.5 l 1
 500 112.5 l 1
 562.5 112.5 l 1
 562.5 81.25 l 1
 562.5 50 l 1
 500 50 l 1
 437.5 50 l 1
 437.5 81.25 l 1
 437.5 112.5 l 1
 406.25 112.5 l 1
 375 112.5 l 1
 375 81.25 l 1
 375 50 l 1
 250 50 l 1
 125 50 l 1
 125 81.25 l 1
 125 112.5 l 1
 93.75 112.5 l 1
 62.5 112.5 l 1
 62.5 268.75 l 1
 62.5 425 l 1
 93.75 425 l 1
 125 425 l 1
 125 456.25 l 1
375 300 m 1
 375 425 l 1
 281.25 425 l 1
 187.5 425 l 1
 187.5 393.75 l 1
 187.5 362.5 l 1
 156.25 362.5 l 1
 125 362.5 l 1
 125 237.5 l 1
 125 112.5 l 1
 218.75 112.5 l 1
 312.5 112.5 l 1
 312.5 143.75 l 1
 312.5 175 l 1
 343.75 175 l 1
 375 175 l 1
 375 300 l 1
312.5 612.5 m 1
 312.5 675 l 1
 343.75 675 l 1
 375 675 l 1
 375 612.5 l 1
 375 550 l 1
 343.75 550 l 1
 312.5 550 l 1
 312.5 612.5 l 1
125 612.5 m 1
 125 675 l 1
 156.25 675 l 1
 187.5 675 l 1
 187.5 612.5 l 1
 187.5 550 l 1
 156.25 550 l 1
 125 550 l 1
 125 612.5 l 1
EndSplineSet
EndChar

StartChar: aring
Encoding: 229 229 163
Width: 625
VWidth: 0
Flags: HW
LayerCount: 2
Back
Fore
SplineSet
125 456.25 m 1
 125 487.5 l 1
 281.25 487.5 l 1
 437.5 487.5 l 1
 437.5 300 l 1
 437.5 112.5 l 1
 500 112.5 l 1
 562.5 112.5 l 1
 562.5 81.25 l 1
 562.5 50 l 1
 500 50 l 1
 437.5 50 l 1
 437.5 81.25 l 1
 437.5 112.5 l 1
 406.25 112.5 l 1
 375 112.5 l 1
 375 81.25 l 1
 375 50 l 1
 250 50 l 1
 125 50 l 1
 125 81.25 l 1
 125 112.5 l 1
 93.75 112.5 l 1
 62.5 112.5 l 1
 62.5 268.75 l 1
 62.5 425 l 1
 93.75 425 l 1
 125 425 l 1
 125 456.25 l 1
375 300 m 1
 375 425 l 1
 281.25 425 l 1
 187.5 425 l 1
 187.5 393.75 l 1
 187.5 362.5 l 1
 156.25 362.5 l 1
 125 362.5 l 1
 125 237.5 l 1
 125 112.5 l 1
 218.75 112.5 l 1
 312.5 112.5 l 1
 312.5 143.75 l 1
 312.5 175 l 1
 343.75 175 l 1
 375 175 l 1
 375 300 l 1
250 706.25 m 1
 250 737.5 l 1
 281.25 737.5 l 1
 312.5 737.5 l 1
 312.5 706.25 l 1
 312.5 675 l 1
 343.75 675 l 1
 375 675 l 1
 375 643.75 l 1
 375 612.5 l 1
 343.75 612.5 l 1
 312.5 612.5 l 1
 312.5 581.25 l 1
 312.5 550 l 1
 281.25 550 l 1
 250 550 l 1
 250 581.25 l 1
 250 612.5 l 1
 218.75 612.5 l 1
 187.5 612.5 l 1
 187.5 643.75 l 1
 187.5 675 l 1
 218.75 675 l 1
 250 675 l 1
 250 706.25 l 1
312.5 643.75 m 1
 312.5 675 l 1
 281.25 675 l 1
 250 675 l 1
 250 643.75 l 1
 250 612.5 l 1
 281.25 612.5 l 1
 312.5 612.5 l 1
 312.5 643.75 l 1
EndSplineSet
EndChar

StartChar: ae
Encoding: 230 230 164
Width: 812
VWidth: 0
Flags: HW
LayerCount: 2
Back
Fore
SplineSet
125 456.25 m 1
 125 487.5 l 1
 406.25 487.5 l 1
 687.5 487.5 l 1
 687.5 456.25 l 1
 687.5 425 l 1
 718.75 425 l 1
 750 425 l 1
 750 331.25 l 1
 750 237.5 l 1
 593.75 237.5 l 1
 437.5 237.5 l 1
 437.5 175 l 1
 437.5 112.5 l 1
 562.5 112.5 l 1
 687.5 112.5 l 1
 687.5 143.75 l 1
 687.5 175 l 1
 718.75 175 l 1
 750 175 l 1
 750 143.75 l 1
 750 112.5 l 1
 718.75 112.5 l 1
 687.5 112.5 l 1
 687.5 81.25 l 1
 687.5 50 l 1
 562.5 50 l 1
 437.5 50 l 1
 437.5 81.25 l 1
 437.5 112.5 l 1
 406.25 112.5 l 1
 375 112.5 l 1
 375 81.25 l 1
 375 50 l 1
 250 50 l 1
 125 50 l 1
 125 81.25 l 1
 125 112.5 l 1
 93.75 112.5 l 1
 62.5 112.5 l 1
 62.5 268.75 l 1
 62.5 425 l 1
 93.75 425 l 1
 125 425 l 1
 125 456.25 l 1
375 300 m 1
 375 425 l 1
 281.25 425 l 1
 187.5 425 l 1
 187.5 393.75 l 1
 187.5 362.5 l 1
 156.25 362.5 l 1
 125 362.5 l 1
 125 237.5 l 1
 125 112.5 l 1
 218.75 112.5 l 1
 312.5 112.5 l 1
 312.5 143.75 l 1
 312.5 175 l 1
 343.75 175 l 1
 375 175 l 1
 375 300 l 1
687.5 362.5 m 1
 687.5 425 l 1
 562.5 425 l 1
 437.5 425 l 1
 437.5 362.5 l 1
 437.5 300 l 1
 562.5 300 l 1
 687.5 300 l 1
 687.5 362.5 l 1
EndSplineSet
EndChar

StartChar: ccedilla
Encoding: 231 231 165
Width: 500
VWidth: 0
Flags: HW
LayerCount: 2
Back
Fore
SplineSet
125 456.25 m 1
 125 487.5 l 1
 250 487.5 l 1
 375 487.5 l 1
 375 456.25 l 1
 375 425 l 1
 406.25 425 l 1
 437.5 425 l 1
 437.5 393.75 l 1
 437.5 362.5 l 1
 406.25 362.5 l 1
 375 362.5 l 1
 375 393.75 l 1
 375 425 l 1
 281.25 425 l 1
 187.5 425 l 1
 187.5 393.75 l 1
 187.5 362.5 l 1
 156.25 362.5 l 1
 125 362.5 l 1
 125 268.75 l 1
 125 175 l 1
 156.25 175 l 1
 187.5 175 l 1
 187.5 143.75 l 1
 187.5 112.5 l 1
 281.25 112.5 l 1
 375 112.5 l 1
 375 143.75 l 1
 375 175 l 1
 406.25 175 l 1
 437.5 175 l 1
 437.5 143.75 l 1
 437.5 112.5 l 1
 406.25 112.5 l 1
 375 112.5 l 1
 375 81.25 l 1
 375 50 l 1
 343.75 50 l 1
 312.5 50 l 1
 312.5 18.75 l 1
 312.5 -12.5 l 1
 343.75 -12.5 l 1
 375 -12.5 l 1
 375 -43.75 l 1
 375 -75 l 1
 343.75 -75 l 1
 312.5 -75 l 1
 312.5 -106.25 l 1
 312.5 -137.5 l 1
 250 -137.5 l 1
 187.5 -137.5 l 1
 187.5 -106.25 l 1
 187.5 -75 l 1
 250 -75 l 1
 312.5 -75 l 1
 312.5 -43.75 l 1
 312.5 -12.5 l 1
 281.25 -12.5 l 1
 250 -12.5 l 1
 250 18.75 l 1
 250 50 l 1
 187.5 50 l 1
 125 50 l 1
 125 81.25 l 1
 125 112.5 l 1
 93.75 112.5 l 1
 62.5 112.5 l 1
 62.5 268.75 l 1
 62.5 425 l 1
 93.75 425 l 1
 125 425 l 1
 125 456.25 l 1
EndSplineSet
EndChar

StartChar: egrave
Encoding: 232 232 166
Width: 500
VWidth: 0
Flags: HW
LayerCount: 2
Back
Fore
SplineSet
125 456.25 m 1
 125 487.5 l 1
 250 487.5 l 1
 375 487.5 l 1
 375 456.25 l 1
 375 425 l 1
 406.25 425 l 1
 437.5 425 l 1
 437.5 331.25 l 1
 437.5 237.5 l 1
 281.25 237.5 l 1
 125 237.5 l 1
 125 175 l 1
 125 112.5 l 1
 250 112.5 l 1
 375 112.5 l 1
 375 143.75 l 1
 375 175 l 1
 406.25 175 l 1
 437.5 175 l 1
 437.5 143.75 l 1
 437.5 112.5 l 1
 406.25 112.5 l 1
 375 112.5 l 1
 375 81.25 l 1
 375 50 l 1
 250 50 l 1
 125 50 l 1
 125 81.25 l 1
 125 112.5 l 1
 93.75 112.5 l 1
 62.5 112.5 l 1
 62.5 268.75 l 1
 62.5 425 l 1
 93.75 425 l 1
 125 425 l 1
 125 456.25 l 1
375 362.5 m 1
 375 425 l 1
 250 425 l 1
 125 425 l 1
 125 362.5 l 1
 125 300 l 1
 250 300 l 1
 375 300 l 1
 375 362.5 l 1
187.5 643.75 m 1
 187.5 675 l 1
 218.75 675 l 1
 250 675 l 1
 250 643.75 l 1
 250 612.5 l 1
 281.25 612.5 l 1
 312.5 612.5 l 1
 312.5 581.25 l 1
 312.5 550 l 1
 281.25 550 l 1
 250 550 l 1
 250 581.25 l 1
 250 612.5 l 1
 218.75 612.5 l 1
 187.5 612.5 l 1
 187.5 643.75 l 1
EndSplineSet
EndChar

StartChar: eacute
Encoding: 233 233 167
Width: 500
VWidth: 0
Flags: HW
LayerCount: 2
Back
Fore
SplineSet
125 456.25 m 1
 125 487.5 l 1
 250 487.5 l 1
 375 487.5 l 1
 375 456.25 l 1
 375 425 l 1
 406.25 425 l 1
 437.5 425 l 1
 437.5 331.25 l 1
 437.5 237.5 l 1
 281.25 237.5 l 1
 125 237.5 l 1
 125 175 l 1
 125 112.5 l 1
 250 112.5 l 1
 375 112.5 l 1
 375 143.75 l 1
 375 175 l 1
 406.25 175 l 1
 437.5 175 l 1
 437.5 143.75 l 1
 437.5 112.5 l 1
 406.25 112.5 l 1
 375 112.5 l 1
 375 81.25 l 1
 375 50 l 1
 250 50 l 1
 125 50 l 1
 125 81.25 l 1
 125 112.5 l 1
 93.75 112.5 l 1
 62.5 112.5 l 1
 62.5 268.75 l 1
 62.5 425 l 1
 93.75 425 l 1
 125 425 l 1
 125 456.25 l 1
375 362.5 m 1
 375 425 l 1
 250 425 l 1
 125 425 l 1
 125 362.5 l 1
 125 300 l 1
 250 300 l 1
 375 300 l 1
 375 362.5 l 1
312.5 643.75 m 1
 312.5 675 l 1
 343.75 675 l 1
 375 675 l 1
 375 643.75 l 1
 375 612.5 l 1
 343.75 612.5 l 1
 312.5 612.5 l 1
 312.5 581.25 l 1
 312.5 550 l 1
 281.25 550 l 1
 250 550 l 1
 250 581.25 l 1
 250 612.5 l 1
 281.25 612.5 l 1
 312.5 612.5 l 1
 312.5 643.75 l 1
EndSplineSet
EndChar

StartChar: ecircumflex
Encoding: 234 234 168
Width: 500
VWidth: 0
Flags: HW
LayerCount: 2
Back
Fore
SplineSet
125 456.25 m 1
 125 487.5 l 1
 250 487.5 l 1
 375 487.5 l 1
 375 456.25 l 1
 375 425 l 1
 406.25 425 l 1
 437.5 425 l 1
 437.5 331.25 l 1
 437.5 237.5 l 1
 281.25 237.5 l 1
 125 237.5 l 1
 125 175 l 1
 125 112.5 l 1
 250 112.5 l 1
 375 112.5 l 1
 375 143.75 l 1
 375 175 l 1
 406.25 175 l 1
 437.5 175 l 1
 437.5 143.75 l 1
 437.5 112.5 l 1
 406.25 112.5 l 1
 375 112.5 l 1
 375 81.25 l 1
 375 50 l 1
 250 50 l 1
 125 50 l 1
 125 81.25 l 1
 125 112.5 l 1
 93.75 112.5 l 1
 62.5 112.5 l 1
 62.5 268.75 l 1
 62.5 425 l 1
 93.75 425 l 1
 125 425 l 1
 125 456.25 l 1
375 362.5 m 1
 375 425 l 1
 250 425 l 1
 125 425 l 1
 125 362.5 l 1
 125 300 l 1
 250 300 l 1
 375 300 l 1
 375 362.5 l 1
187.5 643.75 m 1
 187.5 675 l 1
 250 675 l 1
 312.5 675 l 1
 312.5 643.75 l 1
 312.5 612.5 l 1
 343.75 612.5 l 1
 375 612.5 l 1
 375 581.25 l 1
 375 550 l 1
 343.75 550 l 1
 312.5 550 l 1
 312.5 581.25 l 1
 312.5 612.5 l 1
 250 612.5 l 1
 187.5 612.5 l 1
 187.5 581.25 l 1
 187.5 550 l 1
 156.25 550 l 1
 125 550 l 1
 125 581.25 l 1
 125 612.5 l 1
 156.25 612.5 l 1
 187.5 612.5 l 1
 187.5 643.75 l 1
EndSplineSet
EndChar

StartChar: edieresis
Encoding: 235 235 169
Width: 500
VWidth: 0
Flags: HW
LayerCount: 2
Back
Fore
SplineSet
125 456.25 m 1
 125 487.5 l 1
 250 487.5 l 1
 375 487.5 l 1
 375 456.25 l 1
 375 425 l 1
 406.25 425 l 1
 437.5 425 l 1
 437.5 331.25 l 1
 437.5 237.5 l 1
 281.25 237.5 l 1
 125 237.5 l 1
 125 175 l 1
 125 112.5 l 1
 250 112.5 l 1
 375 112.5 l 1
 375 143.75 l 1
 375 175 l 1
 406.25 175 l 1
 437.5 175 l 1
 437.5 143.75 l 1
 437.5 112.5 l 1
 406.25 112.5 l 1
 375 112.5 l 1
 375 81.25 l 1
 375 50 l 1
 250 50 l 1
 125 50 l 1
 125 81.25 l 1
 125 112.5 l 1
 93.75 112.5 l 1
 62.5 112.5 l 1
 62.5 268.75 l 1
 62.5 425 l 1
 93.75 425 l 1
 125 425 l 1
 125 456.25 l 1
375 362.5 m 1
 375 425 l 1
 250 425 l 1
 125 425 l 1
 125 362.5 l 1
 125 300 l 1
 250 300 l 1
 375 300 l 1
 375 362.5 l 1
312.5 612.5 m 1
 312.5 675 l 1
 343.75 675 l 1
 375 675 l 1
 375 612.5 l 1
 375 550 l 1
 343.75 550 l 1
 312.5 550 l 1
 312.5 612.5 l 1
125 612.5 m 1
 125 675 l 1
 156.25 675 l 1
 187.5 675 l 1
 187.5 612.5 l 1
 187.5 550 l 1
 156.25 550 l 1
 125 550 l 1
 125 612.5 l 1
EndSplineSet
EndChar

StartChar: igrave
Encoding: 236 236 170
Width: 187
VWidth: 0
Flags: HW
LayerCount: 2
Back
Fore
SplineSet
0 800 m 1
 62 800 l 1
 62 738 l 1
 0 738 l 1
 0 800 l 1
124 613 m 1
 63 613 l 1
 63 738 l 1
 124 738 l 1
 124 613 l 1
123 50 m 1
 63 50 l 1
 63 549 l 1
 123 549 l 1
 123 50 l 1
EndSplineSet
EndChar

StartChar: iacute
Encoding: 237 237 171
Width: 250
VWidth: 0
Flags: HW
LayerCount: 2
Back
Fore
SplineSet
184 739 m 5
 125 739 l 5
 125 799 l 5
 184 799 l 5
 184 739 l 5
122 613 m 1
 62 613 l 1
 62 738 l 1
 122 738 l 1
 122 613 l 1
60 549 m 1
 124 549 l 1
 124 51 l 1
 60 51 l 1
 60 549 l 1
EndSplineSet
EndChar

StartChar: icircumflex
Encoding: 238 238 172
Width: 250
VWidth: 0
Flags: HW
LayerCount: 2
Back
Fore
SplineSet
62.5 300 m 1
 62.5 550 l 1
 93.75 550 l 1
 125 550 l 1
 125 300 l 1
 125 50 l 1
 93.75 50 l 1
 62.5 50 l 1
 62.5 300 l 1
62.5 706.25 m 1
 62.5 737.5 l 1
 125 737.5 l 1
 187.5 737.5 l 1
 187.5 706.25 l 1
 187.5 675 l 1
 218.75 675 l 1
 250 675 l 1
 250 643.75 l 1
 250 612.5 l 1
 218.75 612.5 l 1
 187.5 612.5 l 1
 187.5 643.75 l 1
 187.5 675 l 1
 156.25 675 l 1
 125 675 l 1
 62.5 675 l 1
 62.5 612.5 l 1
 0 612.5 l 1
 0 643.75 l 1
 0 675 l 1
 31.25 675 l 1
 62.5 675 l 1
 62.5 706.25 l 1
EndSplineSet
EndChar

StartChar: idieresis
Encoding: 239 239 173
Width: 250
VWidth: 0
Flags: HW
LayerCount: 2
Back
Fore
SplineSet
62.5 300 m 1
 62.5 550 l 1
 93.75 550 l 1
 125 550 l 1
 125 300 l 1
 125 50 l 1
 93.75 50 l 1
 62.5 50 l 1
 62.5 300 l 1
187 675 m 1
 187 737.5 l 1
 218.25 737.5 l 1
 249.5 737.5 l 1
 249.5 675 l 1
 249.5 612.5 l 1
 218.25 612.5 l 1
 187 612.5 l 1
 187 675 l 1
-0.5 675 m 1
 -0.5 737.5 l 1
 30.75 737.5 l 1
 62 737.5 l 1
 62 675 l 1
 62 612.5 l 1
 30.75 612.5 l 1
 -0.5 612.5 l 1
 -0.5 675 l 1
EndSplineSet
EndChar

StartChar: eth
Encoding: 240 240 174
Width: 562
VWidth: 0
Flags: HW
LayerCount: 2
Back
Fore
SplineSet
187.5 706.25 m 1
 187.5 737.5 l 1
 218.75 737.5 l 1
 250 737.5 l 1
 250 706.25 l 1
 250 675 l 1
 281.25 675 l 1
 312.5 675 l 1
 312.5 643.75 l 1
 312.5 612.5 l 1
 343.75 612.5 l 1
 375 612.5 l 1
 375 643.75 l 1
 375 675 l 1
 406.25 675 l 1
 437.5 675 l 1
 437.5 643.75 l 1
 437.5 612.5 l 1
 406.25 612.5 l 1
 375 612.5 l 1
 375 581.25 l 1
 375 550 l 1
 406.25 550 l 1
 437.5 550 l 1
 437.5 456.25 l 1
 437.5 362.5 l 1
 468.75 362.5 l 1
 500 362.5 l 1
 500 268.75 l 1
 500 175 l 1
 468.75 175 l 1
 437.5 175 l 1
 437.5 143.75 l 1
 437.5 112.5 l 1
 406.25 112.5 l 1
 375 112.5 l 1
 375 81.25 l 1
 375 50 l 1
 281.25 50 l 1
 187.5 50 l 1
 187.5 81.25 l 1
 187.5 112.5 l 1
 156.25 112.5 l 1
 125 112.5 l 1
 125 143.75 l 1
 125 175 l 1
 93.75 175 l 1
 62.5 175 l 1
 62.5 268.75 l 1
 62.5 362.5 l 1
 93.75 362.5 l 1
 125 362.5 l 1
 125 393.75 l 1
 125 425 l 1
 156.25 425 l 1
 187.5 425 l 1
 187.5 456.25 l 1
 187.5 487.5 l 1
 281.25 487.5 l 1
 375 487.5 l 1
 375 518.75 l 1
 375 550 l 1
 343.75 550 l 1
 312.5 550 l 1
 312.5 581.25 l 1
 312.5 612.5 l 1
 281.25 612.5 l 1
 250 612.5 l 1
 250 581.25 l 1
 250 550 l 1
 218.75 550 l 1
 187.5 550 l 1
 187.5 581.25 l 1
 187.5 612.5 l 1
 218.75 612.5 l 1
 250 612.5 l 1
 250 643.75 l 1
 250 675 l 1
 218.75 675 l 1
 187.5 675 l 1
 187.5 706.25 l 1
375 393.75 m 1
 375 425 l 1
 281.25 425 l 1
 187.5 425 l 1
 187.5 393.75 l 1
 187.5 362.5 l 1
 156.25 362.5 l 1
 125 362.5 l 1
 125 268.75 l 1
 125 175 l 1
 156.25 175 l 1
 187.5 175 l 1
 187.5 143.75 l 1
 187.5 112.5 l 1
 281.25 112.5 l 1
 375 112.5 l 1
 375 143.75 l 1
 375 175 l 1
 406.25 175 l 1
 437.5 175 l 1
 437.5 268.75 l 1
 437.5 362.5 l 1
 406.25 362.5 l 1
 375 362.5 l 1
 375 393.75 l 1
EndSplineSet
EndChar

StartChar: ntilde
Encoding: 241 241 175
Width: 500
VWidth: 0
Flags: HW
LayerCount: 2
Back
Fore
SplineSet
62.5 268.75 m 1
 62.5 487.5 l 1
 93.75 487.5 l 1
 125 487.5 l 1
 125 456.25 l 1
 125 425 l 1
 156.25 425 l 1
 187.5 425 l 1
 187.5 456.25 l 1
 187.5 487.5 l 1
 281.25 487.5 l 1
 375 487.5 l 1
 375 456.25 l 1
 375 425 l 1
 406.25 425 l 1
 437.5 425 l 1
 437.5 237.5 l 1
 437.5 50 l 1
 406.25 50 l 1
 375 50 l 1
 375 237.5 l 1
 375 425 l 1
 281.25 425 l 1
 187.5 425 l 1
 187.5 393.75 l 1
 187.5 362.5 l 1
 156.25 362.5 l 1
 125 362.5 l 1
 125 237.5 l 1
 125 112.5 l 1
 156.25 112.5 l 1
 187.5 112.5 l 1
 187.5 81.25 l 1
 187.5 50 l 1
 125 50 l 1
 62.5 50 l 1
 62.5 268.75 l 1
125 643.75 m 1
 125 675 l 1
 187.5 675 l 1
 250 675 l 1
 250 643.75 l 1
 250 612.5 l 1
 312.5 612.5 l 1
 375 612.5 l 1
 375 643.75 l 1
 375 675 l 1
 406.25 675 l 1
 437.5 675 l 1
 437.5 643.75 l 1
 437.5 612.5 l 1
 406.25 612.5 l 1
 375 612.5 l 1
 375 581.25 l 1
 375 550 l 1
 312.5 550 l 1
 250 550 l 1
 250 581.25 l 1
 250 612.5 l 1
 187.5 612.5 l 1
 125 612.5 l 1
 125 581.25 l 1
 125 550 l 1
 93.75 550 l 1
 62.5 550 l 1
 62.5 581.25 l 1
 62.5 612.5 l 1
 93.75 612.5 l 1
 125 612.5 l 1
 125 643.75 l 1
EndSplineSet
EndChar

StartChar: ograve
Encoding: 242 242 176
Width: 562
VWidth: 0
Flags: HW
LayerCount: 2
Back
Fore
SplineSet
187.5 456.25 m 1
 187.5 487.5 l 1
 281.25 487.5 l 1
 375 487.5 l 1
 375 456.25 l 1
 375 425 l 1
 406.25 425 l 1
 437.5 425 l 1
 437.5 393.75 l 1
 437.5 362.5 l 1
 468.75 362.5 l 1
 500 362.5 l 1
 500 268.75 l 1
 500 175 l 1
 468.75 175 l 1
 437.5 175 l 1
 437.5 143.75 l 1
 437.5 112.5 l 1
 406.25 112.5 l 1
 375 112.5 l 1
 375 81.25 l 1
 375 50 l 1
 281.25 50 l 1
 187.5 50 l 1
 187.5 81.25 l 1
 187.5 112.5 l 1
 156.25 112.5 l 1
 125 112.5 l 1
 125 143.75 l 1
 125 175 l 1
 93.75 175 l 1
 62.5 175 l 1
 62.5 268.75 l 1
 62.5 362.5 l 1
 93.75 362.5 l 1
 125 362.5 l 1
 125 393.75 l 1
 125 425 l 1
 156.25 425 l 1
 187.5 425 l 1
 187.5 456.25 l 1
375 393.75 m 1
 375 425 l 1
 281.25 425 l 1
 187.5 425 l 1
 187.5 393.75 l 1
 187.5 362.5 l 1
 156.25 362.5 l 1
 125 362.5 l 1
 125 268.75 l 1
 125 175 l 1
 156.25 175 l 1
 187.5 175 l 1
 187.5 143.75 l 1
 187.5 112.5 l 1
 281.25 112.5 l 1
 375 112.5 l 1
 375 143.75 l 1
 375 175 l 1
 406.25 175 l 1
 437.5 175 l 1
 437.5 268.75 l 1
 437.5 362.5 l 1
 406.25 362.5 l 1
 375 362.5 l 1
 375 393.75 l 1
187.5 643.75 m 1
 187.5 675 l 1
 218.75 675 l 1
 250 675 l 1
 250 643.75 l 1
 250 612.5 l 1
 281.25 612.5 l 1
 312.5 612.5 l 1
 312.5 581.25 l 1
 312.5 550 l 1
 281.25 550 l 1
 250 550 l 1
 250 581.25 l 1
 250 612.5 l 1
 218.75 612.5 l 1
 187.5 612.5 l 1
 187.5 643.75 l 1
EndSplineSet
EndChar

StartChar: oacute
Encoding: 243 243 177
Width: 562
VWidth: 0
Flags: HW
LayerCount: 2
Back
Fore
SplineSet
187.5 456.25 m 1
 187.5 487.5 l 1
 281.25 487.5 l 1
 375 487.5 l 1
 375 456.25 l 1
 375 425 l 1
 406.25 425 l 1
 437.5 425 l 1
 437.5 393.75 l 1
 437.5 362.5 l 1
 468.75 362.5 l 1
 500 362.5 l 1
 500 268.75 l 1
 500 175 l 1
 468.75 175 l 1
 437.5 175 l 1
 437.5 143.75 l 1
 437.5 112.5 l 1
 406.25 112.5 l 1
 375 112.5 l 1
 375 81.25 l 1
 375 50 l 1
 281.25 50 l 1
 187.5 50 l 1
 187.5 81.25 l 1
 187.5 112.5 l 1
 156.25 112.5 l 1
 125 112.5 l 1
 125 143.75 l 1
 125 175 l 1
 93.75 175 l 1
 62.5 175 l 1
 62.5 268.75 l 1
 62.5 362.5 l 1
 93.75 362.5 l 1
 125 362.5 l 1
 125 393.75 l 1
 125 425 l 1
 156.25 425 l 1
 187.5 425 l 1
 187.5 456.25 l 1
375 393.75 m 1
 375 425 l 1
 281.25 425 l 1
 187.5 425 l 1
 187.5 393.75 l 1
 187.5 362.5 l 1
 156.25 362.5 l 1
 125 362.5 l 1
 125 268.75 l 1
 125 175 l 1
 156.25 175 l 1
 187.5 175 l 1
 187.5 143.75 l 1
 187.5 112.5 l 1
 281.25 112.5 l 1
 375 112.5 l 1
 375 143.75 l 1
 375 175 l 1
 406.25 175 l 1
 437.5 175 l 1
 437.5 268.75 l 1
 437.5 362.5 l 1
 406.25 362.5 l 1
 375 362.5 l 1
 375 393.75 l 1
312.5 643.75 m 1
 312.5 675 l 1
 343.75 675 l 1
 375 675 l 1
 375 643.75 l 1
 375 612.5 l 1
 343.75 612.5 l 1
 312.5 612.5 l 1
 312.5 581.25 l 1
 312.5 550 l 1
 281.25 550 l 1
 250 550 l 1
 250 581.25 l 1
 250 612.5 l 1
 281.25 612.5 l 1
 312.5 612.5 l 1
 312.5 643.75 l 1
EndSplineSet
EndChar

StartChar: ocircumflex
Encoding: 244 244 178
Width: 562
VWidth: 0
Flags: HW
LayerCount: 2
Back
Fore
SplineSet
187.5 456.25 m 1
 187.5 487.5 l 1
 281.25 487.5 l 1
 375 487.5 l 1
 375 456.25 l 1
 375 425 l 1
 406.25 425 l 1
 437.5 425 l 1
 437.5 393.75 l 1
 437.5 362.5 l 1
 468.75 362.5 l 1
 500 362.5 l 1
 500 268.75 l 1
 500 175 l 1
 468.75 175 l 1
 437.5 175 l 1
 437.5 143.75 l 1
 437.5 112.5 l 1
 406.25 112.5 l 1
 375 112.5 l 1
 375 81.25 l 1
 375 50 l 1
 281.25 50 l 1
 187.5 50 l 1
 187.5 81.25 l 1
 187.5 112.5 l 1
 156.25 112.5 l 1
 125 112.5 l 1
 125 143.75 l 1
 125 175 l 1
 93.75 175 l 1
 62.5 175 l 1
 62.5 268.75 l 1
 62.5 362.5 l 1
 93.75 362.5 l 1
 125 362.5 l 1
 125 393.75 l 1
 125 425 l 1
 156.25 425 l 1
 187.5 425 l 1
 187.5 456.25 l 1
375 393.75 m 1
 375 425 l 1
 281.25 425 l 1
 187.5 425 l 1
 187.5 393.75 l 1
 187.5 362.5 l 1
 156.25 362.5 l 1
 125 362.5 l 1
 125 268.75 l 1
 125 175 l 1
 156.25 175 l 1
 187.5 175 l 1
 187.5 143.75 l 1
 187.5 112.5 l 1
 281.25 112.5 l 1
 375 112.5 l 1
 375 143.75 l 1
 375 175 l 1
 406.25 175 l 1
 437.5 175 l 1
 437.5 268.75 l 1
 437.5 362.5 l 1
 406.25 362.5 l 1
 375 362.5 l 1
 375 393.75 l 1
250 643.75 m 1
 250 675 l 1
 312.5 675 l 1
 375 675 l 1
 375 643.75 l 1
 375 612.5 l 1
 406.25 612.5 l 1
 437.5 612.5 l 1
 437.5 581.25 l 1
 437.5 550 l 1
 406.25 550 l 1
 375 550 l 1
 375 581.25 l 1
 375 612.5 l 1
 312.5 612.5 l 1
 250 612.5 l 1
 250 581.25 l 1
 250 550 l 1
 218.75 550 l 1
 187.5 550 l 1
 187.5 581.25 l 1
 187.5 612.5 l 1
 218.75 612.5 l 1
 250 612.5 l 1
 250 643.75 l 1
EndSplineSet
EndChar

StartChar: otilde
Encoding: 245 245 179
Width: 562
VWidth: 0
Flags: HW
LayerCount: 2
Back
Fore
SplineSet
187.5 456.25 m 1
 187.5 487.5 l 1
 281.25 487.5 l 1
 375 487.5 l 1
 375 456.25 l 1
 375 425 l 1
 406.25 425 l 1
 437.5 425 l 1
 437.5 393.75 l 1
 437.5 362.5 l 1
 468.75 362.5 l 1
 500 362.5 l 1
 500 268.75 l 1
 500 175 l 1
 468.75 175 l 1
 437.5 175 l 1
 437.5 143.75 l 1
 437.5 112.5 l 1
 406.25 112.5 l 1
 375 112.5 l 1
 375 81.25 l 1
 375 50 l 1
 281.25 50 l 1
 187.5 50 l 1
 187.5 81.25 l 1
 187.5 112.5 l 1
 156.25 112.5 l 1
 125 112.5 l 1
 125 143.75 l 1
 125 175 l 1
 93.75 175 l 1
 62.5 175 l 1
 62.5 268.75 l 1
 62.5 362.5 l 1
 93.75 362.5 l 1
 125 362.5 l 1
 125 393.75 l 1
 125 425 l 1
 156.25 425 l 1
 187.5 425 l 1
 187.5 456.25 l 1
375 393.75 m 1
 375 425 l 1
 281.25 425 l 1
 187.5 425 l 1
 187.5 393.75 l 1
 187.5 362.5 l 1
 156.25 362.5 l 1
 125 362.5 l 1
 125 268.75 l 1
 125 175 l 1
 156.25 175 l 1
 187.5 175 l 1
 187.5 143.75 l 1
 187.5 112.5 l 1
 281.25 112.5 l 1
 375 112.5 l 1
 375 143.75 l 1
 375 175 l 1
 406.25 175 l 1
 437.5 175 l 1
 437.5 268.75 l 1
 437.5 362.5 l 1
 406.25 362.5 l 1
 375 362.5 l 1
 375 393.75 l 1
187.5 643.75 m 1
 187.5 675 l 1
 250 675 l 1
 312.5 675 l 1
 312.5 643.75 l 1
 312.5 612.5 l 1
 375 612.5 l 1
 437.5 612.5 l 1
 437.5 643.75 l 1
 437.5 675 l 1
 468.75 675 l 1
 500 675 l 1
 500 643.75 l 1
 500 612.5 l 1
 468.75 612.5 l 1
 437.5 612.5 l 1
 437.5 581.25 l 1
 437.5 550 l 1
 375 550 l 1
 312.5 550 l 1
 312.5 581.25 l 1
 312.5 612.5 l 1
 250 612.5 l 1
 187.5 612.5 l 1
 187.5 581.25 l 1
 187.5 550 l 1
 156.25 550 l 1
 125 550 l 1
 125 581.25 l 1
 125 612.5 l 1
 156.25 612.5 l 1
 187.5 612.5 l 1
 187.5 643.75 l 1
EndSplineSet
EndChar

StartChar: odieresis
Encoding: 246 246 180
Width: 562
VWidth: 0
Flags: HW
LayerCount: 2
Back
Fore
SplineSet
187.5 456.25 m 1
 187.5 487.5 l 1
 281.25 487.5 l 1
 375 487.5 l 1
 375 456.25 l 1
 375 425 l 1
 406.25 425 l 1
 437.5 425 l 1
 437.5 393.75 l 1
 437.5 362.5 l 1
 468.75 362.5 l 1
 500 362.5 l 1
 500 268.75 l 1
 500 175 l 1
 468.75 175 l 1
 437.5 175 l 1
 437.5 143.75 l 1
 437.5 112.5 l 1
 406.25 112.5 l 1
 375 112.5 l 1
 375 81.25 l 1
 375 50 l 1
 281.25 50 l 1
 187.5 50 l 1
 187.5 81.25 l 1
 187.5 112.5 l 1
 156.25 112.5 l 1
 125 112.5 l 1
 125 143.75 l 1
 125 175 l 1
 93.75 175 l 1
 62.5 175 l 1
 62.5 268.75 l 1
 62.5 362.5 l 1
 93.75 362.5 l 1
 125 362.5 l 1
 125 393.75 l 1
 125 425 l 1
 156.25 425 l 1
 187.5 425 l 1
 187.5 456.25 l 1
375 393.75 m 1
 375 425 l 1
 281.25 425 l 1
 187.5 425 l 1
 187.5 393.75 l 1
 187.5 362.5 l 1
 156.25 362.5 l 1
 125 362.5 l 1
 125 268.75 l 1
 125 175 l 1
 156.25 175 l 1
 187.5 175 l 1
 187.5 143.75 l 1
 187.5 112.5 l 1
 281.25 112.5 l 1
 375 112.5 l 1
 375 143.75 l 1
 375 175 l 1
 406.25 175 l 1
 437.5 175 l 1
 437.5 268.75 l 1
 437.5 362.5 l 1
 406.25 362.5 l 1
 375 362.5 l 1
 375 393.75 l 1
375 612.5 m 1
 375 675 l 1
 406.25 675 l 1
 437.5 675 l 1
 437.5 612.5 l 1
 437.5 550 l 1
 406.25 550 l 1
 375 550 l 1
 375 612.5 l 1
187.5 612.5 m 1
 187.5 675 l 1
 218.75 675 l 1
 250 675 l 1
 250 612.5 l 1
 250 550 l 1
 218.75 550 l 1
 187.5 550 l 1
 187.5 612.5 l 1
EndSplineSet
EndChar

StartChar: divide
Encoding: 247 247 181
Width: 437
VWidth: 0
Flags: HW
LayerCount: 2
Back
Fore
SplineSet
187.5 268.75 m 1
 187.5 300 l 1
 218.75 300 l 1
 250 300 l 1
 250 268.75 l 1
 250 237.5 l 1
 218.75 237.5 l 1
 187.5 237.5 l 1
 187.5 268.75 l 1
62.5 393.75 m 1
 62.5 425 l 1
 218.75 425 l 1
 375 425 l 1
 375 393.75 l 1
 375 362.5 l 1
 218.75 362.5 l 1
 62.5 362.5 l 1
 62.5 393.75 l 1
187.5 518.75 m 1
 187.5 550 l 1
 218.75 550 l 1
 250 550 l 1
 250 518.75 l 1
 250 487.5 l 1
 218.75 487.5 l 1
 187.5 487.5 l 1
 187.5 518.75 l 1
EndSplineSet
EndChar

StartChar: oslash
Encoding: 248 248 182
Width: 562
VWidth: 0
Flags: HW
LayerCount: 2
Back
Fore
SplineSet
312.5 331.25 m 1
 312.5 362.5 l 1
 343.75 362.5 l 1
 375 362.5 l 1
 375 331.25 l 1
 375 300 l 1
 343.75 300 l 1
 312.5 300 l 1
 312.5 268.75 l 1
 312.5 237.5 l 1
 281.25 237.5 l 1
 250 237.5 l 1
 250 206.25 l 1
 250 175 l 1
 218.75 175 l 1
 187.5 175 l 1
 187.5 206.25 l 1
 187.5 237.5 l 1
 218.75 237.5 l 1
 250 237.5 l 1
 250 268.75 l 1
 250 300 l 1
 281.25 300 l 1
 312.5 300 l 1
 312.5 331.25 l 1
187.5 456.25 m 1
 187.5 487.5 l 1
 281.25 487.5 l 1
 375 487.5 l 1
 375 456.25 l 1
 375 425 l 1
 406.25 425 l 1
 437.5 425 l 1
 437.5 456.25 l 1
 437.5 487.5 l 1
 468.75 487.5 l 1
 500 487.5 l 1
 500 456.25 l 1
 500 425 l 1
 468.75 425 l 1
 437.5 425 l 1
 437.5 393.75 l 1
 437.5 362.5 l 1
 468.75 362.5 l 1
 500 362.5 l 1
 500 268.75 l 1
 500 175 l 1
 468.75 175 l 1
 437.5 175 l 1
 437.5 143.75 l 1
 437.5 112.5 l 1
 406.25 112.5 l 1
 375 112.5 l 1
 375 81.25 l 1
 375 50 l 1
 281.25 50 l 1
 187.5 50 l 1
 187.5 81.25 l 1
 187.5 112.5 l 1
 156.25 112.5 l 1
 125 112.5 l 1
 125 81.25 l 1
 125 50 l 1
 93.75 50 l 1
 62.5 50 l 1
 62.5 81.25 l 1
 62.5 112.5 l 1
 93.75 112.5 l 1
 125 112.5 l 1
 125 143.75 l 1
 125 175 l 1
 93.75 175 l 1
 62.5 175 l 1
 62.5 268.75 l 1
 62.5 362.5 l 1
 93.75 362.5 l 1
 125 362.5 l 1
 125 393.75 l 1
 125 425 l 1
 156.25 425 l 1
 187.5 425 l 1
 187.5 456.25 l 1
375 393.75 m 1
 375 425 l 1
 281.25 425 l 1
 187.5 425 l 1
 187.5 393.75 l 1
 187.5 362.5 l 1
 156.25 362.5 l 1
 125 362.5 l 1
 125 268.75 l 1
 125 175 l 1
 156.25 175 l 1
 187.5 175 l 1
 187.5 143.75 l 1
 187.5 112.5 l 1
 281.25 112.5 l 1
 375 112.5 l 1
 375 143.75 l 1
 375 175 l 1
 406.25 175 l 1
 437.5 175 l 1
 437.5 268.75 l 1
 437.5 362.5 l 1
 406.25 362.5 l 1
 375 362.5 l 1
 375 393.75 l 1
EndSplineSet
EndChar

StartChar: ugrave
Encoding: 249 249 183
Width: 562
VWidth: 0
Flags: HW
LayerCount: 2
Back
Fore
SplineSet
62.5 300 m 1
 62.5 487.5 l 1
 93.75 487.5 l 1
 125 487.5 l 1
 125 300 l 1
 125 112.5 l 1
 250 112.5 l 1
 375 112.5 l 1
 375 300 l 1
 375 487.5 l 1
 406.25 487.5 l 1
 437.5 487.5 l 1
 437.5 300 l 1
 437.5 112.5 l 1
 468.75 112.5 l 1
 500 112.5 l 1
 500 81.25 l 1
 500 50 l 1
 468.75 50 l 1
 437.5 50 l 1
 437.5 81.25 l 1
 437.5 112.5 l 1
 406.25 112.5 l 1
 375 112.5 l 1
 375 81.25 l 1
 375 50 l 1
 250 50 l 1
 125 50 l 1
 125 81.25 l 1
 125 112.5 l 1
 93.75 112.5 l 1
 62.5 112.5 l 1
 62.5 300 l 1
125 643.75 m 1
 125 675 l 1
 156.25 675 l 1
 187.5 675 l 1
 187.5 643.75 l 1
 187.5 612.5 l 1
 218.75 612.5 l 1
 250 612.5 l 1
 250 581.25 l 1
 250 550 l 1
 218.75 550 l 1
 187.5 550 l 1
 187.5 581.25 l 1
 187.5 612.5 l 1
 156.25 612.5 l 1
 125 612.5 l 1
 125 643.75 l 1
EndSplineSet
EndChar

StartChar: uacute
Encoding: 250 250 184
Width: 562
VWidth: 0
Flags: HW
LayerCount: 2
Back
Fore
SplineSet
62.5 300 m 1
 62.5 487.5 l 1
 93.75 487.5 l 1
 125 487.5 l 1
 125 300 l 1
 125 112.5 l 1
 250 112.5 l 1
 375 112.5 l 1
 375 300 l 1
 375 487.5 l 1
 406.25 487.5 l 1
 437.5 487.5 l 1
 437.5 300 l 1
 437.5 112.5 l 1
 468.75 112.5 l 1
 500 112.5 l 1
 500 81.25 l 1
 500 50 l 1
 468.75 50 l 1
 437.5 50 l 1
 437.5 81.25 l 1
 437.5 112.5 l 1
 406.25 112.5 l 1
 375 112.5 l 1
 375 81.25 l 1
 375 50 l 1
 250 50 l 1
 125 50 l 1
 125 81.25 l 1
 125 112.5 l 1
 93.75 112.5 l 1
 62.5 112.5 l 1
 62.5 300 l 1
250 643.75 m 1
 250 675 l 1
 281.25 675 l 1
 312.5 675 l 1
 312.5 643.75 l 1
 312.5 612.5 l 1
 281.25 612.5 l 1
 250 612.5 l 1
 250 581.25 l 1
 250 550 l 1
 218.75 550 l 1
 187.5 550 l 1
 187.5 581.25 l 1
 187.5 612.5 l 1
 218.75 612.5 l 1
 250 612.5 l 1
 250 643.75 l 1
EndSplineSet
EndChar

StartChar: ucircumflex
Encoding: 251 251 185
Width: 562
VWidth: 0
Flags: HW
LayerCount: 2
Back
Fore
SplineSet
62.5 300 m 1
 62.5 487.5 l 1
 93.75 487.5 l 1
 125 487.5 l 1
 125 300 l 1
 125 112.5 l 1
 250 112.5 l 1
 375 112.5 l 1
 375 300 l 1
 375 487.5 l 1
 406.25 487.5 l 1
 437.5 487.5 l 1
 437.5 300 l 1
 437.5 112.5 l 1
 468.75 112.5 l 1
 500 112.5 l 1
 500 81.25 l 1
 500 50 l 1
 468.75 50 l 1
 437.5 50 l 1
 437.5 81.25 l 1
 437.5 112.5 l 1
 406.25 112.5 l 1
 375 112.5 l 1
 375 81.25 l 1
 375 50 l 1
 250 50 l 1
 125 50 l 1
 125 81.25 l 1
 125 112.5 l 1
 93.75 112.5 l 1
 62.5 112.5 l 1
 62.5 300 l 1
187.5 643.75 m 1
 187.5 675 l 1
 250 675 l 1
 312.5 675 l 1
 312.5 643.75 l 1
 312.5 612.5 l 1
 343.75 612.5 l 1
 375 612.5 l 1
 375 581.25 l 1
 375 550 l 1
 343.75 550 l 1
 312.5 550 l 1
 312.5 581.25 l 1
 312.5 612.5 l 1
 250 612.5 l 1
 187.5 612.5 l 1
 187.5 581.25 l 1
 187.5 550 l 1
 156.25 550 l 1
 125 550 l 1
 125 581.25 l 1
 125 612.5 l 1
 156.25 612.5 l 1
 187.5 612.5 l 1
 187.5 643.75 l 1
EndSplineSet
EndChar

StartChar: udieresis
Encoding: 252 252 186
Width: 562
VWidth: 0
Flags: HW
LayerCount: 2
Back
Fore
SplineSet
62.5 300 m 1
 62.5 487.5 l 1
 93.75 487.5 l 1
 125 487.5 l 1
 125 300 l 1
 125 112.5 l 1
 250 112.5 l 1
 375 112.5 l 1
 375 300 l 1
 375 487.5 l 1
 406.25 487.5 l 1
 437.5 487.5 l 1
 437.5 300 l 1
 437.5 112.5 l 1
 468.75 112.5 l 1
 500 112.5 l 1
 500 81.25 l 1
 500 50 l 1
 468.75 50 l 1
 437.5 50 l 1
 437.5 81.25 l 1
 437.5 112.5 l 1
 406.25 112.5 l 1
 375 112.5 l 1
 375 81.25 l 1
 375 50 l 1
 250 50 l 1
 125 50 l 1
 125 81.25 l 1
 125 112.5 l 1
 93.75 112.5 l 1
 62.5 112.5 l 1
 62.5 300 l 1
312.5 612.5 m 1
 312.5 675 l 1
 343.75 675 l 1
 375 675 l 1
 375 612.5 l 1
 375 550 l 1
 343.75 550 l 1
 312.5 550 l 1
 312.5 612.5 l 1
125 612.5 m 1
 125 675 l 1
 156.25 675 l 1
 187.5 675 l 1
 187.5 612.5 l 1
 187.5 550 l 1
 156.25 550 l 1
 125 550 l 1
 125 612.5 l 1
EndSplineSet
EndChar

StartChar: yacute
Encoding: 253 253 187
Width: 437
VWidth: 0
Flags: HW
LayerCount: 2
Back
Fore
SplineSet
62.5 300 m 1
 62.5 487.5 l 1
 93.75 487.5 l 1
 125 487.5 l 1
 125 300 l 1
 125 112.5 l 1
 218.75 112.5 l 1
 312.5 112.5 l 1
 312.5 300 l 1
 312.5 487.5 l 1
 343.75 487.5 l 1
 375 487.5 l 1
 375 143.75 l 1
 375 -200 l 1
 312.5 -200 l 1
 250 -200 l 1
 250 -168.75 l 1
 250 -137.5 l 1
 281.25 -137.5 l 1
 312.5 -137.5 l 1
 312.5 -43.75 l 1
 312.5 50 l 1
 218.75 50 l 1
 125 50 l 1
 125 81.25 l 1
 125 112.5 l 1
 93.75 112.5 l 1
 62.5 112.5 l 1
 62.5 300 l 1
250 581.25 m 1
 250 612.5 l 1
 281.25 612.5 l 1
 312.5 612.5 l 1
 312.5 581.25 l 1
 312.5 550 l 1
 281.25 550 l 1
 250 550 l 1
 250 518.75 l 1
 250 487.5 l 1
 218.75 487.5 l 1
 187.5 487.5 l 1
 187.5 518.75 l 1
 187.5 550 l 1
 218.75 550 l 1
 250 550 l 1
 250 581.25 l 1
EndSplineSet
EndChar

StartChar: thorn
Encoding: 254 254 188
Width: 500
VWidth: 0
Flags: HW
LayerCount: 2
Back
Fore
SplineSet
62.5 300 m 1
 62.5 675 l 1
 93.75 675 l 1
 125 675 l 1
 125 581.25 l 1
 125 487.5 l 1
 250 487.5 l 1
 375 487.5 l 1
 375 456.25 l 1
 375 425 l 1
 406.25 425 l 1
 437.5 425 l 1
 437.5 300 l 1
 437.5 175 l 1
 406.25 175 l 1
 375 175 l 1
 375 143.75 l 1
 375 112.5 l 1
 250 112.5 l 1
 125 112.5 l 1
 125 18.75 l 1
 125 -75 l 1
 93.75 -75 l 1
 62.5 -75 l 1
 62.5 300 l 1
375 300 m 1
 375 425 l 1
 250 425 l 1
 125 425 l 1
 125 300 l 1
 125 175 l 1
 250 175 l 1
 375 175 l 1
 375 300 l 1
EndSplineSet
EndChar

StartChar: ydieresis
Encoding: 255 255 189
Width: 437
VWidth: 0
Flags: HW
LayerCount: 2
Back
Fore
SplineSet
62.5 300 m 1
 62.5 487.5 l 1
 93.75 487.5 l 1
 125 487.5 l 1
 125 300 l 1
 125 112.5 l 1
 218.75 112.5 l 1
 312.5 112.5 l 1
 312.5 300 l 1
 312.5 487.5 l 1
 343.75 487.5 l 1
 375 487.5 l 1
 375 143.75 l 1
 375 -200 l 1
 312.5 -200 l 1
 250 -200 l 1
 250 -168.75 l 1
 250 -137.5 l 1
 281.25 -137.5 l 1
 312.5 -137.5 l 1
 312.5 -43.75 l 1
 312.5 50 l 1
 218.75 50 l 1
 125 50 l 1
 125 81.25 l 1
 125 112.5 l 1
 93.75 112.5 l 1
 62.5 112.5 l 1
 62.5 300 l 1
312.5 612.5 m 1
 312.5 675 l 1
 343.75 675 l 1
 375 675 l 1
 375 612.5 l 1
 375 550 l 1
 343.75 550 l 1
 312.5 550 l 1
 312.5 612.5 l 1
125 612.5 m 1
 125 675 l 1
 156.25 675 l 1
 187.5 675 l 1
 187.5 612.5 l 1
 187.5 550 l 1
 156.25 550 l 1
 125 550 l 1
 125 612.5 l 1
EndSplineSet
EndChar

StartChar: Amacron
Encoding: 256 256 190
Width: 562
VWidth: 0
Flags: HW
LayerCount: 2
Back
Fore
SplineSet
187.5 706.25 m 1
 187.5 737.5 l 1
 312.5 737.5 l 1
 437.5 737.5 l 1
 437.5 706.25 l 1
 437.5 675 l 1
 468.75 675 l 1
 500 675 l 1
 500 643.75 l 1
 500 612.5 l 1
 531.25 612.5 l 1
 562.5 612.5 l 1
 562.5 331.25 l 1
 562.5 50 l 1
 531.25 50 l 1
 500 50 l 1
 500 175 l 1
 500 300 l 1
 437.5 300 l 1
 375 300 l 1
 375 331.25 l 1
 375 362.5 l 1
 437.5 362.5 l 1
 500 362.5 l 1
 500 487.5 l 1
 500 612.5 l 1
 468.75 612.5 l 1
 437.5 612.5 l 1
 437.5 643.75 l 1
 437.5 675 l 1
 312.5 675 l 1
 187.5 675 l 1
 187.5 643.75 l 1
 187.5 612.5 l 1
 156.25 612.5 l 1
 125 612.5 l 1
 125 487.5 l 1
 125 362.5 l 1
 187.5 362.5 l 1
 250 362.5 l 1
 250 331.25 l 1
 250 300 l 1
 187.5 300 l 1
 125 300 l 1
 125 175 l 1
 125 50 l 1
 93.75 50 l 1
 62.5 50 l 1
 62.5 331.25 l 1
 62.5 612.5 l 1
 93.75 612.5 l 1
 125 612.5 l 1
 125 643.75 l 1
 125 675 l 1
 156.25 675 l 1
 187.5 675 l 1
 187.5 706.25 l 1
125 831.25 m 1
 125 862.5 l 1
 312.5 862.5 l 1
 500 862.5 l 1
 500 831.25 l 1
 500 800 l 1
 312.5 800 l 1
 125 800 l 1
 125 831.25 l 1
EndSplineSet
EndChar

StartChar: amacron
Encoding: 257 257 191
Width: 625
VWidth: 0
Flags: HW
LayerCount: 2
Back
Fore
SplineSet
125 456.25 m 1
 125 487.5 l 1
 281.25 487.5 l 1
 437.5 487.5 l 1
 437.5 300 l 1
 437.5 112.5 l 1
 500 112.5 l 1
 562.5 112.5 l 1
 562.5 81.25 l 1
 562.5 50 l 1
 500 50 l 1
 437.5 50 l 1
 437.5 81.25 l 1
 437.5 112.5 l 1
 406.25 112.5 l 1
 375 112.5 l 1
 375 81.25 l 1
 375 50 l 1
 250 50 l 1
 125 50 l 1
 125 81.25 l 1
 125 112.5 l 1
 93.75 112.5 l 1
 62.5 112.5 l 1
 62.5 268.75 l 1
 62.5 425 l 1
 93.75 425 l 1
 125 425 l 1
 125 456.25 l 1
375 300 m 1
 375 425 l 1
 281.25 425 l 1
 187.5 425 l 1
 187.5 393.75 l 1
 187.5 362.5 l 1
 156.25 362.5 l 1
 125 362.5 l 1
 125 237.5 l 1
 125 112.5 l 1
 218.75 112.5 l 1
 312.5 112.5 l 1
 312.5 143.75 l 1
 312.5 175 l 1
 343.75 175 l 1
 375 175 l 1
 375 300 l 1
62.5 581.25 m 1
 62.5 612.5 l 1
 250 612.5 l 1
 437.5 612.5 l 1
 437.5 581.25 l 1
 437.5 550 l 1
 250 550 l 1
 62.5 550 l 1
 62.5 581.25 l 1
EndSplineSet
EndChar

StartChar: Abreve
Encoding: 258 258 192
Width: 562
VWidth: 0
Flags: HW
LayerCount: 2
Back
Fore
SplineSet
187.5 706.25 m 1
 187.5 737.5 l 1
 312.5 737.5 l 1
 437.5 737.5 l 1
 437.5 706.25 l 1
 437.5 675 l 1
 468.75 675 l 1
 500 675 l 1
 500 643.75 l 1
 500 612.5 l 1
 531.25 612.5 l 1
 562.5 612.5 l 1
 562.5 331.25 l 1
 562.5 50 l 1
 531.25 50 l 1
 500 50 l 1
 500 175 l 1
 500 300 l 1
 437.5 300 l 1
 375 300 l 1
 375 331.25 l 1
 375 362.5 l 1
 437.5 362.5 l 1
 500 362.5 l 1
 500 487.5 l 1
 500 612.5 l 1
 468.75 612.5 l 1
 437.5 612.5 l 1
 437.5 643.75 l 1
 437.5 675 l 1
 312.5 675 l 1
 187.5 675 l 1
 187.5 643.75 l 1
 187.5 612.5 l 1
 156.25 612.5 l 1
 125 612.5 l 1
 125 487.5 l 1
 125 362.5 l 1
 187.5 362.5 l 1
 250 362.5 l 1
 250 331.25 l 1
 250 300 l 1
 187.5 300 l 1
 125 300 l 1
 125 175 l 1
 125 50 l 1
 93.75 50 l 1
 62.5 50 l 1
 62.5 331.25 l 1
 62.5 612.5 l 1
 93.75 612.5 l 1
 125 612.5 l 1
 125 643.75 l 1
 125 675 l 1
 156.25 675 l 1
 187.5 675 l 1
 187.5 706.25 l 1
187.5 893.75 m 1
 187.5 925 l 1
 218.75 925 l 1
 250 925 l 1
 250 893.75 l 1
 250 862.5 l 1
 312.5 862.5 l 1
 375 862.5 l 1
 375 893.75 l 1
 375 925 l 1
 406.25 925 l 1
 437.5 925 l 1
 437.5 893.75 l 1
 437.5 862.5 l 1
 406.25 862.5 l 1
 375 862.5 l 1
 375 831.25 l 1
 375 800 l 1
 312.5 800 l 1
 250 800 l 1
 250 831.25 l 1
 250 862.5 l 1
 218.75 862.5 l 1
 187.5 862.5 l 1
 187.5 893.75 l 1
EndSplineSet
EndChar

StartChar: abreve
Encoding: 259 259 193
Width: 625
VWidth: 0
Flags: HW
LayerCount: 2
Back
Fore
SplineSet
125 456.25 m 1
 125 487.5 l 1
 281.25 487.5 l 1
 437.5 487.5 l 1
 437.5 300 l 1
 437.5 112.5 l 1
 500 112.5 l 1
 562.5 112.5 l 1
 562.5 81.25 l 1
 562.5 50 l 1
 500 50 l 1
 437.5 50 l 1
 437.5 81.25 l 1
 437.5 112.5 l 1
 406.25 112.5 l 1
 375 112.5 l 1
 375 81.25 l 1
 375 50 l 1
 250 50 l 1
 125 50 l 1
 125 81.25 l 1
 125 112.5 l 1
 93.75 112.5 l 1
 62.5 112.5 l 1
 62.5 268.75 l 1
 62.5 425 l 1
 93.75 425 l 1
 125 425 l 1
 125 456.25 l 1
375 300 m 1
 375 425 l 1
 281.25 425 l 1
 187.5 425 l 1
 187.5 393.75 l 1
 187.5 362.5 l 1
 156.25 362.5 l 1
 125 362.5 l 1
 125 237.5 l 1
 125 112.5 l 1
 218.75 112.5 l 1
 312.5 112.5 l 1
 312.5 143.75 l 1
 312.5 175 l 1
 343.75 175 l 1
 375 175 l 1
 375 300 l 1
125 643.75 m 1
 125 675 l 1
 156.25 675 l 1
 187.5 675 l 1
 187.5 643.75 l 1
 187.5 612.5 l 1
 250 612.5 l 1
 312.5 612.5 l 1
 312.5 643.75 l 1
 312.5 675 l 1
 343.75 675 l 1
 375 675 l 1
 375 643.75 l 1
 375 612.5 l 1
 343.75 612.5 l 1
 312.5 612.5 l 1
 312.5 581.25 l 1
 312.5 550 l 1
 250 550 l 1
 187.5 550 l 1
 187.5 581.25 l 1
 187.5 612.5 l 1
 156.25 612.5 l 1
 125 612.5 l 1
 125 643.75 l 1
EndSplineSet
EndChar

StartChar: Aogonek
Encoding: 260 260 194
Width: 625
VWidth: 0
Flags: HW
LayerCount: 2
Back
Fore
SplineSet
187.5 706.25 m 1
 187.5 737.5 l 1
 312.5 737.5 l 1
 437.5 737.5 l 1
 437.5 706.25 l 1
 437.5 675 l 1
 468.75 675 l 1
 500 675 l 1
 500 643.75 l 1
 500 612.5 l 1
 531.25 612.5 l 1
 562.5 612.5 l 1
 562.5 331.25 l 1
 562.5 50 l 1
 531.25 50 l 1
 500 50 l 1
 500 18.75 l 1
 500 -12.5 l 1
 562.5 -12.5 l 1
 625 -12.5 l 1
 625 -43.75 l 1
 625 -75 l 1
 562.5 -75 l 1
 500 -75 l 1
 500 -43.75 l 1
 500 -12.5 l 1
 468.75 -12.5 l 1
 437.5 -12.5 l 1
 437.5 18.75 l 1
 437.5 50 l 1
 468.75 50 l 1
 500 50 l 1
 500 175 l 1
 500 300 l 1
 437.5 300 l 1
 375 300 l 1
 375 331.25 l 1
 375 362.5 l 1
 437.5 362.5 l 1
 500 362.5 l 1
 500 487.5 l 1
 500 612.5 l 1
 468.75 612.5 l 1
 437.5 612.5 l 1
 437.5 643.75 l 1
 437.5 675 l 1
 312.5 675 l 1
 187.5 675 l 1
 187.5 643.75 l 1
 187.5 612.5 l 1
 156.25 612.5 l 1
 125 612.5 l 1
 125 487.5 l 1
 125 362.5 l 1
 187.5 362.5 l 1
 250 362.5 l 1
 250 331.25 l 1
 250 300 l 1
 187.5 300 l 1
 125 300 l 1
 125 175 l 1
 125 50 l 1
 93.75 50 l 1
 62.5 50 l 1
 62.5 331.25 l 1
 62.5 612.5 l 1
 93.75 612.5 l 1
 125 612.5 l 1
 125 643.75 l 1
 125 675 l 1
 156.25 675 l 1
 187.5 675 l 1
 187.5 706.25 l 1
EndSplineSet
EndChar

StartChar: aogonek
Encoding: 261 261 195
Width: 625
VWidth: 0
Flags: HW
LayerCount: 2
Back
Fore
SplineSet
125 456.25 m 1
 125 487.5 l 1
 281.25 487.5 l 1
 437.5 487.5 l 1
 437.5 300 l 1
 437.5 112.5 l 1
 500 112.5 l 1
 562.5 112.5 l 1
 562.5 81.25 l 1
 562.5 50 l 1
 500 50 l 1
 437.5 50 l 1
 437.5 18.75 l 1
 437.5 -12.5 l 1
 468.75 -12.5 l 1
 500 -12.5 l 1
 500 -43.75 l 1
 500 -75 l 1
 437.5 -75 l 1
 375 -75 l 1
 375 -12.5 l 1
 375 50 l 1
 250 50 l 1
 125 50 l 1
 125 81.25 l 1
 125 112.5 l 1
 93.75 112.5 l 1
 62.5 112.5 l 1
 62.5 268.75 l 1
 62.5 425 l 1
 93.75 425 l 1
 125 425 l 1
 125 456.25 l 1
375 300 m 1
 375 425 l 1
 281.25 425 l 1
 187.5 425 l 1
 187.5 393.75 l 1
 187.5 362.5 l 1
 156.25 362.5 l 1
 125 362.5 l 1
 125 237.5 l 1
 125 112.5 l 1
 218.75 112.5 l 1
 312.5 112.5 l 1
 312.5 143.75 l 1
 312.5 175 l 1
 343.75 175 l 1
 375 175 l 1
 375 300 l 1
437.5 81.25 m 1
 437.5 112.5 l 1
 406.25 112.5 l 1
 375 112.5 l 1
 375 81.25 l 1
 375 50 l 1
 406.25 50 l 1
 437.5 50 l 1
 437.5 81.25 l 1
EndSplineSet
EndChar

StartChar: Cacute
Encoding: 262 262 196
Width: 562
VWidth: 0
Flags: HW
LayerCount: 2
Back
Fore
SplineSet
187.5 706.25 m 1
 187.5 737.5 l 1
 312.5 737.5 l 1
 437.5 737.5 l 1
 437.5 706.25 l 1
 437.5 675 l 1
 500 675 l 1
 562.5 675 l 1
 562.5 612.5 l 1
 562.5 550 l 1
 531.25 550 l 1
 500 550 l 1
 500 581.25 l 1
 500 612.5 l 1
 468.75 612.5 l 1
 437.5 612.5 l 1
 437.5 643.75 l 1
 437.5 675 l 1
 312.5 675 l 1
 187.5 675 l 1
 187.5 612.5 l 1
 187.5 550 l 1
 156.25 550 l 1
 125 550 l 1
 125 362.5 l 1
 125 175 l 1
 156.25 175 l 1
 187.5 175 l 1
 187.5 143.75 l 1
 187.5 112.5 l 1
 343.75 112.5 l 1
 500 112.5 l 1
 500 175 l 1
 500 237.5 l 1
 531.25 237.5 l 1
 562.5 237.5 l 1
 562.5 175 l 1
 562.5 112.5 l 1
 531.25 112.5 l 1
 500 112.5 l 1
 500 81.25 l 1
 500 50 l 1
 312.5 50 l 1
 125 50 l 1
 125 112.5 l 1
 125 175 l 1
 93.75 175 l 1
 62.5 175 l 1
 62.5 393.75 l 1
 62.5 612.5 l 1
 93.75 612.5 l 1
 125 612.5 l 1
 125 643.75 l 1
 125 675 l 1
 156.25 675 l 1
 187.5 675 l 1
 187.5 706.25 l 1
375 893.75 m 1
 375 925 l 1
 406.25 925 l 1
 437.5 925 l 1
 437.5 893.75 l 1
 437.5 862.5 l 1
 406.25 862.5 l 1
 375 862.5 l 1
 375 831.25 l 1
 375 800 l 1
 343.75 800 l 1
 312.5 800 l 1
 312.5 831.25 l 1
 312.5 862.5 l 1
 343.75 862.5 l 1
 375 862.5 l 1
 375 893.75 l 1
EndSplineSet
EndChar

StartChar: cacute
Encoding: 263 263 197
Width: 500
VWidth: 0
Flags: HW
LayerCount: 2
Back
Fore
SplineSet
125 456.25 m 1
 125 487.5 l 1
 250 487.5 l 1
 375 487.5 l 1
 375 456.25 l 1
 375 425 l 1
 406.25 425 l 1
 437.5 425 l 1
 437.5 393.75 l 1
 437.5 362.5 l 1
 406.25 362.5 l 1
 375 362.5 l 1
 375 393.75 l 1
 375 425 l 1
 281.25 425 l 1
 187.5 425 l 1
 187.5 393.75 l 1
 187.5 362.5 l 1
 156.25 362.5 l 1
 125 362.5 l 1
 125 268.75 l 1
 125 175 l 1
 156.25 175 l 1
 187.5 175 l 1
 187.5 143.75 l 1
 187.5 112.5 l 1
 281.25 112.5 l 1
 375 112.5 l 1
 375 143.75 l 1
 375 175 l 1
 406.25 175 l 1
 437.5 175 l 1
 437.5 143.75 l 1
 437.5 112.5 l 1
 406.25 112.5 l 1
 375 112.5 l 1
 375 81.25 l 1
 375 50 l 1
 250 50 l 1
 125 50 l 1
 125 81.25 l 1
 125 112.5 l 1
 93.75 112.5 l 1
 62.5 112.5 l 1
 62.5 268.75 l 1
 62.5 425 l 1
 93.75 425 l 1
 125 425 l 1
 125 456.25 l 1
250 643.75 m 1
 250 675 l 1
 281.25 675 l 1
 312.5 675 l 1
 312.5 643.75 l 1
 312.5 612.5 l 1
 281.25 612.5 l 1
 250 612.5 l 1
 250 581.25 l 1
 250 550 l 1
 218.75 550 l 1
 187.5 550 l 1
 187.5 581.25 l 1
 187.5 612.5 l 1
 218.75 612.5 l 1
 250 612.5 l 1
 250 643.75 l 1
EndSplineSet
EndChar

StartChar: Ccircumflex
Encoding: 264 264 198
Width: 562
VWidth: 0
Flags: HW
LayerCount: 2
Back
Fore
SplineSet
187.5 706.25 m 1
 187.5 737.5 l 1
 312.5 737.5 l 1
 437.5 737.5 l 1
 437.5 706.25 l 1
 437.5 675 l 1
 500 675 l 1
 562.5 675 l 1
 562.5 612.5 l 1
 562.5 550 l 1
 531.25 550 l 1
 500 550 l 1
 500 581.25 l 1
 500 612.5 l 1
 468.75 612.5 l 1
 437.5 612.5 l 1
 437.5 643.75 l 1
 437.5 675 l 1
 312.5 675 l 1
 187.5 675 l 1
 187.5 612.5 l 1
 187.5 550 l 1
 156.25 550 l 1
 125 550 l 1
 125 362.5 l 1
 125 175 l 1
 156.25 175 l 1
 187.5 175 l 1
 187.5 143.75 l 1
 187.5 112.5 l 1
 343.75 112.5 l 1
 500 112.5 l 1
 500 175 l 1
 500 237.5 l 1
 531.25 237.5 l 1
 562.5 237.5 l 1
 562.5 175 l 1
 562.5 112.5 l 1
 531.25 112.5 l 1
 500 112.5 l 1
 500 81.25 l 1
 500 50 l 1
 312.5 50 l 1
 125 50 l 1
 125 112.5 l 1
 125 175 l 1
 93.75 175 l 1
 62.5 175 l 1
 62.5 393.75 l 1
 62.5 612.5 l 1
 93.75 612.5 l 1
 125 612.5 l 1
 125 643.75 l 1
 125 675 l 1
 156.25 675 l 1
 187.5 675 l 1
 187.5 706.25 l 1
250 893.75 m 1
 250 925 l 1
 312.5 925 l 1
 375 925 l 1
 375 893.75 l 1
 375 862.5 l 1
 406.25 862.5 l 1
 437.5 862.5 l 1
 437.5 831.25 l 1
 437.5 800 l 1
 406.25 800 l 1
 375 800 l 1
 375 831.25 l 1
 375 862.5 l 1
 312.5 862.5 l 1
 250 862.5 l 1
 250 831.25 l 1
 250 800 l 1
 218.75 800 l 1
 187.5 800 l 1
 187.5 831.25 l 1
 187.5 862.5 l 1
 218.75 862.5 l 1
 250 862.5 l 1
 250 893.75 l 1
EndSplineSet
EndChar

StartChar: ccircumflex
Encoding: 265 265 199
Width: 500
VWidth: 0
Flags: HW
LayerCount: 2
Back
Fore
SplineSet
125 456.25 m 1
 125 487.5 l 1
 250 487.5 l 1
 375 487.5 l 1
 375 456.25 l 1
 375 425 l 1
 406.25 425 l 1
 437.5 425 l 1
 437.5 393.75 l 1
 437.5 362.5 l 1
 406.25 362.5 l 1
 375 362.5 l 1
 375 393.75 l 1
 375 425 l 1
 281.25 425 l 1
 187.5 425 l 1
 187.5 393.75 l 1
 187.5 362.5 l 1
 156.25 362.5 l 1
 125 362.5 l 1
 125 268.75 l 1
 125 175 l 1
 156.25 175 l 1
 187.5 175 l 1
 187.5 143.75 l 1
 187.5 112.5 l 1
 281.25 112.5 l 1
 375 112.5 l 1
 375 143.75 l 1
 375 175 l 1
 406.25 175 l 1
 437.5 175 l 1
 437.5 143.75 l 1
 437.5 112.5 l 1
 406.25 112.5 l 1
 375 112.5 l 1
 375 81.25 l 1
 375 50 l 1
 250 50 l 1
 125 50 l 1
 125 81.25 l 1
 125 112.5 l 1
 93.75 112.5 l 1
 62.5 112.5 l 1
 62.5 268.75 l 1
 62.5 425 l 1
 93.75 425 l 1
 125 425 l 1
 125 456.25 l 1
187.5 643.75 m 1
 187.5 675 l 1
 250 675 l 1
 312.5 675 l 1
 312.5 643.75 l 1
 312.5 612.5 l 1
 343.75 612.5 l 1
 375 612.5 l 1
 375 581.25 l 1
 375 550 l 1
 343.75 550 l 1
 312.5 550 l 1
 312.5 581.25 l 1
 312.5 612.5 l 1
 250 612.5 l 1
 187.5 612.5 l 1
 187.5 581.25 l 1
 187.5 550 l 1
 156.25 550 l 1
 125 550 l 1
 125 581.25 l 1
 125 612.5 l 1
 156.25 612.5 l 1
 187.5 612.5 l 1
 187.5 643.75 l 1
EndSplineSet
EndChar

StartChar: Cdotaccent
Encoding: 266 266 200
Width: 562
VWidth: 0
Flags: HW
LayerCount: 2
Back
Fore
SplineSet
187.5 706.25 m 1
 187.5 737.5 l 1
 312.5 737.5 l 1
 437.5 737.5 l 1
 437.5 706.25 l 1
 437.5 675 l 1
 500 675 l 1
 562.5 675 l 1
 562.5 612.5 l 1
 562.5 550 l 1
 531.25 550 l 1
 500 550 l 1
 500 581.25 l 1
 500 612.5 l 1
 468.75 612.5 l 1
 437.5 612.5 l 1
 437.5 643.75 l 1
 437.5 675 l 1
 312.5 675 l 1
 187.5 675 l 1
 187.5 612.5 l 1
 187.5 550 l 1
 156.25 550 l 1
 125 550 l 1
 125 362.5 l 1
 125 175 l 1
 156.25 175 l 1
 187.5 175 l 1
 187.5 143.75 l 1
 187.5 112.5 l 1
 343.75 112.5 l 1
 500 112.5 l 1
 500 175 l 1
 500 237.5 l 1
 531.25 237.5 l 1
 562.5 237.5 l 1
 562.5 175 l 1
 562.5 112.5 l 1
 531.25 112.5 l 1
 500 112.5 l 1
 500 81.25 l 1
 500 50 l 1
 312.5 50 l 1
 125 50 l 1
 125 112.5 l 1
 125 175 l 1
 93.75 175 l 1
 62.5 175 l 1
 62.5 393.75 l 1
 62.5 612.5 l 1
 93.75 612.5 l 1
 125 612.5 l 1
 125 643.75 l 1
 125 675 l 1
 156.25 675 l 1
 187.5 675 l 1
 187.5 706.25 l 1
250 862.5 m 1
 250 925 l 1
 312.5 925 l 1
 375 925 l 1
 375 862.5 l 1
 375 800 l 1
 312.5 800 l 1
 250 800 l 1
 250 862.5 l 1
EndSplineSet
EndChar

StartChar: cdotaccent
Encoding: 267 267 201
Width: 500
VWidth: 0
Flags: HW
LayerCount: 2
Back
Fore
SplineSet
125 456.25 m 1
 125 487.5 l 1
 250 487.5 l 1
 375 487.5 l 1
 375 456.25 l 1
 375 425 l 1
 406.25 425 l 1
 437.5 425 l 1
 437.5 393.75 l 1
 437.5 362.5 l 1
 406.25 362.5 l 1
 375 362.5 l 1
 375 393.75 l 1
 375 425 l 1
 281.25 425 l 1
 187.5 425 l 1
 187.5 393.75 l 1
 187.5 362.5 l 1
 156.25 362.5 l 1
 125 362.5 l 1
 125 268.75 l 1
 125 175 l 1
 156.25 175 l 1
 187.5 175 l 1
 187.5 143.75 l 1
 187.5 112.5 l 1
 281.25 112.5 l 1
 375 112.5 l 1
 375 143.75 l 1
 375 175 l 1
 406.25 175 l 1
 437.5 175 l 1
 437.5 143.75 l 1
 437.5 112.5 l 1
 406.25 112.5 l 1
 375 112.5 l 1
 375 81.25 l 1
 375 50 l 1
 250 50 l 1
 125 50 l 1
 125 81.25 l 1
 125 112.5 l 1
 93.75 112.5 l 1
 62.5 112.5 l 1
 62.5 268.75 l 1
 62.5 425 l 1
 93.75 425 l 1
 125 425 l 1
 125 456.25 l 1
187.5 612.5 m 1
 187.5 675 l 1
 250 675 l 1
 312.5 675 l 1
 312.5 612.5 l 1
 312.5 550 l 1
 250 550 l 1
 187.5 550 l 1
 187.5 612.5 l 1
EndSplineSet
EndChar

StartChar: Ccaron
Encoding: 268 268 202
Width: 562
VWidth: 0
Flags: HW
LayerCount: 2
Back
Fore
SplineSet
187.5 706.25 m 1
 187.5 737.5 l 1
 312.5 737.5 l 1
 437.5 737.5 l 1
 437.5 706.25 l 1
 437.5 675 l 1
 500 675 l 1
 562.5 675 l 1
 562.5 612.5 l 1
 562.5 550 l 1
 531.25 550 l 1
 500 550 l 1
 500 581.25 l 1
 500 612.5 l 1
 468.75 612.5 l 1
 437.5 612.5 l 1
 437.5 643.75 l 1
 437.5 675 l 1
 312.5 675 l 1
 187.5 675 l 1
 187.5 612.5 l 1
 187.5 550 l 1
 156.25 550 l 1
 125 550 l 1
 125 362.5 l 1
 125 175 l 1
 156.25 175 l 1
 187.5 175 l 1
 187.5 143.75 l 1
 187.5 112.5 l 1
 343.75 112.5 l 1
 500 112.5 l 1
 500 175 l 1
 500 237.5 l 1
 531.25 237.5 l 1
 562.5 237.5 l 1
 562.5 175 l 1
 562.5 112.5 l 1
 531.25 112.5 l 1
 500 112.5 l 1
 500 81.25 l 1
 500 50 l 1
 312.5 50 l 1
 125 50 l 1
 125 112.5 l 1
 125 175 l 1
 93.75 175 l 1
 62.5 175 l 1
 62.5 393.75 l 1
 62.5 612.5 l 1
 93.75 612.5 l 1
 125 612.5 l 1
 125 643.75 l 1
 125 675 l 1
 156.25 675 l 1
 187.5 675 l 1
 187.5 706.25 l 1
187.5 893.75 m 1
 187.5 925 l 1
 218.75 925 l 1
 250 925 l 1
 250 893.75 l 1
 250 862.5 l 1
 312.5 862.5 l 1
 375 862.5 l 1
 375 893.75 l 1
 375 925 l 1
 406.25 925 l 1
 437.5 925 l 1
 437.5 893.75 l 1
 437.5 862.5 l 1
 406.25 862.5 l 1
 375 862.5 l 1
 375 831.25 l 1
 375 800 l 1
 312.5 800 l 1
 250 800 l 1
 250 831.25 l 1
 250 862.5 l 1
 218.75 862.5 l 1
 187.5 862.5 l 1
 187.5 893.75 l 1
EndSplineSet
EndChar

StartChar: ccaron
Encoding: 269 269 203
Width: 500
VWidth: 0
Flags: HW
LayerCount: 2
Back
Fore
SplineSet
125 456.25 m 1
 125 487.5 l 1
 250 487.5 l 1
 375 487.5 l 1
 375 456.25 l 1
 375 425 l 1
 406.25 425 l 1
 437.5 425 l 1
 437.5 393.75 l 1
 437.5 362.5 l 1
 406.25 362.5 l 1
 375 362.5 l 1
 375 393.75 l 1
 375 425 l 1
 281.25 425 l 1
 187.5 425 l 1
 187.5 393.75 l 1
 187.5 362.5 l 1
 156.25 362.5 l 1
 125 362.5 l 1
 125 268.75 l 1
 125 175 l 1
 156.25 175 l 1
 187.5 175 l 1
 187.5 143.75 l 1
 187.5 112.5 l 1
 281.25 112.5 l 1
 375 112.5 l 1
 375 143.75 l 1
 375 175 l 1
 406.25 175 l 1
 437.5 175 l 1
 437.5 143.75 l 1
 437.5 112.5 l 1
 406.25 112.5 l 1
 375 112.5 l 1
 375 81.25 l 1
 375 50 l 1
 250 50 l 1
 125 50 l 1
 125 81.25 l 1
 125 112.5 l 1
 93.75 112.5 l 1
 62.5 112.5 l 1
 62.5 268.75 l 1
 62.5 425 l 1
 93.75 425 l 1
 125 425 l 1
 125 456.25 l 1
125 643.75 m 1
 125 675 l 1
 156.25 675 l 1
 187.5 675 l 1
 187.5 643.75 l 1
 187.5 612.5 l 1
 250 612.5 l 1
 312.5 612.5 l 1
 312.5 643.75 l 1
 312.5 675 l 1
 343.75 675 l 1
 375 675 l 1
 375 643.75 l 1
 375 612.5 l 1
 343.75 612.5 l 1
 312.5 612.5 l 1
 312.5 581.25 l 1
 312.5 550 l 1
 250 550 l 1
 187.5 550 l 1
 187.5 581.25 l 1
 187.5 612.5 l 1
 156.25 612.5 l 1
 125 612.5 l 1
 125 643.75 l 1
EndSplineSet
EndChar

StartChar: Dcaron
Encoding: 270 270 204
Width: 562
VWidth: 0
Flags: HW
LayerCount: 2
Back
Fore
SplineSet
62.5 393.75 m 1
 62.5 737.5 l 1
 218.75 737.5 l 1
 375 737.5 l 1
 375 706.25 l 1
 375 675 l 1
 437.5 675 l 1
 500 675 l 1
 500 393.75 l 1
 500 112.5 l 1
 468.75 112.5 l 1
 437.5 112.5 l 1
 437.5 81.25 l 1
 437.5 50 l 1
 250 50 l 1
 62.5 50 l 1
 62.5 393.75 l 1
375 643.75 m 1
 375 675 l 1
 250 675 l 1
 125 675 l 1
 125 393.75 l 1
 125 112.5 l 1
 281.25 112.5 l 1
 437.5 112.5 l 1
 437.5 362.5 l 1
 437.5 612.5 l 1
 406.25 612.5 l 1
 375 612.5 l 1
 375 643.75 l 1
125 893.75 m 1
 125 925 l 1
 156.25 925 l 1
 187.5 925 l 1
 187.5 893.75 l 1
 187.5 862.5 l 1
 250 862.5 l 1
 312.5 862.5 l 1
 312.5 893.75 l 1
 312.5 925 l 1
 343.75 925 l 1
 375 925 l 1
 375 893.75 l 1
 375 862.5 l 1
 343.75 862.5 l 1
 312.5 862.5 l 1
 312.5 831.25 l 1
 312.5 800 l 1
 250 800 l 1
 187.5 800 l 1
 187.5 831.25 l 1
 187.5 862.5 l 1
 156.25 862.5 l 1
 125 862.5 l 1
 125 893.75 l 1
EndSplineSet
EndChar

StartChar: dcaron
Encoding: 271 271 205
Width: 687
VWidth: 0
Flags: HW
LayerCount: 2
Back
Fore
SplineSet
562.5 706.25 m 1
 562.5 737.5 l 1
 593.75 737.5 l 1
 625 737.5 l 1
 625 706.25 l 1
 625 675 l 1
 593.75 675 l 1
 562.5 675 l 1
 562.5 612.5 l 1
 562.5 550 l 1
 531.25 550 l 1
 500 550 l 1
 500 612.5 l 1
 500 675 l 1
 531.25 675 l 1
 562.5 675 l 1
 562.5 706.25 l 1
375 581.25 m 1
 375 737.5 l 1
 406.25 737.5 l 1
 437.5 737.5 l 1
 437.5 425 l 1
 437.5 112.5 l 1
 468.75 112.5 l 1
 500 112.5 l 1
 500 81.25 l 1
 500 50 l 1
 312.5 50 l 1
 125 50 l 1
 125 81.25 l 1
 125 112.5 l 1
 93.75 112.5 l 1
 62.5 112.5 l 1
 62.5 237.5 l 1
 62.5 362.5 l 1
 93.75 362.5 l 1
 125 362.5 l 1
 125 425 l 1
 125 487.5 l 1
 218.75 487.5 l 1
 312.5 487.5 l 1
 312.5 456.25 l 1
 312.5 425 l 1
 343.75 425 l 1
 375 425 l 1
 375 581.25 l 1
312.5 393.75 m 1
 312.5 425 l 1
 250 425 l 1
 187.5 425 l 1
 187.5 393.75 l 1
 187.5 362.5 l 1
 156.25 362.5 l 1
 125 362.5 l 1
 125 237.5 l 1
 125 112.5 l 1
 250 112.5 l 1
 375 112.5 l 1
 375 237.5 l 1
 375 362.5 l 1
 343.75 362.5 l 1
 312.5 362.5 l 1
 312.5 393.75 l 1
EndSplineSet
EndChar

StartChar: Dcroat
Encoding: 272 272 206
Width: 625
VWidth: 0
Flags: HW
LayerCount: 2
Back
Fore
SplineSet
62.5 581.25 m 1
 62.5 737.5 l 1
 218.75 737.5 l 1
 375 737.5 l 1
 375 706.25 l 1
 375 675 l 1
 437.5 675 l 1
 500 675 l 1
 500 393.75 l 1
 500 112.5 l 1
 468.75 112.5 l 1
 437.5 112.5 l 1
 437.5 81.25 l 1
 437.5 50 l 1
 250 50 l 1
 62.5 50 l 1
 62.5 206.25 l 1
 62.5 362.5 l 1
 31.25 362.5 l 1
 0 362.5 l 1
 0 393.75 l 1
 0 425 l 1
 31.25 425 l 1
 62.5 425 l 1
 62.5 581.25 l 1
375 643.75 m 1
 375 675 l 1
 250 675 l 1
 125 675 l 1
 125 550 l 1
 125 425 l 1
 218.75 425 l 1
 312.5 425 l 1
 312.5 393.75 l 1
 312.5 362.5 l 1
 218.75 362.5 l 1
 125 362.5 l 1
 125 237.5 l 1
 125 112.5 l 1
 281.25 112.5 l 1
 437.5 112.5 l 1
 437.5 362.5 l 1
 437.5 612.5 l 1
 406.25 612.5 l 1
 375 612.5 l 1
 375 643.75 l 1
EndSplineSet
EndChar

StartChar: dcroat
Encoding: 273 273 207
Width: 562
VWidth: 0
Flags: HW
LayerCount: 2
Back
Fore
SplineSet
375 706.25 m 1
 375 737.5 l 1
 406.25 737.5 l 1
 437.5 737.5 l 1
 437.5 706.25 l 1
 437.5 675 l 1
 468.75 675 l 1
 500 675 l 1
 500 643.75 l 1
 500 612.5 l 1
 468.75 612.5 l 1
 437.5 612.5 l 1
 437.5 362.5 l 1
 437.5 112.5 l 1
 468.75 112.5 l 1
 500 112.5 l 1
 500 81.25 l 1
 500 50 l 1
 312.5 50 l 1
 125 50 l 1
 125 81.25 l 1
 125 112.5 l 1
 93.75 112.5 l 1
 62.5 112.5 l 1
 62.5 237.5 l 1
 62.5 362.5 l 1
 93.75 362.5 l 1
 125 362.5 l 1
 125 425 l 1
 125 487.5 l 1
 218.75 487.5 l 1
 312.5 487.5 l 1
 312.5 456.25 l 1
 312.5 425 l 1
 343.75 425 l 1
 375 425 l 1
 375 518.75 l 1
 375 612.5 l 1
 312.5 612.5 l 1
 250 612.5 l 1
 250 643.75 l 1
 250 675 l 1
 312.5 675 l 1
 375 675 l 1
 375 706.25 l 1
312.5 393.75 m 1
 312.5 425 l 1
 250 425 l 1
 187.5 425 l 1
 187.5 393.75 l 1
 187.5 362.5 l 1
 156.25 362.5 l 1
 125 362.5 l 1
 125 237.5 l 1
 125 112.5 l 1
 250 112.5 l 1
 375 112.5 l 1
 375 237.5 l 1
 375 362.5 l 1
 343.75 362.5 l 1
 312.5 362.5 l 1
 312.5 393.75 l 1
EndSplineSet
EndChar

StartChar: Emacron
Encoding: 274 274 208
Width: 500
VWidth: 0
Flags: HW
LayerCount: 2
Back
Fore
SplineSet
62.5 393.75 m 1
 62.5 737.5 l 1
 281.25 737.5 l 1
 500 737.5 l 1
 500 706.25 l 1
 500 675 l 1
 312.5 675 l 1
 125 675 l 1
 125 550 l 1
 125 425 l 1
 281.25 425 l 1
 437.5 425 l 1
 437.5 393.75 l 1
 437.5 362.5 l 1
 281.25 362.5 l 1
 125 362.5 l 1
 125 237.5 l 1
 125 112.5 l 1
 312.5 112.5 l 1
 500 112.5 l 1
 500 81.25 l 1
 500 50 l 1
 281.25 50 l 1
 62.5 50 l 1
 62.5 393.75 l 1
125 831.25 m 1
 125 862.5 l 1
 312.5 862.5 l 1
 500 862.5 l 1
 500 831.25 l 1
 500 800 l 1
 312.5 800 l 1
 125 800 l 1
 125 831.25 l 1
EndSplineSet
EndChar

StartChar: emacron
Encoding: 275 275 209
Width: 500
VWidth: 0
Flags: HW
LayerCount: 2
Back
Fore
SplineSet
125 456.25 m 1
 125 487.5 l 1
 250 487.5 l 1
 375 487.5 l 1
 375 456.25 l 1
 375 425 l 1
 406.25 425 l 1
 437.5 425 l 1
 437.5 331.25 l 1
 437.5 237.5 l 1
 281.25 237.5 l 1
 125 237.5 l 1
 125 175 l 1
 125 112.5 l 1
 250 112.5 l 1
 375 112.5 l 1
 375 143.75 l 1
 375 175 l 1
 406.25 175 l 1
 437.5 175 l 1
 437.5 143.75 l 1
 437.5 112.5 l 1
 406.25 112.5 l 1
 375 112.5 l 1
 375 81.25 l 1
 375 50 l 1
 250 50 l 1
 125 50 l 1
 125 81.25 l 1
 125 112.5 l 1
 93.75 112.5 l 1
 62.5 112.5 l 1
 62.5 268.75 l 1
 62.5 425 l 1
 93.75 425 l 1
 125 425 l 1
 125 456.25 l 1
375 362.5 m 1
 375 425 l 1
 250 425 l 1
 125 425 l 1
 125 362.5 l 1
 125 300 l 1
 250 300 l 1
 375 300 l 1
 375 362.5 l 1
62.5 581.25 m 1
 62.5 612.5 l 1
 250 612.5 l 1
 437.5 612.5 l 1
 437.5 581.25 l 1
 437.5 550 l 1
 250 550 l 1
 62.5 550 l 1
 62.5 581.25 l 1
EndSplineSet
EndChar

StartChar: Ebreve
Encoding: 276 276 210
Width: 500
VWidth: 0
Flags: HW
LayerCount: 2
Back
Fore
SplineSet
62.5 393.75 m 1
 62.5 737.5 l 1
 281.25 737.5 l 1
 500 737.5 l 1
 500 706.25 l 1
 500 675 l 1
 312.5 675 l 1
 125 675 l 1
 125 550 l 1
 125 425 l 1
 281.25 425 l 1
 437.5 425 l 1
 437.5 393.75 l 1
 437.5 362.5 l 1
 281.25 362.5 l 1
 125 362.5 l 1
 125 237.5 l 1
 125 112.5 l 1
 312.5 112.5 l 1
 500 112.5 l 1
 500 81.25 l 1
 500 50 l 1
 281.25 50 l 1
 62.5 50 l 1
 62.5 393.75 l 1
187.5 893.75 m 1
 187.5 925 l 1
 218.75 925 l 1
 250 925 l 1
 250 893.75 l 1
 250 862.5 l 1
 312.5 862.5 l 1
 375 862.5 l 1
 375 893.75 l 1
 375 925 l 1
 406.25 925 l 1
 437.5 925 l 1
 437.5 893.75 l 1
 437.5 862.5 l 1
 406.25 862.5 l 1
 375 862.5 l 1
 375 831.25 l 1
 375 800 l 1
 312.5 800 l 1
 250 800 l 1
 250 831.25 l 1
 250 862.5 l 1
 218.75 862.5 l 1
 187.5 862.5 l 1
 187.5 893.75 l 1
EndSplineSet
EndChar

